<svg id="Layer_1" data-name="Layer 1" xmlns="http://www.w3.org/2000/svg" viewBox="0 0 669.27 354.37"><defs><style>.cls-1{fill:#004aaf;}.cls-2{font-size:129.39px;font-family:Roboto-Bold, Roboto;font-weight:700;letter-spacing:-0.02em;}.cls-2,.cls-3,.cls-4{fill:#fff;}.cls-3{font-size:100.23px;stroke:#fff;stroke-miterlimit:10;font-family:Microsoft-Himalaya, Microsoft Himalaya;}</style></defs><path class="cls-1" d="M637.79,150.82c-32.3-34.83-72.38-47-118.93-37-3.08.65-4.5.1-5.61-2.91C503.33,84,487.94,60.65,465.92,42.2,415.67.11,358.86-10.73,297.17,10.73c-44.86,15.61-76.94,46.61-96.67,90-1.4,3.08-3,3.54-6.17,2.84a131.53,131.53,0,0,0-20.16-3.19c-39.25-2.32-76.65,21.25-91.85,57.42a93.85,93.85,0,0,0-7.56,37.08c-21.7,4.05-33.89,8.47-44.29,17.18C6.11,232.49-4.31,258.72,1.64,290,7.39,320.15,26.07,340.18,55,350.59c12.57,4.52,25.59,3.63,38.58,3.62q111.23-.07,222.46,0,115,0,230,.18c34.53,0,64.11-12,88.32-36.61,21.91-22.28,33.68-49.19,34.82-80.49C670.37,204.27,660.16,174.93,637.79,150.82Z"/><text class="cls-2" transform="translate(193.19 224.61) scale(1.13 1)">FERO</text><text class="cls-3" transform="translate(253.61 298.32) scale(1.07 1)">iCloud</text><path class="cls-4" d="M403.67,107.85c-.36,7.54-4.67,13.12-11.95,15.06a14.58,14.58,0,0,1-17.19-7.67c-4.81-9.15-11.62-15.43-22.46-15.71-11.53-.3-18.82,6-23.87,15.81-3.31,6.37-9.65,9.27-16.21,7.73-10.54-2.47-15.47-11.9-10.85-21.9C309.86,82.3,324.82,71.34,345.43,69c24.12-2.71,45.74,9.84,56,31.78A55.36,55.36,0,0,1,403.67,107.85Z"/></svg>