<svg xmlns="http://www.w3.org/2000/svg" width="1284.295" height="969.474" viewBox="0 0 1284.295 969.474">
  <g id="Group_1" data-name="Group 1" transform="translate(-245.015 -55.263)">
    <path id="Path_1" data-name="Path 1" d="M719.628,153.644c11.016,23.443-12.327,30.083-39.067,42.648s-46.75,26.3-57.766,2.854-19.954-69.973,17.874-87.749C679.8,93.011,708.612,130.2,719.628,153.644Z" transform="translate(265.486 -51.197)" fill="#4a6699"/>
    <circle id="Ellipse_1" data-name="Ellipse 1" cx="35.997" cy="35.997" r="35.997" transform="translate(894.56 76.556)" fill="#f2cf8f"/>
    <path id="Path_2" data-name="Path 2" d="M810.865,269.476c-1.246-1.627-2.492-3.224-3.752-4.778q-2.44-3.034-4.91-5.877c-18.657-21.53-38.5-35.087-60.354-36.538h-.029l-.323-.029L697.953,264.7l-14.8,14.422.323.791L691.46,299.8H831.413a344.123,344.123,0,0,0-20.548-30.324Z" transform="translate(298.029 2.719)" fill="#4a6699"/>
    <path id="Path_3" data-name="Path 3" d="M623.054,173.686h0l12.886-6.055-1.795-18.589,8.617,15.383,6.159-2.894-1.047-10.844,5.026,8.974,45.763-21.5h0a38.106,38.106,0,0,0-50.695-18.282l-6.632,3.117a38.106,38.106,0,0,0-18.282,50.695Z" transform="translate(268.358 -46.64)" fill="#4a6699"/>
    <path id="Path_4" data-name="Path 4" d="M1071.865,758.058H320.235a24.21,24.21,0,0,1-24.183-24.183V282.236a17.737,17.737,0,0,1,17.716-17.717h764.257a18.044,18.044,0,0,1,18.023,18.023V733.875a24.21,24.21,0,0,1-24.183,24.183Z" transform="translate(117.786 22.4)" fill="#f2f2f2"/>
    <path id="Path_5" data-name="Path 5" d="M336,721.445h704.732a23.45,23.45,0,0,0,23.45-23.45V314.663a23.45,23.45,0,0,0-23.45-23.45H336a23.45,23.45,0,0,0-23.45,23.45V698A23.45,23.45,0,0,0,336,721.445Z" transform="translate(125.468 34.829)" fill="#fff"/>
    <path id="Path_6" data-name="Path 6" d="M1095.819,287.281h-800V274.969a24.291,24.291,0,0,1,24.271-24.256h751.457a24.291,24.291,0,0,1,24.271,24.256Z" transform="translate(117.678 15.971)" fill="#5d80bf"/>
    <circle id="Ellipse_2" data-name="Ellipse 2" cx="6.278" cy="6.278" r="6.278" transform="translate(451.328 278.726)" fill="#fff"/>
    <circle id="Ellipse_3" data-name="Ellipse 3" cx="6.278" cy="6.278" r="6.278" transform="translate(475.158 278.726)" fill="#fff"/>
    <circle id="Ellipse_4" data-name="Ellipse 4" cx="6.278" cy="6.278" r="6.278" transform="translate(498.987 278.726)" fill="#fff"/>
    <path id="Path_7" data-name="Path 7" d="M608.419,556.909H545.4a13.939,13.939,0,0,1-13.923-13.923V479.963A13.939,13.939,0,0,1,545.4,466.04h63.022a13.939,13.939,0,0,1,13.924,13.923v63.022A13.939,13.939,0,0,1,608.419,556.909ZM545.4,468.971a11,11,0,0,0-10.992,10.992v63.022A11,11,0,0,0,545.4,553.978h63.022a11,11,0,0,0,10.992-10.992V479.963a11,11,0,0,0-10.992-10.992Z" transform="translate(227.405 116.234)" fill="#ccc"/>
    <path id="Path_8" data-name="Path 8" d="M588.977,533.734H550.871a4.4,4.4,0,0,1-4.4-4.4v-46.9a4.4,4.4,0,0,1,4.4-4.4h27.611a4.408,4.408,0,0,1,2.755.97l10.494,8.433a4.374,4.374,0,0,1,1.643,3.427v38.467A4.4,4.4,0,0,1,588.977,533.734Zm-38.106-52.763a1.467,1.467,0,0,0-1.466,1.466v46.9a1.467,1.467,0,0,0,1.466,1.466h38.106a1.467,1.467,0,0,0,1.466-1.466V490.87a1.457,1.457,0,0,0-.547-1.142l-10.5-8.434a1.468,1.468,0,0,0-.918-.323Z" transform="translate(234.389 121.821)" fill="#ccc"/>
    <path id="Path_9" data-name="Path 9" d="M578.39,492.971H554.94a1.466,1.466,0,1,1,0-2.931h23.45a1.466,1.466,0,1,1,0,2.931Z" transform="translate(237.649 127.409)" fill="#ccc"/>
    <path id="Path_10" data-name="Path 10" d="M578.39,498.971H554.94a1.466,1.466,0,1,1,0-2.931h23.45a1.466,1.466,0,1,1,0,2.931Z" transform="translate(237.649 130.203)" fill="#ccc"/>
    <path id="Path_11" data-name="Path 11" d="M578.39,504.971H554.94a1.466,1.466,0,0,1,0-2.931h23.45a1.466,1.466,0,0,1,0,2.931Z" transform="translate(237.649 132.996)" fill="#ccc"/>
    <path id="Path_12" data-name="Path 12" d="M710.42,556.909H647.4a13.939,13.939,0,0,1-13.923-13.923V479.963A13.939,13.939,0,0,1,647.4,466.04H710.42a13.939,13.939,0,0,1,13.924,13.923v63.022A13.939,13.939,0,0,1,710.42,556.909ZM647.4,468.971a11,11,0,0,0-10.992,10.992v63.022A11,11,0,0,0,647.4,553.978H710.42a11,11,0,0,0,10.992-10.992V479.963a11,11,0,0,0-10.992-10.992Z" transform="translate(274.899 116.234)" fill="#ccc"/>
    <path id="Path_13" data-name="Path 13" d="M692.909,518.284H651.871a4.4,4.4,0,0,1-4.4-4.4v-23.45a4.4,4.4,0,0,1,4.4-4.4h41.038a4.4,4.4,0,0,1,4.4,4.4v23.45A4.4,4.4,0,0,1,692.909,518.284Zm-41.038-29.312a1.467,1.467,0,0,0-1.466,1.466v23.45a1.467,1.467,0,0,0,1.466,1.466h41.038a1.467,1.467,0,0,0,1.466-1.466v-23.45a1.467,1.467,0,0,0-1.466-1.466Z" transform="translate(281.418 125.546)" fill="#ccc"/>
    <path id="Path_14" data-name="Path 14" d="M672.39,505.1a4.4,4.4,0,0,1-2.33-.663l-21.9-13.685a1.466,1.466,0,0,1,1.554-2.486l21.9,13.685a1.474,1.474,0,0,0,1.553,0l21.9-13.685a1.466,1.466,0,0,1,1.554,2.486l-21.9,13.685a4.4,4.4,0,0,1-2.332.663Z" transform="translate(281.418 126.477)" fill="#ccc"/>
    <path id="Path_15" data-name="Path 15" d="M506.42,556.909H443.4a13.939,13.939,0,0,1-13.923-13.923V479.963A13.939,13.939,0,0,1,443.4,466.04H506.42a13.939,13.939,0,0,1,13.923,13.923v63.022A13.939,13.939,0,0,1,506.42,556.909ZM443.4,468.971a11,11,0,0,0-10.992,10.992v63.022A11,11,0,0,0,443.4,553.978H506.42a11,11,0,0,0,10.992-10.992V479.963a11,11,0,0,0-10.992-10.992Z" transform="translate(179.911 116.234)" fill="#ccc"/>
    <path id="Path_16" data-name="Path 16" d="M488.908,518.284H447.871a4.4,4.4,0,0,1-4.4-4.4v-23.45a4.4,4.4,0,0,1,4.4-4.4h41.038a4.4,4.4,0,0,1,4.4,4.4v23.45A4.4,4.4,0,0,1,488.908,518.284Zm-41.038-29.312a1.467,1.467,0,0,0-1.466,1.466v23.45a1.467,1.467,0,0,0,1.466,1.466h41.038a1.467,1.467,0,0,0,1.466-1.466v-23.45a1.467,1.467,0,0,0-1.466-1.466Z" transform="translate(186.43 125.546)" fill="#ccc"/>
    <path id="Path_17" data-name="Path 17" d="M480.338,514.792H450.843a2.931,2.931,0,0,1-2.538-4.4l8.884-15.389a2.931,2.931,0,0,1,5.077,0L468,504.944l3.324-5.758a2.932,2.932,0,0,1,5.077,0l6.471,11.208a2.931,2.931,0,0,1-2.539,4.4Zm0-2.931h0l-6.471-11.208-4.593,7.956a1.465,1.465,0,0,1-1.27.733h0a1.466,1.466,0,0,1-1.27-.733l-7.007-12.137-8.885,15.389Z" transform="translate(188.496 129.038)" fill="#ccc"/>
    <circle id="Ellipse_5" data-name="Ellipse 5" cx="2.931" cy="2.931" r="2.931" transform="translate(668.01 617.448)" fill="#ccc"/>
    <path id="Path_18" data-name="Path 18" d="M777.249,670.169l-17.969,0-8.548-69.307h26.519Z" transform="translate(594.578 335.042)" fill="#f2cf8f"/>
    <path id="Path_19" data-name="Path 19" d="M971.222,773.892l-57.937,0v-.733a22.55,22.55,0,0,1,22.551-22.55h35.387Z" transform="translate(405.187 248.736)" fill="#4a6699"/>
    <path id="Path_20" data-name="Path 20" d="M827.249,670.169l-17.969,0-8.548-69.307h26.519Z" transform="translate(617.859 335.042)" fill="#f2cf8f"/>
    <path id="Path_21" data-name="Path 21" d="M1021.227,773.892l-57.937,0v-.733a22.551,22.551,0,0,1,22.551-22.55h35.387Z" transform="translate(428.471 248.736)" fill="#4a6699"/>
    <path id="Path_22" data-name="Path 22" d="M1027.334,818.743l-16.641-5.062a6.586,6.586,0,0,1-4.64-5.618L990.538,661.021a.7.7,0,0,0-.7-.656.688.688,0,0,0-.748.6L963.1,803.423a6.6,6.6,0,0,1-7.819,5.276l-21.268-4.38a6.619,6.619,0,0,1-5.25-6.906l15.807-233.494,107.193-11.566-15.928,260.482a6.59,6.59,0,0,1-8.5,5.909Z" transform="translate(412.388 156.423)" fill="#4a6699"/>
    <circle id="Ellipse_6" data-name="Ellipse 6" cx="35.997" cy="35.997" r="35.997" transform="translate(1403.622 445.012)" fill="#f2cf8f"/>
    <path id="Path_23" data-name="Path 23" d="M939.433,622.536l23.242-146.345a55.485,55.485,0,0,1,70.358-44.554h0a55.317,55.317,0,0,1,38.987,63.406L1047.7,625.736Z" transform="translate(417.362 99.178)" fill="#5d80bf"/>
    <path id="Path_24" data-name="Path 24" d="M1010.047,600.964a14.738,14.738,0,0,0,2.56-22.454l24.031-46.536-27.063,2.888L990.9,578.611a14.818,14.818,0,0,0,19.142,22.353Z" transform="translate(439.504 146.935)" fill="#f2cf8f"/>
    <path id="Path_25" data-name="Path 25" d="M1010.963,610.732a6.6,6.6,0,0,1-3.556-1.687l-9.194-8.5a6.617,6.617,0,0,1-1.6-7.408l18.375-43.556-2.607-86.061a21.246,21.246,0,1,1,42.1,5.743l4.457,54.1a67.966,67.966,0,0,1-13.1,46.016l-28.656,38.74a6.6,6.6,0,0,1-4.683,2.644A6.515,6.515,0,0,1,1010.963,610.732Z" transform="translate(443.747 106.506)" fill="#5d80bf"/>
    <path id="Path_26" data-name="Path 26" d="M854.59,389.161a14.738,14.738,0,0,0,19.678,11.112l33.484,40.273,7.892-26.047-33.006-34.25a14.818,14.818,0,0,0-28.047,8.912Z" transform="translate(377.733 72.236)" fill="#f2cf8f"/>
    <path id="Path_27" data-name="Path 27" d="M872.7,397.609a6.6,6.6,0,0,1,2.94-2.617l11.408-5.154a6.617,6.617,0,0,1,7.445,1.415l32.944,33.9L1007.7,456.31A21.246,21.246,0,1,1,986,492.842l-51.556-16.989a67.966,67.966,0,0,1-37.267-30l-24.5-41.493a6.6,6.6,0,0,1-.609-5.343,6.518,6.518,0,0,1,.633-1.4Z" transform="translate(385.852 80.481)" fill="#5d80bf"/>
    <path id="Path_28" data-name="Path 28" d="M844.045,375.652l-1.466,46.9-27,46.916,22.544-52.283Z" transform="translate(624.772 230.178)" opacity="0.1"/>
    <path id="Path_29" data-name="Path 29" d="M1006.641,417.882a9.414,9.414,0,0,1-10.3-6.892,14.311,14.311,0,0,0-10.187-10.66c-6.6-1.509-14.674,1.6-19.513-3.4a9.728,9.728,0,0,1-2.309-8.563c.891-4.862,4.369-8.535,8.154-11.472a49.923,49.923,0,0,1,27.651-10.334,99.2,99.2,0,0,1,15.566.774,68.9,68.9,0,0,1,15.922,2.91,37.485,37.485,0,0,1,23.453,27.378,43.277,43.277,0,0,1-8.878,35.366,46.463,46.463,0,0,1-17.823,13.57,6.954,6.954,0,0,1-5.285.268c-4.334-1.723-3.626-7.092-1.65-10.673,2.115-3.832,5.369-7.543,3.668-12.207a9.237,9.237,0,0,0-4.583-4.934c-4.309-2.2-9.128-1.678-13.76-1.143Z" transform="translate(428.854 69.892)" fill="#4a6699"/>
    <path id="Path_30" data-name="Path 30" d="M995.531,461.065H549.98A24.21,24.21,0,0,1,525.8,436.882V341.616a24.21,24.21,0,0,1,24.183-24.183H995.531a24.211,24.211,0,0,1,24.183,24.183v95.266A24.21,24.21,0,0,1,995.531,461.065Z" transform="translate(224.761 47.038)" fill="#fff"/>
    <path id="Path_31" data-name="Path 31" d="M995.764,462.03H550.213A24.944,24.944,0,0,1,525.3,437.115V341.849a24.944,24.944,0,0,1,24.916-24.916H995.764a24.944,24.944,0,0,1,24.916,24.916v95.266A24.944,24.944,0,0,1,995.764,462.03ZM550.213,319.864a22.009,22.009,0,0,0-21.984,21.984v95.266A22.009,22.009,0,0,0,550.213,459.1H995.764a22.009,22.009,0,0,0,21.984-21.984V341.849a22.009,22.009,0,0,0-21.984-21.984Z" transform="translate(224.529 46.805)" fill="#5d80bf"/>
    <path id="Path_32" data-name="Path 32" d="M924.074,430.63H586.98A24.21,24.21,0,0,1,562.8,406.447V356.616a24.21,24.21,0,0,1,24.183-24.183H924.074a24.21,24.21,0,0,1,24.183,24.183v49.831a24.21,24.21,0,0,1-24.183,24.183Z" transform="translate(241.99 54.022)" fill="#f2f2f2"/>
    <circle id="Ellipse_7" data-name="Ellipse 7" cx="28.92" cy="28.92" r="28.92" transform="translate(872.591 399.954)" fill="#7099e5"/>
    <path id="Path_33" data-name="Path 33" d="M888.955,421.927,848.133,387.69l-40.117-33.646a5.863,5.863,0,0,0-7.552.015l-39.987,33.8-9.767,8.256-14.727-12.351-44.756-37.536a5.862,5.862,0,0,0-7.551.015l-44.611,37.708-45.313,38.3a1.466,1.466,0,0,0,.949,2.585l92.9-.179,29.406-.057-.288.243,87.656-.169,83.639-.161a1.466,1.466,0,0,0,.939-2.589Z" transform="translate(256.161 59.808)" fill="#7fbf5d"/>
    <path id="Path_34" data-name="Path 34" d="M1146.006,768.864h-281.4a1.466,1.466,0,0,1,0-2.931h281.4a1.466,1.466,0,0,1,0,2.931Z" transform="translate(381.838 255.873)" fill="#ccc"/>
    <path id="Path_35" data-name="Path 35" d="M831.783,273.84a16.446,16.446,0,0,0-10.626-7.475,15.1,15.1,0,0,0-2.432-.308L707.058,166.219a13.213,13.213,0,0,0-8.251-3.943,11.241,11.241,0,0,0-1.861-.059,13.271,13.271,0,0,0-8.735,22.688l42.752,37.271,70.2,61.19a17.449,17.449,0,0,0,.513,3.415,16.512,16.512,0,0,0,14.172,12.267,16.257,16.257,0,0,0,8.868-1.466,16.718,16.718,0,0,0,5.687-4.353c.161-.191.308-.366.454-.572a16.551,16.551,0,0,0,.923-18.819Z" transform="translate(298.554 -25.242)" fill="#f2cf8f"/>
    <path id="Path_36" data-name="Path 36" d="M664.192,355.457l-1.041-42.3-.88-35.1-.6-24.564-1.187-47.882a13.258,13.258,0,0,0-23.025-7.695,10.144,10.144,0,0,0-1.1,1.407,13.1,13.1,0,0,0-2.286,8.867l2.609,69.867,1.3,35.1,1.67,44.775a17.656,17.656,0,0,0-1.3,2.067,16.573,16.573,0,1,0,25.839-4.543Z" transform="translate(275.144 -10.64)" fill="#f2cf8f"/>
    <path id="Path_37" data-name="Path 37" d="M764.3,250.541l-10.362-28.067L737.173,177.01a23.458,23.458,0,0,0-14.583-14.187c-.263-.088-.542-.176-.806-.249a23.426,23.426,0,0,0-19.4,2.667l-56.471,35.82a23.587,23.587,0,0,0-7.724,31.877,404.977,404.977,0,0,0,23.054,35.454c6.581,8.955,18.834,9.908,20.959,24.564h41.638l42.152-37.843Z" transform="translate(275.578 -25.539)" fill="#7fbf5d"/>
    <circle id="Ellipse_8" data-name="Ellipse 8" cx="33.961" cy="33.961" r="33.961" transform="translate(359.324 500.097)" fill="#bf9d5d"/>
    <path id="Path_38" data-name="Path 38" d="M365.637,418.239q.5.4.973.847A15.213,15.213,0,0,1,366,441.779a14.29,14.29,0,0,1-1.193.9l2.3,77.6a11.815,11.815,0,0,1-8.127,11.53l-.14.03-63.005,6.71a13.042,13.042,0,1,1-2.524-25.961l44.913-3.955,7.767-67.2a14.487,14.487,0,0,1-1.424-1.451,15.213,15.213,0,0,1,21.073-21.739Z" transform="translate(111.022 92.443)" fill="#bf9d5d"/>
    <path id="Path_39" data-name="Path 39" d="M139.329,669.947h16.953l8.064-65.386h-25.02Z" transform="translate(309.889 336.765)" fill="#bf9d5d"/>
    <path id="Path_40" data-name="Path 40" d="M317.242,751.858h33.385A21.275,21.275,0,0,1,371.9,773.133v.691l-54.66,0Z" transform="translate(127.652 249.318)" fill="#7099e5"/>
    <path id="Path_41" data-name="Path 41" d="M24.366,651.031,38.931,659.7l40.382-52.055-21.5-12.8Z" transform="translate(256.36 332.242)" fill="#bf9d5d"/>
    <path id="Path_42" data-name="Path 42" d="M208.2,734.889l28.685,17.079h0a21.275,21.275,0,0,1,7.4,29.164l-.354.594L196.96,753.763Z" transform="translate(71.645 241.418)" fill="#7099e5"/>
    <path id="Path_43" data-name="Path 43" d="M391.626,838.928H372.643a6.211,6.211,0,0,1-6.187-5.565L347.32,653.476a2.074,2.074,0,0,0-3.953-.635l-34.523,76.445-61.122,99.667a6.252,6.252,0,0,1-7.81,2.441l-24.418-10.743a6.224,6.224,0,0,1-2.836-8.888l56.188-94.082,17.232-79.269c-5.42-34.376,17.815-85.484,18.05-86l.115-.25,64-25.015.321.393c25.24,82.828,40.62,171.965,29.264,305.683a6.264,6.264,0,0,1-6.2,5.7Z" transform="translate(78.545 144.689)" fill="#4a6699"/>
    <path id="Path_44" data-name="Path 44" d="M282.053,589.876l-.3-.627c-.142-.3-14.373-30.314-25.344-62.394a47.318,47.318,0,0,1,3.281-37.921,47.835,47.835,0,0,1,30.5-23.456h0a47.892,47.892,0,0,1,55.589,28.682c8.7,21.76,5.928,44.987,3.319,63.252l-.052.366-.333.159Z" transform="translate(98.156 115.355)" fill="#7099e5"/>
    <path id="Path_45" data-name="Path 45" d="M327.256,429.153H273.33V405.646c11.836-4.7,23.419-8.7,30.42,0a23.506,23.506,0,0,1,23.506,23.506Z" transform="translate(107.206 85.722)" fill="#4a6699"/>
    <path id="Path_46" data-name="Path 46" d="M284.4,401.185c-32.238,0-41.262,40.409-41.262,63.206,0,12.714,5.75,17.261,14.785,18.8l3.191-17.017,7.473,17.75c2.538.013,5.2-.036,7.968-.088l2.534-5.217,5.65,5.124c22.631.034,40.921,3.333,40.921-19.35C325.662,441.594,317.749,401.185,284.4,401.185Z" transform="translate(93.148 86.035)" fill="#4a6699"/>
    <path id="Path_47" data-name="Path 47" d="M463.73,768.864H182.33a1.466,1.466,0,0,1,0-2.931h281.4a1.466,1.466,0,1,1,0,2.931Z" transform="translate(64.151 255.873)" fill="#ccc"/>
    <path id="Path_48" data-name="Path 48" d="M401.919,467.8H338.9a13.939,13.939,0,0,1-13.923-13.924V390.857A13.939,13.939,0,0,1,338.9,376.933h63.022a13.939,13.939,0,0,1,13.924,13.924v63.022A13.939,13.939,0,0,1,401.919,467.8Z" transform="translate(131.253 74.743)" fill="#fff"/>
    <path id="Path_49" data-name="Path 49" d="M401.919,467.8H338.9a13.939,13.939,0,0,1-13.923-13.924V390.857A13.939,13.939,0,0,1,338.9,376.933h63.022a13.939,13.939,0,0,1,13.924,13.924v63.022A13.939,13.939,0,0,1,401.919,467.8ZM338.9,379.864a11,11,0,0,0-10.992,10.992v63.022A11,11,0,0,0,338.9,464.871h63.022a11,11,0,0,0,10.992-10.992V390.857a11,11,0,0,0-10.992-10.992Z" transform="translate(131.253 74.743)" fill="#4a6699"/>
    <path id="Path_50" data-name="Path 50" d="M384.408,434.005H343.371a4.4,4.4,0,0,1-4.4-4.4V398.83a4.4,4.4,0,0,1,4.4-4.4h11.553a4.37,4.37,0,0,1,3.745,2.092l3.222,5.236h22.518a4.4,4.4,0,0,1,4.4,4.4v23.45a4.4,4.4,0,0,1-4.4,4.4Z" transform="translate(137.771 82.891)" fill="#7099e5"/>
    <path id="Path_51" data-name="Path 51" d="M407.248,434.551q.308.563.568,1.158a15.214,15.214,0,0,1-9.369,20.678,14.24,14.24,0,0,1-1.448.366l-27.993,72.409a11.815,11.815,0,0,1-11.964,7.473l-.141-.027-60.672-18.265a13.042,13.042,0,1,1,7.748-24.906l42.929,13.783L380.141,448.3a14.472,14.472,0,0,1-.749-1.89,15.213,15.213,0,0,1,27.857-11.859Z" transform="translate(113.598 97.894)" fill="#bf9d5d"/>
  </g>
</svg>
