<?xml version="1.0" encoding="utf-8"?>
<!-- Generator: Adobe Illustrator 16.0.0, SVG Export Plug-In . SVG Version: 6.00 Build 0)  -->
<!DOCTYPE svg PUBLIC "-//W3C//DTD SVG 1.1//EN" "http://www.w3.org/Graphics/SVG/1.1/DTD/svg11.dtd">
<svg version="1.1" id="Layer_1" xmlns="http://www.w3.org/2000/svg" xmlns:xlink="http://www.w3.org/1999/xlink" x="0px" y="0px"
	 width="32px" height="32px" viewBox="0 0 32 32" enable-background="new 0 0 32 32" xml:space="preserve">
<g>
	<path fill="#B07400" d="M29.24,19.592c-0.618,0-1.121,0.504-1.121,1.123v3.032c0,0.673-0.549,1.221-1.223,1.221H5.953
		c-0.674,0-1.222-0.548-1.222-1.221v-3.032c0-0.619-0.503-1.123-1.122-1.123c-0.618,0-1.121,0.504-1.121,1.123v3.032
		c0,1.909,1.555,3.463,3.465,3.463h20.943c1.91,0,3.465-1.554,3.465-3.463v-3.032C30.361,20.096,29.858,19.592,29.24,19.592z"/>
	<path fill="#B07400" d="M3.609,18.35h9.66v1.782c0,0.619,0.503,1.122,1.122,1.122h4.066c0.619,0,1.122-0.503,1.122-1.122V18.35
		h9.659c0.618,0,1.121-0.504,1.121-1.123v-6.517C30.36,9.785,30,8.916,29.346,8.26c-0.655-0.656-1.524-1.017-2.449-1.017h-4.006
		v-2.03c0-1.391-1.132-2.523-2.523-2.523h-7.884c-1.391,0-2.523,1.132-2.523,2.523v2.03H5.953c-1.911,0-3.465,1.555-3.465,3.466
		v6.518C2.488,17.846,2.991,18.35,3.609,18.35z M12.483,4.932h7.884c0.154,0,0.279,0.126,0.279,0.281v2.03h-8.444v-2.03h0.001
		C12.203,5.058,12.329,4.932,12.483,4.932z M17.337,15.444v3.567h-1.824v-3.567H17.337z M18.458,13.201h-4.066
		c-0.619,0-1.122,0.503-1.122,1.121v1.783H4.731v-5.396c0-0.674,0.548-1.222,1.222-1.222h20.943c0.674,0,1.223,0.548,1.223,1.222
		v5.396h-8.538v-1.783C19.581,13.704,19.077,13.201,18.458,13.201z"/>
</g>
</svg>
