<?xml version="1.0" encoding="utf-8"?>
<!-- Generator: Adobe Illustrator 16.0.0, SVG Export Plug-In . SVG Version: 6.00 Build 0)  -->
<!DOCTYPE svg PUBLIC "-//W3C//DTD SVG 1.1//EN" "http://www.w3.org/Graphics/SVG/1.1/DTD/svg11.dtd">
<svg version="1.1" id="Layer_1" xmlns="http://www.w3.org/2000/svg" xmlns:xlink="http://www.w3.org/1999/xlink" x="0px" y="0px"
	 width="489.481px" height="524.999px" viewBox="105 17.497 489.481 524.999" enable-background="new 105 17.497 489.481 524.999"
	 xml:space="preserve">
<path fill="#B07400" d="M591.92,167.82l-24.746-24.746c-3.418-3.414-8.957-3.414-12.375,0l-18.566,18.559v0.004
	c-3.418-3.418-8.953-3.418-12.371,0l-16.362,16.359V43.746c0-6.961-2.766-13.641-7.688-18.562
	c-4.923-4.921-11.603-7.688-18.563-7.688h-350c-6.961,0-13.641,2.766-18.562,7.688S105,36.786,105,43.746v472.5
	c0,6.961,2.766,13.641,7.688,18.562s11.602,7.688,18.562,7.688h350c6.961,0,13.641-2.766,18.563-7.688
	c4.921-4.922,7.688-11.602,7.688-18.562v-210.11l3.988,3.98l61.87-61.863v0.004c1.645-1.645,2.566-3.871,2.566-6.191
	c0-2.324-0.922-4.551-2.566-6.191l-12.37-12.371l12.37-12.371v-0.004c3.418-3.418,3.418-8.953,0-12.371l18.56-18.566h0.004
	c3.414-3.418,3.414-8.957,0-12.375L591.92,167.82z M530.049,180.191l24.754,24.754l-24.754,24.746l-24.746-24.746L530.049,180.191z
	 M369.179,390.561l-24.746-24.746l148.49-148.5l24.754,24.754L369.179,390.561z M317.687,413.311l14.875-34.647l23.773,23.832
	l-34.648,14.875L317.687,413.311z M437.496,34.991V92.62l-11.312-11.316c-3.418-3.415-8.957-3.415-12.375,0L402.497,92.62V34.991
	H437.496z M481.246,524.991H131.247c-4.832,0-8.75-3.918-8.75-8.75v-472.5c0-4.832,3.918-8.75,8.75-8.75h253.749v78.75
	c0,3.539,2.133,6.727,5.402,8.082s7.031,0.605,9.535-1.895l20.063-20.066l20.062,20.062v0.004c2.504,2.5,6.266,3.25,9.535,1.895
	s5.402-4.543,5.402-8.082v-78.75h26.25c2.32,0,4.547,0.922,6.188,2.563s2.563,3.867,2.563,6.188v151.75l-170.31,170.32
	c-0.789,0.785-1.422,1.715-1.855,2.738l-18.586,43.306c-1.406,3.285-0.672,7.098,1.855,9.625l-18.559,18.559l12.371,12.371
	l18.559-18.559c2.531,2.527,6.34,3.262,9.625,1.855l43.305-18.566c1.023-0.438,1.953-1.066,2.738-1.855l120.86-120.79v221.75
	c0,2.32-0.922,4.547-2.563,6.188s-3.867,2.563-6.188,2.563L481.246,524.991z M554.798,242.071l-47.302,47.293v-12.371l41.125-41.125
	L554.798,242.071z M560.986,186.387l-12.363-12.383l12.383-12.371l12.371,12.371L560.986,186.387z"/>
<path fill="#B07400" d="M157.5,192.5h245V210h-245V192.5z"/>
<path fill="#B07400" d="M157.5,245h245v17.5h-245V245z"/>
<path fill="#B07400" d="M157.5,297.5H315V315H157.5V297.5z"/>
<path fill="#B07400" d="M157.5,140H245v17.5h-87.5V140z"/>
</svg>
