<?xml version="1.0" encoding="utf-8"?>
<!-- Generator: Adobe Illustrator 16.0.0, SVG Export Plug-In . SVG Version: 6.00 Build 0)  -->
<!DOCTYPE svg PUBLIC "-//W3C//DTD SVG 1.1//EN" "http://www.w3.org/Graphics/SVG/1.1/DTD/svg11.dtd">
<svg version="1.1" id="Layer_1" xmlns="http://www.w3.org/2000/svg" xmlns:xlink="http://www.w3.org/1999/xlink" x="0px" y="0px"
	 width="542.5px" height="542.5px" viewBox="78.75 8.755 542.5 542.5" enable-background="new 78.75 8.755 542.5 542.5"
	 xml:space="preserve">
<path fill="#B07400" d="M621.25,210c0-69.422-54.207-126.27-122.5-130.8V8.755h-420v472.5h367.5v26.25
	c0,24.125,19.625,43.75,43.75,43.75s43.75-19.625,43.75-43.75v-131.25h-17.5v-37.641c59.832-12.199,105-65.223,105-128.61V210z
	 M603.75,210c0,62.719-51.031,113.75-113.75,113.75c-62.72,0-113.75-51.031-113.75-113.75S427.281,96.25,490,96.25
	C552.719,96.25,603.75,147.281,603.75,210z M446.25,376.25v87.5h-350V26.25h385v52.945c-68.294,4.536-122.5,61.383-122.5,130.8
	c0,63.387,45.168,116.41,105,128.61v37.641L446.25,376.25z M516.25,507.5c0,14.473-11.777,26.25-26.25,26.25
	c-14.474,0-26.25-11.777-26.25-26.25V393.75h52.5V507.5z M498.75,376.25h-17.5v-35.445c2.905,0.191,5.793,0.445,8.75,0.445
	c2.956,0,5.844-0.254,8.75-0.445V376.25z"/>
<path fill="#B07400" d="M393.75,210c0,53.07,43.18,96.25,96.25,96.25c53.069,0,96.25-43.18,96.25-96.25S543.07,113.75,490,113.75
	C436.93,113.75,393.75,156.93,393.75,210z M568.75,210c0,43.426-35.332,78.75-78.75,78.75s-78.75-35.324-78.75-78.75
	s35.331-78.75,78.75-78.75C533.418,131.25,568.75,166.574,568.75,210z"/>
<path fill="#B07400" d="M498.75,507.5c0,4.832-3.919,8.75-8.75,8.75c-4.832,0-8.75-3.918-8.75-8.75s3.918-8.75,8.75-8.75
	C494.831,498.75,498.75,502.668,498.75,507.5"/>
<path fill="#B07400" d="M459.86,228.97l-9.711,14.563l34.5,22.992l48.188-96.363l-15.664-7.82l-39.313,78.637L459.86,228.97z"/>
<path fill="#B07400" d="M235.58,300.87l-16.152-6.738l-12.34,29.621h-93.336v122.5h140v-122.5h-27.711L235.58,300.87z
	 M236.252,341.253v87.5h-105v-87.5h68.547l-19.094,45.824l-17.013-17.013l-12.371,12.371l35.488,35.488l31.941-76.672
	L236.252,341.253z"/>
<path fill="#B07400" d="M235.58,134.62l-16.152-6.738l-12.34,29.621h-93.336v122.5h140v-122.5h-27.711L235.58,134.62z
	 M236.252,175.003v87.5h-105v-87.5h68.547l-19.094,45.824l-17.013-17.012l-12.371,12.371l35.488,35.488l31.941-76.672
	L236.252,175.003z"/>
<path fill="#B07400" d="M323.75,78.75h17.5v17.5h-17.5V78.75z"/>
<path fill="#B07400" d="M113.75,78.75h192.5v17.5h-192.5V78.75z"/>
<path fill="#B07400" d="M271.25,323.75h105v17.5h-105V323.75z"/>
<path fill="#B07400" d="M271.25,358.75h105v17.5h-105V358.75z"/>
<path fill="#B07400" d="M271.25,393.75h105v17.5h-105V393.75z"/>
<path fill="#B07400" d="M271.25,428.75h105v17.5h-105V428.75z"/>
<path fill="#B07400" d="M271.25,157.5h70V175h-70V157.5z"/>
<path fill="#B07400" d="M271.25,192.5h70V210h-70V192.5z"/>
<path fill="#B07400" d="M271.25,227.5h70V245h-70V227.5z"/>
<path fill="#B07400" d="M271.25,262.5h70V280h-70V262.5z"/>
<path fill="#B07400" d="M113.75,43.75h227.5v17.5h-227.5V43.75z"/>
</svg>
