<?xml version="1.0" encoding="utf-8"?>
<!-- Generator: Adobe Illustrator 16.0.0, SVG Export Plug-In . SVG Version: 6.00 Build 0)  -->
<!DOCTYPE svg PUBLIC "-//W3C//DTD SVG 1.1//EN" "http://www.w3.org/Graphics/SVG/1.1/DTD/svg11.dtd">
<svg version="1.1" id="Layer_1" xmlns="http://www.w3.org/2000/svg" xmlns:xlink="http://www.w3.org/1999/xlink" x="0px" y="0px"
	 width="553.89px" height="572.492px" viewBox="17.207 135.862 553.89 572.492"
	 enable-background="new 17.207 135.862 553.89 572.492" xml:space="preserve">
<g>
	<path fill="#B07400" d="M503.198,345.14L503.198,345.14L503.198,345.14c0-114.87-93.942-209.278-209.278-209.278
		c-115.335,0-209.277,93.942-209.277,209.278l0,0l0,0c-37.205,0-67.435,29.764-67.435,67.435v96.732
		c0,37.205,29.764,67.435,67.435,67.435h74.875V345.14h-29.765l0,0c0-90.222,73.945-164.167,164.167-164.167
		c90.223,0,164.167,73.945,164.167,164.167l0,0h-29.764v231.602h39.53c-8.371,18.138-26.044,29.764-46.972,29.764h-37.205
		c-9.766-32.089-39.53-55.808-75.34-55.808c-42.785,0.931-77.665,35.811-77.665,79.061c0,43.251,34.88,78.596,78.596,78.596l0,0
		c34.879,0,65.573-23.718,75.34-55.808h37.205c46.506,0,85.106-33.019,94.873-76.27c31.159-6.046,54.412-33.02,54.412-65.574
		v-97.663C570.632,375.369,540.403,345.14,503.198,345.14z M114.87,532.561H85.107c-12.557,0-22.323-9.767-22.323-22.323v-97.198
		c0-12.557,9.767-22.323,22.323-22.323l0,0h29.764V532.561z M309.267,663.243L309.267,663.243
		c-18.603,0-33.484-14.883-33.484-33.485s14.882-33.484,33.484-33.484s33.484,14.882,33.484,33.484
		C342.751,647.431,327.869,663.243,309.267,663.243z M525.521,509.772c0,12.557-9.767,22.322-22.323,22.322h-29.764l0,0V390.716
		h29.764l0,0c12.557,0,22.323,9.767,22.323,22.323V509.772z"/>
</g>
</svg>
