<?xml version="1.0" encoding="utf-8"?>
<!-- Generator: Adobe Illustrator 16.0.0, SVG Export Plug-In . SVG Version: 6.00 Build 0)  -->
<!DOCTYPE svg PUBLIC "-//W3C//DTD SVG 1.1//EN" "http://www.w3.org/Graphics/SVG/1.1/DTD/svg11.dtd">
<svg version="1.1" id="Layer_1" xmlns="http://www.w3.org/2000/svg" xmlns:xlink="http://www.w3.org/1999/xlink" x="0px" y="0px"
	 width="32px" height="32px" viewBox="0 0 32 32" enable-background="new 0 0 32 32" xml:space="preserve">
<g>
	<path fill="#FFFFFF" d="M11.018,2.046H6.023c-2.193,0-3.978,1.784-3.978,3.977v4.961c0,2.212,1.784,4.012,3.978,4.012h4.96
		c2.213,0,4.013-1.784,4.013-3.978V6.023C14.996,3.83,13.212,2.046,11.018,2.046z M11.018,13.183H6.023
		c-1.193,0-2.165-0.971-2.165-2.165V6.023c0-1.193,0.972-2.165,2.165-2.165h4.96c1.194,0,2.166,0.972,2.166,2.165l0.006,4.832
		l0.028,0.163C13.184,12.211,12.212,13.183,11.018,13.183z"/>
	<path fill="#FFFFFF" d="M26.205,2.046h-4.996c-2.193,0-3.977,1.784-3.977,3.977v4.961c0,2.212,1.783,4.012,3.977,4.012h4.963
		c2.211,0,4.012-1.784,4.012-3.978V6.023C30.184,3.83,28.398,2.046,26.205,2.046z M26.205,13.183h-4.996
		c-1.191,0-2.164-0.971-2.164-2.165V6.023c0-1.193,0.973-2.165,2.164-2.165h4.963c1.193,0,2.164,0.972,2.164,2.165l0.006,4.835
		l0.03,0.16C28.372,12.211,27.398,13.183,26.205,13.183z"/>
	<path fill="#FFFFFF" d="M11.018,17.232H6.023c-2.193,0-3.978,1.783-3.978,3.978v4.961c0,2.211,1.784,4.011,3.978,4.011h4.96
		c2.213,0,4.013-1.783,4.013-3.977V21.21C14.996,19.018,13.212,17.232,11.018,17.232z M11.018,28.37H6.023
		c-1.193,0-2.165-0.972-2.165-2.165V21.21c0-1.192,0.972-2.166,2.165-2.166h4.96c1.194,0,2.166,0.974,2.166,2.166l0.006,4.832
		l0.028,0.163C13.184,27.398,12.212,28.37,11.018,28.37z"/>
	<path fill="#FFFFFF" d="M26.205,17.232h-4.996c-2.193,0-3.977,1.783-3.977,3.978v4.961c0,2.211,1.783,4.011,3.977,4.011h4.963
		c2.211,0,4.012-1.783,4.012-3.977V21.21C30.184,19.018,28.398,17.232,26.205,17.232z M26.205,28.37h-4.996
		c-1.191,0-2.164-0.972-2.164-2.165V21.21c0-1.192,0.973-2.166,2.164-2.166h4.963c1.193,0,2.164,0.974,2.164,2.166l0.006,4.836
		l0.03,0.159C28.372,27.398,27.398,28.37,26.205,28.37z"/>
</g>
</svg>
