<?xml version="1.0" encoding="utf-8"?>
<!-- Generator: Adobe Illustrator 26.0.1, SVG Export Plug-In . SVG Version: 6.00 Build 0)  -->
<svg version="1.1" id="Layer_1" xmlns="http://www.w3.org/2000/svg" xmlns:xlink="http://www.w3.org/1999/xlink" x="0px" y="0px"
	 viewBox="0 0 128 128" style="enable-background:new 0 0 128 128;" xml:space="preserve">
<style type="text/css">
	.st0{fill:#FFFFFF;}
</style>
<g>
	<path class="st0" d="M106.7,112.3c0,1.2-0.8,1.9-1.9,1.9h-92c-1.1,0-1.9-0.8-1.9-1.9V29.9h95.8v17.3h3.8V16.5
		c0-3.3-2.5-5.8-5.8-5.8h-92c-3.3,0-5.8,2.5-5.8,5.8v95.8c0,3.3,2.5,5.8,5.8,5.8l0,0h92c3.3,0,5.8-2.5,5.8-5.8l0,0v-11.5h-3.8V112.3
		z M12.8,14.6h92c1.1,0,1.9,0.8,1.9,1.9v9.6H10.8v-9.6C10.8,15.3,11.6,14.6,12.8,14.6z"/>
	<rect x="18.5" y="18.4" class="st0" width="3.8" height="3.8"/>
	<rect x="26.2" y="18.4" class="st0" width="3.8" height="3.8"/>
	<rect x="33.8" y="18.4" class="st0" width="3.8" height="3.8"/>
	<rect x="45.3" y="37.6" class="st0" width="3.8" height="3.8"/>
	<rect x="53" y="37.6" class="st0" width="3.8" height="3.8"/>
	<rect x="60.7" y="37.6" class="st0" width="3.8" height="3.8"/>
	<rect x="68.3" y="37.6" class="st0" width="3.8" height="3.8"/>
	<rect x="49.2" y="18.4" class="st0" width="42.2" height="3.8"/>
	<path class="st0" d="M116.2,51H66.4c-3.3,0-5.7,2.5-5.7,5.8v34.5c0,3.3,2.5,5.8,5.7,5.8H76v9.6c0,1.2,0.8,1.9,1.9,1.9
		c0.6,0,1-0.2,1.3-0.6l11-11h26.1c3.3,0,5.8-2.5,5.8-5.8V56.7C122,53.5,119.5,51,116.2,51z M118.2,91.2c0,1.2-0.8,1.9-1.9,1.9H89.4
		c-0.6,0-1,0.2-1.3,0.6l-8.2,8.2V95c0-1.1-0.8-1.9-1.9-1.9H66.4c-1.2,0-1.9-0.8-1.9-1.9V56.7c0-1.2,0.8-1.9,1.9-1.9h49.8
		c1.1,0,1.9,0.8,1.9,1.9L118.2,91.2L118.2,91.2z"/>
	<rect x="72.2" y="62.5" class="st0" width="38.3" height="3.8"/>
	<rect x="72.2" y="72.1" class="st0" width="38.3" height="3.8"/>
	<rect x="72.2" y="81.7" class="st0" width="38.3" height="3.8"/>
	<path class="st0" d="M34.2,47.9l-7.7,11.5c-0.2,0.4-0.4,0.8-0.4,1.2v38.3c0,5.4,4.2,9.6,9.6,9.6s9.6-4.2,9.6-9.6V60.6
		c0-0.4-0.2-0.8-0.4-1.2l-7.7-11.5c-0.6-1-1.9-1.1-2.9-0.4C34.4,47.7,34.2,47.9,34.2,47.9z M35.8,52.5l4,6.1h-8.2L35.8,52.5z
		 M30,87.4V62.5h3.8v21.1h3.8V62.5h3.8v24.9H30z M41.5,91.2v1.9H30v-1.9H41.5z M35.8,104.7c-3.3,0-5.8-2.5-5.8-5.8V97h11.5v1.9
		C41.5,102.2,39,104.7,35.8,104.7z"/>
</g>
</svg>
