<?xml version="1.0" encoding="utf-8"?>
<!-- Generator: Adobe Illustrator 16.0.0, SVG Export Plug-In . SVG Version: 6.00 Build 0)  -->
<!DOCTYPE svg PUBLIC "-//W3C//DTD SVG 1.1//EN" "http://www.w3.org/Graphics/SVG/1.1/DTD/svg11.dtd">
<svg version="1.1" id="Layer_1" xmlns="http://www.w3.org/2000/svg" xmlns:xlink="http://www.w3.org/1999/xlink" x="0px" y="0px"
	 width="32px" height="32px" viewBox="0 0 32 32" enable-background="new 0 0 32 32" xml:space="preserve">
<path fill="#FFFFFF" d="M29.893,9.284c-0.422-0.521-1.047-0.821-1.72-0.821H7.994L7.272,4.859C7.066,3.831,6.154,3.084,5.105,3.084
	H2.622c-0.477,0-0.864,0.388-0.864,0.864c0,0.477,0.388,0.865,0.864,0.865h2.483c0.228,0,0.427,0.163,0.473,0.383L8.73,20.969
	c0.045,0.223,0.129,0.442,0.249,0.654l0.014,0.023l-0.021,0.018c-0.597,0.508-0.938,1.24-0.938,2.009c0,0.911,0.463,1.748,1.24,2.24
	l0.025,0.017l-0.016,0.028C9.049,26.37,8.93,26.811,8.93,27.259c0,1.466,1.193,2.657,2.658,2.657c1.466,0,2.658-1.191,2.658-2.657
	c0-0.282-0.054-0.571-0.164-0.886l-0.016-0.043h7.596l-0.018,0.044c-0.107,0.31-0.162,0.599-0.162,0.885
	c0,1.466,1.193,2.657,2.658,2.657s2.655-1.191,2.655-2.657c0-1.465-1.19-2.655-2.655-2.655H10.692c-0.513,0-0.931-0.418-0.931-0.931
	c0-0.499,0.391-0.907,0.874-0.929l16.217-1.686c0.957-0.109,1.727-0.824,1.91-1.779l1.568-8.134
	C30.473,10.482,30.313,9.804,29.893,9.284z M24.143,28.188c-0.514,0-0.93-0.418-0.93-0.93s0.416-0.929,0.93-0.929
	c0.512,0,0.928,0.417,0.928,0.929S24.652,28.188,24.143,28.188z M11.588,28.188c-0.512,0-0.928-0.418-0.928-0.93
	s0.416-0.929,0.928-0.929c0.512,0,0.929,0.417,0.929,0.929S12.1,28.188,11.588,28.188z M10.938,21.012
	c-0.275-0.015-0.468-0.156-0.513-0.382L8.339,10.192h19.834c0.147,0,0.283,0.065,0.382,0.188c0.088,0.104,0.12,0.257,0.086,0.42
	l-1.572,8.151c-0.043,0.211-0.207,0.367-0.405,0.391L10.938,21.012z"/>
</svg>
