<?xml version="1.0" encoding="utf-8"?>
<!-- Generator: Adobe Illustrator 16.0.0, SVG Export Plug-In . SVG Version: 6.00 Build 0)  -->
<!DOCTYPE svg PUBLIC "-//W3C//DTD SVG 1.1//EN" "http://www.w3.org/Graphics/SVG/1.1/DTD/svg11.dtd">
<svg version="1.1" id="Layer_1" xmlns="http://www.w3.org/2000/svg" xmlns:xlink="http://www.w3.org/1999/xlink" x="0px" y="0px"
	 width="32px" height="32px" viewBox="0 0 32 32" enable-background="new 0 0 32 32" xml:space="preserve">
<g>
	<path fill="#B07400" d="M28.225,19.021l-1.875-1.429c0.053-0.503,0.053-1.01,0.002-1.512l2.041-1.446
		c0.693-0.51,0.889-1.453,0.449-2.196l-2.48-4.155c-0.391-0.745-1.363-1.073-2.133-0.662l-2.24,1.021
		c-0.398-0.267-0.817-0.51-1.252-0.725l-0.223-2.444l-0.009-0.147c-0.138-0.774-0.812-1.354-1.614-1.378H14.02
		c-0.849,0-1.567,0.663-1.635,1.504l-0.224,2.462C11.72,8.127,11.297,8.37,10.896,8.64L8.66,7.611L8.516,7.565
		c-0.724-0.25-1.578,0.065-1.969,0.73L4.125,12.44c-0.444,0.75-0.244,1.7,0.467,2.211l2.018,1.434
		c-0.05,0.488-0.05,0.979-0.001,1.47l-2.158,1.463c-0.647,0.479-0.854,1.338-0.518,2.049l0.304,0.537l2.202,3.789
		c0.205,0.346,0.526,0.605,0.911,0.736c0.417,0.137,0.908,0.072,1.217-0.111l2.238-1.022c0.402,0.271,0.822,0.514,1.254,0.728
		l0.225,2.422l-0.003,0.114l0.01,0.056c0.139,0.777,0.813,1.357,1.615,1.379h4.866c0.846,0,1.563-0.66,1.631-1.5l0.225-2.467
		c0.436-0.209,0.854-0.449,1.255-0.718l2.25,1.035l0.142,0.046c0.719,0.254,1.576-0.052,1.979-0.721l2.415-4.156
		C29.104,20.473,28.911,19.529,28.225,19.021z M24.619,23.91l-2.416-1.112c-0.364-0.167-0.816-0.104-1.114,0.138
		c-0.575,0.449-1.212,0.815-1.901,1.094c-0.361,0.156-0.606,0.498-0.641,0.888l-0.242,2.64h-3.949l-0.246-2.645
		c-0.033-0.376-0.265-0.711-0.624-0.881c-0.681-0.29-1.328-0.664-1.927-1.115c-0.307-0.227-0.709-0.275-1.075-0.114l-2.413,1.11
		l-1.994-3.407l2.28-1.555c0.347-0.236,0.525-0.655,0.455-1.069c-0.059-0.345-0.093-0.703-0.102-1.043
		c0.007-0.367,0.042-0.733,0.104-1.103c0.056-0.398-0.112-0.791-0.439-1.023l-2.191-1.56L8.168,9.74l2.418,1.113
		c0.364,0.164,0.815,0.103,1.113-0.14c0.576-0.45,1.211-0.816,1.902-1.095c0.361-0.157,0.606-0.498,0.639-0.885l0.243-2.64h3.949
		l0.244,2.649c0.037,0.391,0.282,0.73,0.645,0.887c0.688,0.293,1.334,0.668,1.929,1.118c0.31,0.226,0.708,0.275,1.074,0.114
		l2.415-1.11l2.033,3.419l-2.189,1.54c-0.326,0.233-0.494,0.624-0.438,1.031c0.061,0.357,0.094,0.726,0.101,1.073
		c-0.007,0.36-0.042,0.727-0.104,1.095c-0.061,0.394,0.101,0.784,0.416,1.022l2.063,1.553L24.619,23.91z"/>
	<path fill="#B07400" d="M16.423,12.003c-2.659,0-4.823,2.164-4.823,4.817c-0.015,1.273,0.466,2.479,1.356,3.391
		c0.891,0.911,2.083,1.422,3.363,1.438h0.104c2.658,0,4.821-2.162,4.821-4.82C21.244,14.167,19.081,12.003,16.423,12.003z
		 M16.423,19.51c-1.48,0-2.684-1.203-2.684-2.688c-0.015-1.462,1.161-2.663,2.62-2.679l-0.005-0.5l0.069,0.5
		c1.479,0,2.683,1.204,2.683,2.684C19.105,18.307,17.902,19.51,16.423,19.51z"/>
</g>
</svg>
