<?xml version="1.0" encoding="utf-8"?>
<!-- Generator: Adobe Illustrator 16.0.0, SVG Export Plug-In . SVG Version: 6.00 Build 0)  -->
<!DOCTYPE svg PUBLIC "-//W3C//DTD SVG 1.1//EN" "http://www.w3.org/Graphics/SVG/1.1/DTD/svg11.dtd">
<svg version="1.1" id="Layer_1" xmlns="http://www.w3.org/2000/svg" xmlns:xlink="http://www.w3.org/1999/xlink" x="0px" y="0px"
	 width="525px" height="297.504px" viewBox="87.5 131.25 525 297.504" enable-background="new 87.5 131.25 525 297.504"
	 xml:space="preserve">
<path fill="#B07400" d="M603.75,131.25h-437.5c-4.832,0-8.75,3.918-8.75,8.75v35.102c-42.099,17.504-70,58.848-70,104.9
	c0,46.066,27.922,87.43,70,104.9v35.102c0,4.832,3.918,8.75,8.75,8.75h437.5c4.831,0,8.75-3.918,8.75-8.75v-280
	c0-4.832-3.919-8.75-8.75-8.75V131.25z M175,148.75h420v38.246l-210,100.8l-73.384-35.262
	c-12.508-50.234-58.151-86.281-110.369-86.281c-4.008,0-7.969,0.277-11.902,0.688c-1.137,0.117-2.262,0.281-3.395,0.434
	c-2.996,0.406-5.961,0.93-8.902,1.574c-0.676,0.148-1.375,0.203-2.051,0.363L175,148.75z M105,280
	c0-40.75,25.78-77.203,64.211-90.73c10.18-3.66,20.961-5.52,32.039-5.52c45.465,0,85.137,32.246,94.301,76.535
	c1.313,6.883,1.949,13.336,1.949,19.715c0,53.074-43.176,96.25-96.25,96.25c-11.078,0-21.859-1.859-32.094-5.543
	C130.781,357.203,105,320.75,105,280L105,280z M175,411.25v-20.559c0.695,0.168,1.418,0.223,2.117,0.375
	c2.914,0.637,5.848,1.156,8.816,1.559c1.141,0.152,2.273,0.32,3.418,0.441c3.934,0.406,7.895,0.684,11.897,0.684
	c62.724,0,113.75-51.027,113.75-113.75c0-2.176-0.199-4.391-0.328-6.586l66.539,31.973c1.195,0.578,2.496,0.863,3.789,0.863
	s2.59-0.285,3.785-0.863l206.21-98.984v204.85L175,411.25z"/>
<path fill="#B07400" d="M280,280c0-43.422-35.328-78.75-78.75-78.75S122.5,236.578,122.5,280s35.328,78.75,78.75,78.75
	S280,323.422,280,280z M140,280c0-33.773,27.477-61.25,61.25-61.25c33.772,0,61.25,27.477,61.25,61.25s-27.478,61.25-61.25,61.25
	C167.477,341.25,140,313.773,140,280z"/>
<path fill="#B07400" d="M210,323.75v-9.988c10.137-2.922,17.5-11.02,17.5-20.637c0-12.062-11.504-21.875-25.652-21.875h-1.195
	c-4.902,0-8.152-2.633-8.152-4.375s3.25-4.375,8.152-4.375c3.699,0,6.492,1.523,7.621,3.043c2.887,3.871,8.355,4.684,12.246,1.785
	c3.875-2.887,4.676-8.371,1.785-12.246c-2.953-3.965-7.328-6.77-12.305-8.426V236.25c0-4.832-3.918-8.75-8.75-8.75
	s-8.75,3.918-8.75,8.75v9.988c-10.138,2.922-17.5,11.02-17.5,20.637c0,12.062,11.504,21.875,25.651,21.875h1.195
	c4.902,0,8.152,2.633,8.152,4.375s-3.25,4.375-8.152,4.375c-3.699,0-6.492-1.523-7.621-3.043c-2.887-3.871-8.367-4.676-12.246-1.785
	c-3.875,2.886-4.676,8.371-1.785,12.246c2.953,3.965,7.328,6.773,12.306,8.426v10.406c0,4.832,3.918,8.75,8.75,8.75
	S210,328.582,210,323.75z"/>
</svg>
