<?xml version="1.0" encoding="utf-8"?>
<!-- Generator: Adobe Illustrator 26.0.1, SVG Export Plug-In . SVG Version: 6.00 Build 0)  -->
<svg version="1.1" id="Layer_1" xmlns="http://www.w3.org/2000/svg" xmlns:xlink="http://www.w3.org/1999/xlink" x="0px" y="0px"
	 viewBox="0 0 128 128" style="enable-background:new 0 0 128 128;" xml:space="preserve">
<style type="text/css">
	.st0{fill-rule:evenodd;clip-rule:evenodd;fill:#FFFFFF;}
	.st1{fill:#FFFFFF;}
</style>
<path class="st0" d="M69.3,23.1c1.9,0,3.3,1.4,3.3,3.3s-1.4,3.3-3.3,3.3S66,28.3,66,26.4C66,24.6,67.4,23.1,69.3,23.1z M60.2,23.1
	c1.9,0,3.3,1.4,3.3,3.3s-1.4,3.3-3.3,3.3c-1.9,0-3.3-1.4-3.3-3.3C56.9,24.6,58.4,23.1,60.2,23.1z M51.2,23.1c1.9,0,3.3,1.4,3.3,3.3
	s-1.4,3.3-3.3,3.3c-1.9,0-3.3-1.4-3.3-3.3C47.9,24.6,49.3,23.1,51.2,23.1z M60.2,8.8c-9.8,0-17.7,7.6-17.7,17.7
	c0,4.9,1.9,9.1,4.7,12.2l-1,4.7C46,45,47,46,48.5,45.3l4.6-2.6c2.2,1,4.6,1.4,7.2,1.4c9.8,0,17.7-7.6,17.7-17.7S70,8.8,60.2,8.8z"/>
<path class="st0" d="M28.6,32.8c-1.9,0-3.7,0.6-5.3,1.6c-2.7,1.9-4.3,4.9-4,8.2c-2.6,2.4-4.2,5.9-4.2,9.9c0,7.8,6,13.7,13.5,13.7
	s13.5-5.9,13.5-13.7c0-4-1.6-7.5-4.2-9.9c0.3-3.2-1.3-6.3-4-8.2C32.5,33.3,30.6,32.8,28.6,32.8z M36.2,46.7c1.2,1.6,1.9,3.6,1.9,5.8
	c0,5.3-4.2,9.5-9.5,9.5c-5.2,0-9.5-4.3-9.5-9.5c0-0.4,0-0.7,0.1-1.2h9.5C33.1,51.3,35.5,49.4,36.2,46.7z"/>
<path class="st1" d="M102.8,65.5L94.5,71c-0.7,0.4-1.3,0.4-2,0l-7.3-4.7c0,0.7,0.1,1.3,0.1,2v1.2c0,6.9-3.5,12.8-8.5,16.8
	c4.6,1.2,8.6,2.4,11.9,4.6c1.9,0.1,3.5,0.1,4.7,0.1c5.8,0,18.5-1,26.5-3.7c1.2-0.4,2-1.3,1.4-4.2C119.2,72,113.9,68.1,102.8,65.5z"
	/>
<path class="st1" d="M20.4,68.3C10.6,70.6,9.3,74,7.3,83.8c-0.6,2.6,0.3,3.5,1.3,3.7c7,2.4,15,3.3,20.1,3.3c2.4,0,5.5-0.1,8.8-0.7
	c3.2-1.7,6.9-3,11.1-4c-5-4-8.5-9.9-8.5-16.8v-0.1c-0.9-0.3-1.9-0.6-3-0.9l-7.5,4.9c-0.6,0.4-1.2,0.4-1.7,0L20.4,68.3z"/>
<path class="st1" d="M73.9,89.8c13.2,3,19.7,7.5,22.3,19.8c0.7,3.3-0.4,4.3-1.7,4.7c-9.3,3.2-24.9,4.3-31.8,4.3s-22.3-1.2-31.6-4.3
	c-1.4-0.4-2.4-1.4-1.7-4.7c2.6-12.4,8.9-16.8,22.3-19.8l10,6.2c0.9,0.4,1.6,0.4,2.4,0L73.9,89.8z"/>
<path class="st0" d="M62.7,50.6c-10.1,0-18.3,7.9-18.3,18.3s8.2,18.3,18.3,18.3S81,79.3,81,68.9S72.8,50.6,62.7,50.6z M53.9,59.7
	c1.7,1.7,5,2.9,8.8,2.9c3.7,0,6.9-1.2,8.8-2.9c2.4,2.3,4,5.6,4,9.2c0,7-5.6,12.7-12.7,12.7c-7,0-12.7-5.6-12.7-12.7
	C49.9,65.3,51.5,62,53.9,59.7z"/>
<path class="st0" d="M93.5,32.8c-8.5,0-15.2,6.6-15.2,15.2S85,63.2,93.5,63.2s15.2-6.6,15.2-15.2S101.9,32.8,93.5,32.8z M86.1,40.2
	c1.4,1.4,4.2,2.4,7.3,2.4c3,0,5.8-1,7.3-2.4c2,1.9,3.3,4.6,3.3,7.6c0,5.9-4.7,10.6-10.6,10.6s-10.6-4.7-10.6-10.6
	C82.8,45,84.1,42.3,86.1,40.2z"/>
</svg>
