<?xml version="1.0" encoding="utf-8"?>
<!-- Generator: Adobe Illustrator 16.0.0, SVG Export Plug-In . SVG Version: 6.00 Build 0)  -->
<!DOCTYPE svg PUBLIC "-//W3C//DTD SVG 1.1//EN" "http://www.w3.org/Graphics/SVG/1.1/DTD/svg11.dtd">
<svg version="1.1" id="Layer_1" xmlns="http://www.w3.org/2000/svg" xmlns:xlink="http://www.w3.org/1999/xlink" x="0px" y="0px"
	 width="32px" height="32px" viewBox="0 0 32 32" enable-background="new 0 0 32 32" xml:space="preserve">
<path fill="#B07400" d="M30.74,11.865l-6.6-6.455H7.822L1.32,11.785l-0.088,0.068c-0.424,0.396-0.447,1.066-0.052,1.494
	l13.924,14.944c0.2,0.215,0.482,0.338,0.773,0.338h0.206c0.292,0,0.574-0.123,0.774-0.338l13.924-14.945
	c0.191-0.208,0.293-0.479,0.281-0.763C31.053,12.303,30.934,12.042,30.74,11.865z M20.225,13.683l-0.664,1.785l-3.677,8.63
	l-3.67-8.606l-0.67-1.808H20.225z M4.387,13.685h4.767l4.01,9.42L4.387,13.685z M27.398,11.568h-4.137l0.799-3.272L27.398,11.568z
	 M15.899,7.662l3.598,3.906h-7.195L15.899,7.662z M21.361,10.468L18.65,7.525h3.424L21.361,10.468z M13.148,7.525l-2.732,2.968
	L9.694,7.525H13.148z M4.564,11.568l3.178-3.116L8.5,11.568H4.564z M27.575,13.685l-9.13,9.801l4.176-9.801H27.575z"/>
</svg>
