<?xml version="1.0" encoding="utf-8"?>
<!-- Generator: Adobe Illustrator 16.0.0, SVG Export Plug-In . SVG Version: 6.00 Build 0)  -->
<!DOCTYPE svg PUBLIC "-//W3C//DTD SVG 1.1//EN" "http://www.w3.org/Graphics/SVG/1.1/DTD/svg11.dtd">
<svg version="1.1" id="Layer_1" xmlns="http://www.w3.org/2000/svg" xmlns:xlink="http://www.w3.org/1999/xlink" x="0px" y="0px"
	 width="543.033px" height="526.069px" viewBox="78.49 16.969 543.033 526.069"
	 enable-background="new 78.49 16.969 543.033 526.069" xml:space="preserve">
<path fill="#B07400" d="M194.73,166.3c-9.332,66.184,39.879,75.516,45.816,105.21c-5.09,0-8.484,3.395-8.484,8.484
	c0,5.09,3.395,8.485,8.484,8.485h85.694c5.09,0,8.484-3.395,8.484-8.485c0-5.09-3.395-8.484-8.484-8.484
	c5.938-28.848,46.668-34.789,46.668-92.484c0-52.605-45.815-95.031-100.119-89.09C232.914,94.178,199.82,126.42,194.73,166.3
	L194.73,166.3z M275.335,106.905c44.12-5.09,81.452,29.695,81.452,72.121c0,54.305-40.727,50.062-47.516,92.484h-50.91
	c-5.938-42.426-55.151-43.273-46.668-102.67c4.246-33.09,30.552-58.543,63.642-61.938V106.905z"/>
<path fill="#B07400" d="M326.24,305.45h-85.694c-5.09,0-8.484,3.395-8.484,8.484s3.395,8.484,8.484,8.484h85.694
	c5.09,0,8.484-3.395,8.484-8.484S330.482,305.45,326.24,305.45z"/>
<path fill="#B07400" d="M588.43,313.94h-44.121c-2.547,0-5.09,0.848-6.789,3.395l-30.547,37.332l-30.547-37.332
	c-1.695-1.695-4.242-3.395-6.789-3.395h-44.121c-18.668,0-33.09,15.273-33.09,33.09v15.273l-21.212-9.332
	c-5.089-1.695-10.184,0.848-11.879,5.09l-34.784,126.431l-5.09-74.668l10.184-24.605c0.848-1.695,0.848-4.242,0-5.938
	l-11.031-32.242c-0.848-3.395-4.242-5.938-7.637-5.938l-54.305-0.004c-3.395,0-6.789,2.547-7.637,5.938l-11.031,32.242
	c-0.848,1.695-0.848,4.242,0,5.938l10.185,24.605l-5.09,74.668l-34.789-125.57c-1.695-5.09-6.789-7.637-11.879-5.09l-77.211,33.938
	c-24.609,10.184-40.73,34.792-40.73,61.94v84.848c0,5.09,3.395,8.484,8.484,8.484h392.851c5.089,0,8.484-3.395,8.484-8.484v-59.395
	l124.729,0.004c5.09,0,8.484-3.395,8.484-8.484v-119.64c0-18.668-15.272-33.094-33.09-33.094L588.43,313.94z M262.61,357.213h41.574
	l7.637,23.758l-7.637,18.668h-42.426l-7.637-18.668L262.61,357.213z M95.46,526.063V449.7c0-20.363,11.879-38.185,30.547-46.668
	l68.727-30.548l42.427,152.73H95.46V526.063z M256.67,526.063l7.637-109.449h38.184l7.633,109.449H256.67z M471.329,526.063H330.48
	l42.426-152.729l68.728,30.547c18.668,8.484,30.547,26.305,30.547,46.668v75.512L471.329,526.063z M604.539,458.184h-25.452v-71.272
	c0-5.09-3.395-8.484-8.484-8.484c-5.091,0-8.484,3.395-8.484,8.484l-0.004,71.272h-73.816c-0.848-1.695,5.938-50.062-39.879-70.426
	l-39.031-17.816v-22.909c0-9.332,7.637-16.121,16.121-16.121h40.727l34.789,42.426c3.395,4.242,10.185,4.242,13.574,0l34.789-42.426
	h40.728c9.332,0,16.12,7.637,16.12,16.121v111.149L604.539,458.184z"/>
<path fill="#B07400" d="M506.97,302.06c28,0,50.91-22.91,50.91-50.91s-22.91-50.91-50.91-50.91s-50.91,22.91-50.91,50.91
	C455.212,279.15,478.121,302.06,506.97,302.06z M506.97,216.361c18.668,0,33.938,15.273,33.938,33.938
	c0,18.668-15.272,33.938-33.938,33.938c-18.668,0-33.938-15.273-33.938-33.938C472.184,231.635,487.453,216.361,506.97,216.361
	L506.97,216.361z"/>
<path fill="#B07400" d="M266.85,171.39l18.668,5.938l-12.727,30.547c-1.695,4.242,0,9.332,4.242,11.031
	c4.242,1.695,9.332,0,11.03-4.242l16.121-38.184c1.695-4.242,0-10.184-5.09-11.031l-16.973-6.785l8.484-14.426
	c2.547-4.242,0.848-9.332-3.395-11.879c-4.242-2.547-9.332-0.848-11.879,3.395l-12.727,23.758
	C260.064,164.601,261.759,169.69,266.85,171.39L266.85,171.39z"/>
<path fill="#B07400" d="M282.97,59.395c5.09,0,8.484-3.395,8.484-8.484V25.454c0-5.09-3.395-8.484-8.484-8.484
	s-8.484,3.395-8.484,8.484v25.453C274.486,56,278.728,59.395,282.97,59.395L282.97,59.395z"/>
<path fill="#B07400" d="M327.09,67.879c4.242,1.695,9.332,0,11.03-4.242l9.332-23.758c1.695-4.242,0-9.332-4.242-11.031
	c-4.242-1.695-9.332,0-11.03,4.242l-9.332,23.758C320.305,61.09,322.848,65.333,327.09,67.879z"/>
<path fill="#B07400" d="M376.3,91.637l17.815-17.816c3.395-3.394,3.395-8.484,0-11.879s-8.484-3.395-11.879,0l-17.815,17.816
	c-3.395,3.395-3.395,8.484,0,11.879C366.964,95.031,372.906,95.031,376.3,91.637z"/>
<path fill="#B07400" d="M192.18,94.184c3.395,3.395,8.484,3.395,11.879,0s3.395-8.484,0-11.879l-17.815-17.816
	c-3.395-3.395-8.484-3.395-11.88,0c-3.394,3.394-3.394,8.484,0,11.879L192.18,94.184z"/>
<path fill="#B07400" d="M229.52,64.484c1.695,4.242,6.789,6.789,11.031,4.242c4.242-1.695,6.789-6.789,4.242-11.031l-9.332-23.758
	c-1.695-4.242-6.789-6.789-11.031-4.242c-4.242,1.695-6.789,6.79-4.242,11.031L229.52,64.484z"/>
</svg>
