<?xml version="1.0" encoding="utf-8"?>
<!-- Generator: Adobe Illustrator 16.0.0, SVG Export Plug-In . SVG Version: 6.00 Build 0)  -->
<!DOCTYPE svg PUBLIC "-//W3C//DTD SVG 1.1//EN" "http://www.w3.org/Graphics/SVG/1.1/DTD/svg11.dtd">
<svg version="1.1" id="Layer_1" xmlns="http://www.w3.org/2000/svg" xmlns:xlink="http://www.w3.org/1999/xlink" x="0px" y="0px"
	 width="32px" height="32px" viewBox="0 0 32 32" enable-background="new 0 0 32 32" xml:space="preserve">
<path fill="#B07400" d="M29.046,2.964c-0.563-0.562-1.376-0.878-2.291-0.891l-0.138-0.002c-0.042,0-0.085,0.001-0.127,0.003
	c-1.286,0.071-2.68,0.789-3.926,2.02L22.46,4.195c-2.112,2.048-3.795,3.723-4.744,4.729L4.389,6.262
	C3.925,6.166,3.427,6.42,3.221,6.831L2.177,8.917C2.056,9.161,2.039,9.46,2.132,9.737c0.094,0.273,0.287,0.497,0.528,0.614
	l9.215,4.608l-4.582,5.38C6.84,20.21,6.189,20.053,5.51,20.053l-0.145,0.002c-0.398,0.016-0.988,0.084-1.504,0.497
	c-0.474,0.386-0.757,1.021-0.757,1.703c0,0.563,0.193,1.153,0.553,1.669l0.047,0.055c4.346,4.348,4.346,4.348,4.382,4.373
	c0.479,0.334,1.065,0.518,1.65,0.518c0.712,0,1.336-0.268,1.712-0.73c0.416-0.518,0.481-1.104,0.495-1.504
	c0.025-0.729-0.143-1.436-0.282-1.926l5.38-4.582l4.605,9.213c0.174,0.354,0.567,0.59,0.979,0.59c0.161,0,0.319-0.037,0.458-0.105
	l2.086-1.043c0.423-0.213,0.662-0.704,0.568-1.168l-2.663-13.327c1.438-1.358,3.81-3.794,4.771-4.787l0.063-0.064
	c1.324-1.338,2.042-2.833,2.02-4.211C29.913,4.321,29.602,3.519,29.046,2.964z M21.173,13.143c-0.267,0.25-0.389,0.629-0.317,0.988
	l2.615,13.098l-0.396,0.194l-4.732-9.465c-0.177-0.344-0.559-0.565-0.973-0.565c-0.248,0-0.485,0.082-0.668,0.234l-6.948,5.904
	c-0.329,0.273-0.466,0.75-0.332,1.154c0.195,0.594,0.398,1.396,0.383,1.867c-0.003,0.088-0.013,0.155-0.021,0.204
	c-0.011,0-0.023,0-0.038,0c-0.122,0-0.209-0.019-0.353-0.106l-0.099-0.1c-0.872-0.871-3.633-3.631-3.903-3.895
	c-0.131-0.197-0.146-0.278-0.146-0.401c0-0.013,0-0.024,0-0.034c0.052-0.011,0.133-0.021,0.253-0.025
	c0.402,0,1.082,0.145,1.819,0.386c0.396,0.126,0.894-0.021,1.149-0.331l5.912-6.954c0.199-0.241,0.274-0.567,0.207-0.896
	s-0.266-0.601-0.547-0.743l-9.462-4.73l0.196-0.396l13.097,2.614c0.361,0.075,0.74-0.055,0.99-0.319
	c0.973-1.048,2.777-2.854,5.082-5.086l0.107-0.106h0.001l0.001-0.001c0.979-0.98,2.059-1.419,2.691-1.419
	c0.322,0.005,0.63,0.106,0.781,0.257c0.154,0.157,0.256,0.465,0.261,0.786c0.012,0.623-0.421,1.694-1.417,2.689L26.3,8.018
	C25.257,9.096,22.67,11.753,21.173,13.143z"/>
</svg>
