<?xml version="1.0" encoding="utf-8"?>
<!-- Generator: Adobe Illustrator 16.0.0, SVG Export Plug-In . SVG Version: 6.00 Build 0)  -->
<!DOCTYPE svg PUBLIC "-//W3C//DTD SVG 1.1//EN" "http://www.w3.org/Graphics/SVG/1.1/DTD/svg11.dtd">
<svg version="1.1" id="Layer_1" xmlns="http://www.w3.org/2000/svg" xmlns:xlink="http://www.w3.org/1999/xlink" x="0px" y="0px"
	 width="32px" height="32px" viewBox="0 0 32 32" enable-background="new 0 0 32 32" xml:space="preserve">
<path fill="#B07400" d="M29.016,12.373h-2.471C26.096,7.13,21.693,3,16.335,3c-5.357,0-9.76,4.13-10.21,9.373h-2.47
	c-1.094,0-1.985,0.89-1.985,1.983v1.654c0,1.096,0.891,1.984,1.985,1.984h0.337l1.39,9.729c0.147,1.035,1.084,1.848,2.131,1.848
	h17.641c1.048,0,1.984-0.81,2.133-1.848l1.393-9.729h0.336c1.092,0,1.983-0.891,1.983-1.984v-1.654
	C31,13.263,30.107,12.373,29.016,12.373z M16.335,4.764c4.386,0,8.002,3.34,8.442,7.609H7.891
	C8.334,8.104,11.951,4.764,16.335,4.764z M25.542,27.475c-0.024,0.168-0.217,0.334-0.388,0.334H7.514
	c-0.169,0-0.362-0.166-0.386-0.334l-1.353-9.479h21.12L25.542,27.475z M29.234,16.011c0,0.121-0.1,0.221-0.219,0.221H3.655
	c-0.121,0-0.221-0.1-0.221-0.221v-1.654c0-0.121,0.1-0.221,0.221-0.221h25.361c0.119,0,0.219,0.1,0.219,0.221V16.011z"/>
<path fill="#B07400" d="M10.271,26.54c0.486,0,0.882-0.396,0.882-0.882v-5.514c0-0.485-0.395-0.881-0.882-0.881
	S9.39,19.658,9.39,20.145v5.514C9.389,26.145,9.785,26.54,10.271,26.54z"/>
<path fill="#B07400" d="M16.335,26.54c0.485,0,0.882-0.396,0.882-0.882v-5.514c0-0.485-0.395-0.881-0.882-0.881
	c-0.487,0-0.882,0.395-0.882,0.881v5.514C15.453,26.145,15.848,26.54,16.335,26.54z"/>
<path fill="#B07400" d="M22.398,26.54c0.486,0,0.883-0.396,0.883-0.882v-5.514c0-0.485-0.396-0.881-0.883-0.881
	s-0.881,0.395-0.881,0.881v5.514C21.518,26.145,21.913,26.54,22.398,26.54z"/>
</svg>
