<?xml version="1.0" encoding="utf-8"?>
<!-- Generator: Adobe Illustrator 16.0.0, SVG Export Plug-In . SVG Version: 6.00 Build 0)  -->
<!DOCTYPE svg PUBLIC "-//W3C//DTD SVG 1.1//EN" "http://www.w3.org/Graphics/SVG/1.1/DTD/svg11.dtd">
<svg version="1.1" id="Layer_1" xmlns="http://www.w3.org/2000/svg" xmlns:xlink="http://www.w3.org/1999/xlink" x="0px" y="0px"
	 width="32px" height="32px" viewBox="0 0 32 32" enable-background="new 0 0 32 32" xml:space="preserve">
<g>
	<path fill="#FFFFFF" d="M28.089,3.923H3.688c-1.109,0-2.011,0.902-2.011,2.01v16.506c0,1.107,0.902,2.01,2.011,2.01h8.038v1.723
		H9.787c-0.531,0-0.932,0.4-0.932,0.934s0.401,0.933,0.932,0.933H21.99c0.529,0,0.931-0.399,0.931-0.933s-0.399-0.934-0.931-0.934
		h-1.938v-1.723h8.036c1.106,0,2.011-0.901,2.011-2.01V5.933C30.1,4.825,29.195,3.923,28.089,3.923z M18.186,24.449v1.723h-4.595
		v-1.723H18.186z M28.089,22.584H3.688c-0.079,0-0.146-0.064-0.146-0.145v-3.017h24.69v3.017
		C28.232,22.52,28.167,22.584,28.089,22.584z M3.544,5.933c0-0.079,0.064-0.144,0.144-0.144h24.401c0.079,0,0.144,0.065,0.144,0.144
		v11.627H3.544V5.933z"/>
	<path fill="#FFFFFF" d="M15.888,19.711c-0.821,0-1.292,0.473-1.292,1.293s0.471,1.292,1.292,1.292c0.82,0,1.292-0.472,1.292-1.292
		S16.708,19.711,15.888,19.711z"/>
</g>
</svg>
