<?xml version="1.0" encoding="utf-8"?>
<!-- Generator: Adobe Illustrator 16.0.0, SVG Export Plug-In . SVG Version: 6.00 Build 0)  -->
<!DOCTYPE svg PUBLIC "-//W3C//DTD SVG 1.1//EN" "http://www.w3.org/Graphics/SVG/1.1/DTD/svg11.dtd">
<svg version="1.1" id="Layer_1" xmlns="http://www.w3.org/2000/svg" xmlns:xlink="http://www.w3.org/1999/xlink" x="0px" y="0px"
	 width="544.041px" height="543.658px" viewBox="28.917 152.139 544.041 543.658"
	 enable-background="new 28.917 152.139 544.041 543.658" xml:space="preserve">
<path fill="#B07400" d="M191.141,289.333l31.624,31.624c2.325,2.325,2.325,5.116,0,7.906c-1.396,1.395-2.325,1.86-3.721,1.86
	c-1.395,0-2.79-0.465-3.72-1.86l-32.09-31.625c-2.325-2.325-2.325-5.116,0-7.906C185.56,287.007,188.816,287.472,191.141,289.333z
	 M396.698,510.237l31.624,31.624c1.396,1.396,2.325,1.86,3.721,1.86s2.79-0.465,3.721-1.86c2.325-2.325,2.325-5.115,0-7.906
	l-31.159-31.624c-2.326-2.325-5.116-2.325-7.906,0C394.373,504.656,394.373,508.377,396.698,510.237z M196.722,559.068
	c1.395,1.396,2.325,1.86,3.72,1.86c1.396,0,2.791-0.465,3.721-1.86l258.109-257.645c2.325-2.325,2.325-5.116,0-7.906
	c-2.325-2.325-5.115-2.325-7.905,0L196.722,552.093C194.396,553.953,194.396,557.674,196.722,559.068z M138.123,334.443
	c6.977,0,14.417-0.465,20.928-2.325l40.926,40.925c2.325,2.326,4.65,2.791,7.906,2.791s5.115-1.395,7.906-2.791
	c4.186-4.186,4.186-10.696,0-14.882l-45.576-45.576c-2.791-2.791-6.977-3.721-10.696-2.325c-6.511,2.325-13.487,2.791-20.928,2.791
	c-38.601,0-69.295-31.625-69.295-69.294c0-1.396,0-2.326,0-3.721l29.765,32.554c6.511,6.511,14.416,9.301,23.253,9.301
	c8.836,0,17.207-3.72,23.253-9.301l22.323-22.323c13.021-13.022,13.021-33.95-0.466-46.971l-30.693-29.764
	c39.065-1.395,71.619,30.229,71.619,69.294c0,7.906-1.395,15.347-4.186,23.253c-1.395,4.186-0.465,8.371,2.325,11.162l43.251,43.251
	c4.186,4.186,10.696,4.186,14.882,0s4.186-10.697,0-14.882l-39.065-38.135c2.326-7.906,2.791-15.347,2.791-23.718
	c0.465-50.692-40.461-91.618-90.223-91.618c-9.301,0-19.532,1.86-29.299,4.651c-3.721,1.395-6.511,4.186-6.976,7.906
	c-0.465,3.721,0.465,7.906,2.79,10.231l46.972,42.786c4.65,4.65,4.65,12.091,0,16.742l-21.858,23.253
	c-2.325,2.325-5.115,3.721-8.371,3.721c-3.255,0-6.046-1.396-7.906-2.791l-43.716-48.832c-2.325-2.791-6.046-4.186-10.231-3.721
	c-3.72,0.465-6.511,3.721-7.905,6.976c-3.721,9.301-5.116,19.533-5.116,29.764C46.971,293.518,87.897,334.443,138.123,334.443z
	 M196.722,625.107C196.722,625.107,196.256,625.572,196.722,625.107c-0.466,0.465-0.466,0.465-0.466,0.465
	c-1.395,1.396-2.325,1.86-3.72,1.86l-148.355,66.97c-1.396,0.465-2.79,1.395-4.186,1.395c-2.79,0-5.115-1.395-7.906-2.79
	c-2.79-2.79-4.186-7.906-2.325-12.092l68.364-146.96c0.465-1.395,1.396-2.325,2.325-3.721l0,0c0,0,0-0.465,0.465-0.465
	l323.219-324.613l0.465-0.465c26.509-26.508,70.225-26.508,96.733,0c26.509,26.509,26.509,70.225,0,96.733
	c-0.465,0.465-1.396,1.396-2.325,1.86L196.722,625.107z M499.477,292.123l-65.573-65.574L123.706,536.28l66.039,66.039
	L499.477,292.123z M170.678,613.946l-59.063-59.528L86.967,606.97c8.836,4.651,17.207,11.162,23.253,19.533
	c2.325,3.721,4.65,6.976,6.976,11.161L170.678,613.946z M449.715,212.132l64.179,64.179c10.696-17.672,8.837-42.321-6.976-57.668
	C491.106,203.296,467.388,201.436,449.715,212.132z M61.388,663.243l46.972-21.394c-1.86-2.79-3.721-6.046-6.046-8.836
	c-5.115-6.976-12.092-12.557-19.532-16.742L61.388,663.243z M481.34,496.75c-6.977,0-14.417,0.466-20.929,2.325l-40.925-40.925
	c-4.186-4.186-10.696-4.186-14.882,0s-4.186,10.696,0,14.882l45.11,45.111c2.791,2.79,6.977,3.72,10.696,2.325
	c6.512-2.325,13.487-2.791,20.929-2.791c38.6,0,69.294,31.625,69.294,69.295c0,1.395,0,2.325,0,3.721l-29.764-32.555
	c-6.511-6.511-14.417-9.302-23.254-9.302c-8.836,0-17.207,3.721-23.253,9.302l-22.323,22.323
	c-6.511,6.511-9.301,14.417-9.301,23.253s3.721,17.207,10.231,23.718l31.624,29.299c-0.465,0-1.86,0-2.325,0
	c-38.601,0-69.294-31.624-69.294-69.294c0-7.906,1.395-15.347,4.186-23.253c1.395-4.186,0.465-8.371-2.325-11.162l-44.182-43.716
	c-4.186-4.186-10.696-4.186-14.882,0s-4.186,10.697,0,14.883l38.601,38.6c-2.325,7.906-2.791,15.348-2.791,23.719
	c0,50.227,40.926,90.687,90.688,90.687c9.302,0,19.532-1.86,29.299-4.65c3.721-1.396,6.511-4.186,6.977-7.906
	c0.465-3.721-0.466-7.906-3.721-10.231l-46.972-42.785c-2.325-2.325-3.721-5.116-3.721-8.371c0-3.256,1.396-6.046,3.721-8.371
	l22.323-22.323c2.325-2.325,5.115-3.721,8.371-3.721c2.79,0,6.046,1.396,7.906,2.79l43.251,47.901
	c2.325,2.791,6.511,4.187,10.231,3.721c3.72-0.465,6.511-3.721,7.905-6.976c3.721-9.302,5.116-19.532,5.116-29.764
	C572.027,537.676,531.102,496.75,481.34,496.75z"/>
</svg>
