<?xml version="1.0" encoding="utf-8"?>
<!-- Generator: Adobe Illustrator 16.0.0, SVG Export Plug-In . SVG Version: 6.00 Build 0)  -->
<!DOCTYPE svg PUBLIC "-//W3C//DTD SVG 1.1//EN" "http://www.w3.org/Graphics/SVG/1.1/DTD/svg11.dtd">
<svg version="1.1" id="Layer_1" xmlns="http://www.w3.org/2000/svg" xmlns:xlink="http://www.w3.org/1999/xlink" x="0px" y="0px"
	 width="32px" height="32px" viewBox="0 0 32 32" enable-background="new 0 0 32 32" xml:space="preserve">
<g>
	<rect x="6.094" y="15.176" fill="#B07400" width="7.719" height="2.344"/>
	<rect x="6.094" y="11.144" fill="#B07400" width="7.719" height="2.345"/>
	<rect x="6.094" y="19.207" fill="#B07400" width="7.719" height="2.345"/>
	<path fill="#B07400" d="M20.029,5.771c-2.09,0-3.436,0.763-4.03,1.196c-0.595-0.434-1.938-1.196-4.031-1.196H2.063v21.156h9.905
		c2.426,0,3.63,1.149,3.68,1.198l0.35,0.346l0.354-0.346c0.05-0.049,1.255-1.198,3.68-1.198h9.907V5.771H20.029z M17.171,9.026
		c0.3-0.271,1.187-0.913,2.858-0.913h7.564v16.47h-7.564c-1.014,0-1.973,0.151-2.858,0.451V9.026z M4.405,8.113h7.563
		c1.699,0,2.574,0.65,2.86,0.917v16.005c-0.887-0.301-1.846-0.452-2.86-0.452H4.405V8.113z"/>
	<rect x="18.188" y="11.144" fill="#B07400" width="7.72" height="2.345"/>
	<rect x="18.188" y="15.176" fill="#B07400" width="7.72" height="2.344"/>
	<rect x="18.188" y="19.207" fill="#B07400" width="7.72" height="2.345"/>
</g>
</svg>
