<?xml version="1.0" encoding="utf-8"?>
<!-- Generator: Adobe Illustrator 16.0.0, SVG Export Plug-In . SVG Version: 6.00 Build 0)  -->
<!DOCTYPE svg PUBLIC "-//W3C//DTD SVG 1.1//EN" "http://www.w3.org/Graphics/SVG/1.1/DTD/svg11.dtd">
<svg version="1.1" id="Layer_1" xmlns="http://www.w3.org/2000/svg" xmlns:xlink="http://www.w3.org/1999/xlink" x="0px" y="0px"
	 width="525.002px" height="525.001px" viewBox="87.5 17.5 525.002 525.001" enable-background="new 87.5 17.5 525.002 525.001"
	 xml:space="preserve">
<path fill="#B07400" d="M571.42,443.83c9.023-8.027,14.832-19.586,14.832-32.578c0-24.125-19.625-43.75-43.75-43.75
	s-43.75,19.625-43.75,43.75c0,12.992,5.809,24.551,14.831,32.578c-24.194,11.031-41.082,35.391-41.082,63.672v26.25
	c0,4.84,3.923,8.75,8.75,8.75h122.501c4.828,0,8.75-3.91,8.75-8.75v-26.25C612.502,479.221,595.615,454.861,571.42,443.83
	L571.42,443.83z M516.252,411.252c0-14.473,11.776-26.25,26.25-26.25c14.473,0,26.25,11.777,26.25,26.25s-11.777,26.25-26.25,26.25
	C528.029,437.502,516.252,425.725,516.252,411.252z M595.002,525.002h-105v-17.5c0-28.953,23.547-52.5,52.5-52.5
	c28.952,0,52.5,23.547,52.5,52.5V525.002z"/>
<path fill="#B07400" d="M96.25,542.5h122.5c4.828,0,8.75-3.91,8.75-8.75V507.5c0-28.281-16.888-52.641-41.082-63.672
	c9.023-8.027,14.832-19.586,14.832-32.578c0-24.125-19.625-43.75-43.75-43.75s-43.75,19.625-43.75,43.75
	c0,12.992,5.809,24.551,14.832,32.578C104.387,454.859,87.5,479.219,87.5,507.5v26.25C87.5,538.59,91.422,542.5,96.25,542.5z
	 M131.25,411.25c0-14.473,11.776-26.25,26.25-26.25c14.473,0,26.25,11.777,26.25,26.25s-11.777,26.25-26.25,26.25
	C143.027,437.5,131.25,425.723,131.25,411.25z M105,507.5c0-28.953,23.547-52.5,52.5-52.5s52.5,23.547,52.5,52.5V525H105V507.5z"/>
<path fill="#B07400" d="M280,507.5v26.25c0,4.84,3.922,8.75,8.75,8.75h122.5c4.827,0,8.75-3.91,8.75-8.75V507.5
	c0-28.281-16.888-52.641-41.082-63.672c9.023-8.027,14.832-19.586,14.832-32.578c0-24.125-19.625-43.75-43.75-43.75
	s-43.75,19.625-43.75,43.75c0,12.992,5.809,24.551,14.831,32.578C296.887,454.859,280,479.219,280,507.5z M323.75,411.25
	c0-14.473,11.776-26.25,26.25-26.25c14.473,0,26.25,11.777,26.25,26.25S364.473,437.5,350,437.5
	C335.527,437.5,323.75,425.723,323.75,411.25z M350,455c28.952,0,52.5,23.547,52.5,52.5V525h-105v-17.5
	C297.5,478.547,321.047,455,350,455z"/>
<path fill="#B07400" d="M350,70c-43.419,0-78.75,35.324-78.75,78.75S306.581,227.5,350,227.5c43.418,0,78.75-35.324,78.75-78.75
	S393.418,70,350,70z M350,210c-33.773,0-61.25-27.484-61.25-61.25S316.227,87.5,350,87.5c33.772,0,61.25,27.484,61.25,61.25
	S383.773,210,350,210z"/>
<path fill="#B07400" d="M472.5,183.75c4.827,0,8.75-3.91,8.75-8.75v-52.5c0-4.84-3.923-8.75-8.75-8.75l-14.445-0.234
	c-1.82-5.574-4.078-11.043-6.859-16.457l10.184-10.176c1.645-1.645,2.563-3.859,2.563-6.188s-0.918-4.551-2.563-6.188
	l-37.125-37.117c-3.422-3.422-8.953-3.422-12.371,0l-10.379,10.047c-5.215-2.664-10.695-4.93-16.504-6.785V26.25
	c0-4.84-3.922-8.75-8.75-8.75h-52.5c-4.828,0-8.75,3.91-8.75,8.75l-0.227,14.445c-5.582,1.813-11.051,4.078-16.469,6.859
	l-10.176-10.176c-3.422-3.422-8.953-3.422-12.371,0l-37.125,37.117c-1.645,1.645-2.563,3.86-2.563,6.188
	c0,2.328,0.918,4.551,2.563,6.188l10.047,10.387c-2.652,5.215-4.91,10.684-6.773,16.492H227.5c-4.828,0-8.75,3.91-8.75,8.75V175
	c0,4.84,3.922,8.75,8.75,8.75l14.445,0.234c1.82,5.582,4.078,11.051,6.859,16.457l-10.184,10.176
	c-1.645,1.645-2.563,3.859-2.563,6.188s0.918,4.551,2.563,6.188l37.125,37.117c3.422,3.422,8.953,3.422,12.371,0l10.379-10.047
	c5.215,2.661,10.684,4.918,16.491,6.773l0.004,14.414c0,4.84,3.922,8.75,8.75,8.75h52.5c4.828,0,8.75-3.91,8.75-8.75l0.227-14.445
	c5.582-1.813,11.051-4.078,16.457-6.859l10.185,10.176c3.422,3.422,8.953,3.422,12.371,0l37.125-37.117
	c1.645-1.644,2.563-3.859,2.563-6.188c0-2.328-0.918-4.551-2.563-6.188l-10.048-10.395c2.652-5.199,4.918-10.668,6.773-16.484H472.5
	z M441.402,178.57c-1.531,4.715-3.449,9.328-5.68,13.738c-3.508,6.902-2.266,15.145,3.098,20.512l3.988,3.988l-24.746,24.746
	l-4-3.988c-5.363-5.371-13.612-6.625-20.52-3.09c-4.391,2.238-9.012,4.148-13.738,5.68c-7.359,2.41-12.305,9.113-12.305,16.691
	v5.652h-35v-5.652c0-7.57-4.945-14.281-12.328-16.688c-4.707-1.531-9.32-3.438-13.719-5.672c-6.902-3.535-15.146-2.293-20.512,3.09
	l-4,3.988l-24.746-24.746l3.988-3.988c5.355-5.355,6.598-13.605,3.09-20.52c-2.23-4.402-4.148-9.012-5.68-13.73
	c-2.402-7.379-9.105-12.332-16.691-12.332h-5.652v-35h5.652c7.586,0,14.289-4.953,16.695-12.32c1.531-4.707,3.449-9.328,5.68-13.738
	c3.516-6.902,2.273-15.145-3.09-20.512l-3.988-3.988l24.746-24.746l3.988,3.988c5.363,5.363,13.598,6.613,20.52,3.09
	c4.391-2.238,9.012-4.148,13.738-5.68c7.363-2.41,12.309-9.113,12.309-16.691V35h35v5.652c0,7.57,4.945,14.281,12.328,16.688
	c4.707,1.531,9.32,3.438,13.719,5.672c6.902,3.527,15.156,2.285,20.521-3.09l3.988-3.988l24.746,24.746l-3.988,4.004
	c-5.363,5.355-6.605,13.605-3.098,20.512c2.238,4.41,4.156,9.031,5.68,13.738c2.414,7.363,9.117,12.316,16.702,12.316h5.652v35
	h-5.652C450.512,166.25,443.809,171.203,441.402,178.57L441.402,178.57z"/>
<path fill="#B07400" d="M389.86,141.47l-52.5-35c-2.695-1.785-6.141-1.969-8.977-0.438c-2.852,1.523-4.629,4.489-4.629,7.719v70
	c0,3.23,1.777,6.195,4.621,7.719c1.293,0.691,2.711,1.031,4.129,1.031c1.699,0,3.387-0.5,4.855-1.469l52.5-35
	c2.434-1.629,3.895-4.36,3.895-7.281C393.754,145.83,392.293,143.099,389.86,141.47L389.86,141.47z M341.255,167.408v-37.309
	l27.973,18.652L341.255,167.408z"/>
<path fill="#B07400" d="M341.25,332.5h17.5V350h-17.5V332.5z"/>
<path fill="#B07400" d="M341.25,297.5h17.5V315h-17.5V297.5z"/>
<path fill="#B07400" d="M183.75,140h17.5v17.5h-17.5V140z"/>
<path fill="#B07400" d="M148.75,140h17.5v17.5h-17.5V140z"/>
<path fill="#B07400" d="M148.75,175h17.5v17.5h-17.5V175z"/>
<path fill="#B07400" d="M148.75,210h17.5v17.5h-17.5V210z"/>
<path fill="#B07400" d="M148.75,245h17.5v17.5h-17.5V245z"/>
<path fill="#B07400" d="M148.75,280h17.5v17.5h-17.5V280z"/>
<path fill="#B07400" d="M148.75,315h17.5v17.5h-17.5V315z"/>
<path fill="#B07400" d="M498.75,140h17.5v17.5h-17.5V140z"/>
<path fill="#B07400" d="M533.75,140h17.5v17.5h-17.5V140z"/>
<path fill="#B07400" d="M533.75,175h17.5v17.5h-17.5V175z"/>
<path fill="#B07400" d="M533.75,210h17.5v17.5h-17.5V210z"/>
<path fill="#B07400" d="M533.75,245h17.5v17.5h-17.5V245z"/>
<path fill="#B07400" d="M533.75,280h17.5v17.5h-17.5V280z"/>
<path fill="#B07400" d="M533.75,315h17.5v17.5h-17.5V315z"/>
</svg>
