<?xml version="1.0" encoding="utf-8"?>
<!-- Generator: Adobe Illustrator 16.0.0, SVG Export Plug-In . SVG Version: 6.00 Build 0)  -->
<!DOCTYPE svg PUBLIC "-//W3C//DTD SVG 1.1//EN" "http://www.w3.org/Graphics/SVG/1.1/DTD/svg11.dtd">
<svg version="1.1" id="Layer_1" xmlns="http://www.w3.org/2000/svg" xmlns:xlink="http://www.w3.org/1999/xlink" x="0px" y="0px"
	 width="586.359px" height="535.752px" viewBox="4.651 153.069 586.359 535.752"
	 enable-background="new 4.651 153.069 586.359 535.752" xml:space="preserve">
<g>
	<path fill="#B07400" d="M363.214,688.821L363.214,688.821H152.54c-11.161,0-18.603-7.441-18.603-18.603s7.441-18.603,18.603-18.603
		h206.953l0,0c106.964,0,195.791-88.827,195.791-195.791c0-106.965-88.827-195.792-195.791-195.792
		c-99.988,4.186-188.351,85.572-192.071,188.815c0,11.162-11.161,18.603-18.603,18.603c-11.161,0-18.602-11.161-18.602-18.603
		c3.72-51.622,22.322-103.244,55.342-140.449l-11.161-11.162c-7.441-7.441-7.441-18.603,0-26.043c7.44-7.441,18.603-7.441,26.043,0
		l0,0l11.162,11.162c95.803-81.386,243.692-70.225,325.078,26.043s70.225,243.693-26.043,325.079
		C470.178,670.684,418.556,688.821,363.214,688.821L363.214,688.821z M447.855,371.184c-7.44-7.441-18.603-7.441-26.043,0
		l-54.878,55.808h-3.72c-18.603,0-33.02,14.882-33.02,33.02c0,18.137,14.882,33.019,33.02,33.019
		c18.603,0,33.02-14.882,33.02-33.019l0,0v-3.721l51.621-59.063C455.296,393.506,455.296,378.625,447.855,371.184z M333.449,190.274
		h59.063c11.161,0,18.603-7.441,18.603-18.603s-7.441-18.603-18.603-18.603h-59.063c-11.161,0-18.603,7.441-18.603,18.603
		S322.288,190.274,333.449,190.274z M318.568,596.739c0-11.162-7.44-18.603-18.603-18.603H71.155
		c-11.161,0-18.603,7.44-18.603,18.603c0,11.161,7.441,18.603,18.603,18.603h228.811C311.127,614.876,318.568,607.9,318.568,596.739
		z M326.009,522.794c0-11.162-7.441-18.603-18.603-18.603H23.253c-11.161,0-18.603,7.44-18.603,18.603
		c0,11.161,7.441,18.603,18.603,18.603h284.153C318.568,541.396,326.009,533.955,326.009,522.794z"/>
</g>
</svg>
