<?xml version="1.0" encoding="utf-8"?>
<!-- Generator: Adobe Illustrator 16.0.0, SVG Export Plug-In . SVG Version: 6.00 Build 0)  -->
<!DOCTYPE svg PUBLIC "-//W3C//DTD SVG 1.1//EN" "http://www.w3.org/Graphics/SVG/1.1/DTD/svg11.dtd">
<svg version="1.1" id="Layer_1" xmlns="http://www.w3.org/2000/svg" xmlns:xlink="http://www.w3.org/1999/xlink" x="0px" y="0px"
	 width="32px" height="32px" viewBox="0 0 32 32" enable-background="new 0 0 32 32" xml:space="preserve">
<path fill="#B07400" d="M15.992,3.383c-7.42,0-13.443,6.021-13.443,13.442c0,7.421,6.023,13.442,13.443,13.442
	c7.42,0,13.443-6.021,13.443-13.442C29.436,9.404,23.412,3.383,15.992,3.383z M4.378,16.825c0-1.29,0.215-2.527,0.645-3.711
	c1.237,0.269,2.581,0.538,3.926,0.699c-0.107,0.968-0.161,1.99-0.161,3.012c0,1.397,0.107,2.741,0.322,4.032
	c-1.506-0.215-2.957-0.537-4.248-0.914C4.485,18.922,4.378,17.9,4.378,16.825z M10.507,16.825c0-0.968,0.054-1.937,0.162-2.85
	c1.451,0.161,2.903,0.215,4.409,0.269v7.15c-1.452-0.055-2.85-0.16-4.194-0.321C10.669,19.782,10.507,18.33,10.507,16.825z
	 M16.906,5.371c1.828,0.7,3.388,3.389,4.141,6.937c-1.345,0.108-2.742,0.162-4.141,0.162V5.371z M15.132,5.371v7.099
	c-1.397-0.054-2.796-0.107-4.141-0.216C11.744,8.706,13.304,6.018,15.132,5.371z M15.132,23.17v5.107
	c-1.56-0.592-2.903-2.58-3.71-5.377C12.604,23.063,13.842,23.17,15.132,23.17z M16.906,28.277v-5.055c0.16,0,0.322,0,0.431,0
	c1.075,0,2.149-0.054,3.226-0.106C19.757,25.805,18.412,27.74,16.906,28.277z M17.337,21.449c-0.161,0-0.323,0-0.431,0v-7.151
	c1.506,0,2.957-0.054,4.41-0.215c0.106,0.859,0.16,1.774,0.16,2.742c0,1.559-0.16,3.118-0.431,4.516
	C19.811,21.396,18.573,21.449,17.337,21.449z M23.09,13.922c1.398-0.162,2.743-0.377,3.979-0.646c0.377,1.13,0.537,2.313,0.537,3.55
	c0,1.345-0.215,2.581-0.645,3.764c-1.291,0.27-2.688,0.43-4.141,0.592c0.269-1.345,0.377-2.797,0.377-4.354
	C23.251,15.804,23.198,14.835,23.09,13.922z M26.37,11.609c-1.129,0.215-2.312,0.376-3.603,0.537
	c-0.484-2.474-1.345-4.57-2.475-6.129C22.982,7.093,25.134,9.082,26.37,11.609z M11.637,6.018c-1.076,1.505-1.936,3.548-2.42,6.021
	c-1.236-0.161-2.42-0.376-3.495-0.591C6.959,8.975,9.056,7.093,11.637,6.018z M5.561,21.986c1.236,0.27,2.527,0.537,3.871,0.699
	c0.484,1.937,1.237,3.656,2.205,4.894C9.002,26.559,6.851,24.516,5.561,21.986z M20.348,27.633c0.86-1.183,1.613-2.796,2.098-4.624
	c1.236-0.106,2.474-0.269,3.656-0.431C24.811,24.837,22.82,26.611,20.348,27.633z"/>
</svg>
