<?xml version="1.0" encoding="utf-8"?>
<!-- Generator: Adobe Illustrator 16.0.0, SVG Export Plug-In . SVG Version: 6.00 Build 0)  -->
<!DOCTYPE svg PUBLIC "-//W3C//DTD SVG 1.1//EN" "http://www.w3.org/Graphics/SVG/1.1/DTD/svg11.dtd">
<svg version="1.1" id="Layer_1" xmlns="http://www.w3.org/2000/svg" xmlns:xlink="http://www.w3.org/1999/xlink" x="0px" y="0px"
	 width="531.999px" height="531.999px" viewBox="84.002 14 531.999 531.999" enable-background="new 84.002 14 531.999 531.999"
	 xml:space="preserve">
<path fill="#FFFFFF" d="M350.001,472.08c44.236,0,85.119-15.121,117.6-40.879l-6.719-1.68c-6.72-1.681-12.32-6.16-15.681-11.763
	c-18.479,12.879-39.198,21.84-62.159,26.879c2.237-2.237,4.479-4.479,4.479-5.602c0-0.56,1.68-1.121,2.801-1.68
	c2.801-1.681,5.603-3.359,6.72-5.039c1.68-2.802,7.84-8.961,10.077-10.078c3.359-1.681,22.961-19.604,24.078-22.398
	c3.359-7.281,7.281-15.68,10.077-17.359c4.48-3.358,0.559-10.078-1.121-12.318l-0.559-0.559c-1.681-2.801-12.879-3.922-14.56-3.922
	c-2.237,0-11.762-5.039-12.319-6.721c0-3.359-9.521-12.318-11.763-12.318c-1.12,0-6.719-1.121-10.077-5.039
	c-3.923-4.48-16.802-7.281-20.72-7.281c-3.358,0-8.961-0.559-12.319-2.238c-2.238-2.242-7.841-0.004-13.44,2.238
	c-1.121,0.559-2.238,1.121-2.801,1.121c-1.681,0.559-12.879-1.68-15.682-2.801c-0.559-0.56-1.12-5.039-1.12-7.281
	c0-2.801-0.56-4.48-1.121-5.603c-0.56-1.12-3.359-2.237-8.398-3.358c-1.121-0.56-2.801-0.56-3.922-1.121
	c0-0.559,0.559-2.238,1.121-2.801c1.68-3.922,2.801-6.72,1.68-8.961c-0.559-0.56-1.121-1.121-1.68-1.121
	c-2.238-0.56-6.159,1.68-9.52,4.479c-1.68,1.121-3.922,2.802-4.479,2.802c-2.238,0-6.721-1.681-11.764-5.039
	c-2.801-1.681,0.56-11.763,2.238-16.238c0.559-2.238,1.121-3.922,1.68-5.039c0-1.121,5.603-2.801,13.441-2.801
	c2.238,0,5.039-0.56,8.398-1.121c2.801-0.56,5.039-1.121,7.28-1.121c1.121,0,3.359,2.801,4.48,5.039
	c2.238,2.802,3.922,5.039,6.16,5.039c3.359-0.559,2.801-4.479,2.801-7.84v-2.238c0-1.68,4.48-8.961,7.84-10.641
	c3.922-2.238,9.521-10.078,7.84-14c0-1.68,7.281-6.16,9.521-7.84c1.121-0.559,2.238-1.121,2.801-1.68
	c0.56-0.559,1.68-1.121,2.238-1.68c2.238-1.121,5.602-2.801,5.602-7.281c0-2.238,7.84-3.359,12.319-4.48
	c1.121,0,2.238-0.559,2.801-0.559c2.801-0.559,4.48-1.121,5.603-2.801c1.121-1.68,0-3.359-0.56-5.602
	c-0.559-0.559-0.559-1.121-1.121-1.68c-1.68-3.922-0.559-6.16,2.801-8.961c1.681-1.121,4.48-1.121,7.281-1.68
	c3.359-0.559,6.719-0.559,10.078-2.238c2.238-1.121,3.359-2.238,3.922-3.359c0.56-2.238-0.559-3.922-1.68-5.039
	c-0.559-0.559-1.121-1.121-1.121-1.68c-1.68-3.359-4.48-5.602-6.719-7.281c-1.121-1.121-2.238-5.602-2.801-8.398
	c-0.56-1.68-0.56-3.359-1.121-4.48c-0.56-1.121-1.121-1.68-2.238-2.238c-2.801-1.121-6.719,0.559-8.961,1.68
	c0-0.559-0.56-1.68-0.56-2.238c-0.559-1.68-0.559-3.359-1.68-4.48c-0.559-0.559-2.238-1.68-3.358-3.359
	c-2.238-2.238-5.603-5.039-7.281-6.719c-1.121-1.121-2.238-1.121-3.359-1.121c-2.801,0.559-5.039,3.922-7.281,7.281
	c-0.559,0.559-0.559,0.559-0.559,1.121c-3.359,5.039-3.922,9.519-1.68,11.199c0,0,0.559,1.121-0.56,2.801
	c-1.121,2.801-2.801,4.48-3.922,4.48c-3.358-0.559-3.922,3.922-5.039,8.398c0,1.68-0.559,3.922-1.121,5.039
	c-0.559-0.559-1.68-3.359-1.68-10.641v-1.121c0-1.121-0.559-1.68-1.121-2.238c-1.121-1.121-2.238-0.559-3.359-0.559
	c-1.68,0-2.237,0-2.801-0.559c-1.68-2.801-10.641-6.16-14-7.84v-10.641c1.121-1.68,15.121-11.199,17.922-11.762
	c4.48-1.68,15.682-8.961,17.359-10.641c2.238-1.121,2.238-2.801,2.238-3.922c-0.56-3.359-6.72-6.16-9.521-7.281
	c-3.358-2.797-6.719-2.797-10.641-2.797c-2.238,0-4.48,0-6.719-0.559c-9.521-1.68-17.359-1.68-24.078-1.121
	c-5.039,0.559-12.88,0-17.923-1.121c-2.237-0.559-4.479-1.121-6.159-1.121h-3.359c19.603-7.84,40.879-12.32,63.28-12.32
	c22.397,0,44.238,4.48,63.84,12.879c0.559,2.238,1.121,4.48,2.238,6.719c2.237,5.039,5.602,13.441,5.602,19.602
	c0,6.16,0.56,12.879,0,14.559c-0.559,1.68,12.32,16.801,15.121,16.801c2.801,0.559,5.039-1.68,6.719-4.48
	c1.681-2.8,4.48-6.16,9.521-10.078c3.358-2.238,11.763-3.359,17.922-3.922c5.603,6.16,11.199,12.879,16.238,19.602
	c-1.121,1.121-2.802,2.238-3.359,2.801c-2.238,2.238-8.961,8.961-8.398,14.559c0.56,5.039,6.16,11.762,13.441,15.121
	c6.719,3.359,7.84,10.641,7.84,11.762c0,1.121,9.521,7.281,9.521,7.281s-3.922,7.839-6.16,7.839c-1.681,0-3.359,7.84-3.359,11.199
	c0,3.359,3.922,8.961,8.398,11.761c4.479,3.359,11.198-5.602,11.198-5.602l1.12-0.559c0.56,5.039,1.121,10.078,1.121,15.68
	c-5.602,1.121-12.879,3.922-15.121,5.039c-2.801,2.238-8.961,21.84-11.762,24.078c-2.801,1.68-8.397,28.559-8.961,31.359
	c0,1.68,4.48,11.762,9.52,19.039c1.681,2.801,2.238,6.16,1.681,9.521l26.879,2.801c14-26.319,21.84-56.56,21.84-87.922
	c0-105.84-86.237-192.08-192.079-192.08S159.034,174.157,159.034,280c-0.004,105.84,85.117,192.08,190.96,192.08H350.001z
	 M227.36,166.32c1.121,0.559,2.801,1.68,5.039,3.359c1.121,1.121,1.121,8.961,1.121,17.359v1.117c0,0,7.28,17.359,0.559,30.801
	c-7.281,14.559-5.602,38.078-2.238,43.121c3.359,4.48,19.039,25.199,21.281,27.441c1.681,1.68,7.281,16.801,7.84,18.479
	c0.56,1.681,10.642,14.56,21.841,14.56c6.159,0,14,3.358,18.479,5.602c2.238,1.121,3.922,2.238,5.603,2.238
	c0.559,0,1.121,1.121,1.68,2.237c1.68,2.802,3.922,6.72,10.077,10.078c1.68,1.121,3.359,1.681,5.04,2.802
	c5.602,3.358,13.439,7.84,14,8.961c0,0.559-1.121,1.68-2.239,2.801c-3.359,3.922-9.519,10.642-7.839,19.603
	c2.238,12.319,19.602,27.44,25.762,31.358c3.922,2.237,1.681,28,0,32.479c-0.559,1.681-1.121,4.48-1.121,7.28h-1.68
	c-92.398,0-167.44-75.039-167.44-167.439c-0.563-44.238,16.238-84.559,44.238-114.24L227.36,166.32z"/>
<path fill="#FFFFFF" d="M585.199,216.16c1.121,5.039,6.16,8.398,10.643,8.398c1.121,0,2.237,0,2.801-0.559
	c6.16-1.68,9.52-7.84,7.84-14c-2.801-11.199-6.719-22.398-11.199-33.039c-2.237-5.602-8.961-8.398-14.56-6.16
	c-5.602,2.238-8.398,8.961-6.16,14.559C578.481,196,582.399,206.079,585.199,216.16L585.199,216.16z"/>
<path fill="#FFFFFF" d="M110.32,193.2c1.68,0.559,2.801,1.121,4.479,1.121c4.48,0,8.398-2.801,10.643-6.719
	c3.922-9.52,8.961-19.602,14-28.559c3.358-5.602,1.121-12.32-3.922-15.68c-5.603-3.359-12.32-1.121-15.682,3.922
	c-5.602,10.078-11.197,20.719-15.119,31.359C101.36,184.238,104.16,190.96,110.32,193.2L110.32,193.2z"/>
<path fill="#FFFFFF" d="M542.64,131.04c2.238,2.801,5.602,4.48,8.961,4.48c2.238,0,5.039-0.559,6.719-2.238
	c5.039-3.922,5.603-10.641,2.238-15.68c-7.281-8.961-14.561-17.922-22.961-26.32c-4.48-4.48-11.763-4.48-16.238,0
	c-4.479,4.479-4.479,11.762,0,16.238C529.198,114.801,535.922,122.641,542.64,131.04L542.64,131.04z"/>
<path fill="#FFFFFF" d="M169.68,111.44c2.801,0,5.602-1.121,7.84-3.359c7.28-7.281,15.68-14.559,24.078-21.281
	c5.039-3.922,5.602-10.641,2.237-15.68c-3.922-5.039-10.641-5.602-15.68-2.238c-8.961,7.281-17.923,14.559-26.32,22.961
	c-4.479,4.48-4.479,11.762,0,16.238C163.52,110.318,166.879,111.439,169.68,111.44L169.68,111.44z"/>
<path fill="#FFFFFF" d="M350.001,36.398c10.641,0,20.719,0.559,31.357,2.238h1.68c5.603,0,10.643-3.922,11.199-10.078
	c0-6.16-3.918-11.758-10.078-12.32C372.961,14.559,361.761,14,349.999,14h-0.559c-6.16,0-10.641,5.039-10.641,11.199
	C338.8,31.359,343.84,36.398,350.001,36.398L350.001,36.398z"/>
<path fill="#FFFFFF" d="M252,56c1.681,0,2.801-0.559,4.48-1.121c9.52-3.918,19.598-7.277,29.68-10.078c6.16-1.68,9.521-7.84,7.84-14
	c-1.68-6.16-7.84-9.52-14-7.84c-11.199,2.801-22.397,6.719-33.039,11.199c-5.602,2.238-8.397,8.961-6.16,14.559
	C243.039,53.762,247.52,56,252,56L252,56z"/>
<path fill="#FFFFFF" d="M442.4,54.879c9.521,3.922,19.604,8.961,28.561,14c1.68,1.121,3.922,1.68,5.602,1.68
	c3.922,0,7.84-2.238,10.077-5.602c3.358-5.602,1.121-12.32-3.922-15.68c-10.077-5.602-20.72-11.199-31.358-15.121
	c-5.602-2.238-12.32,0.559-14.56,6.16C434.002,45.922,436.802,52.64,442.4,54.879L442.4,54.879z"/>
<path fill="#FFFFFF" d="M443.52,505.12c-9.52,3.922-19.602,7.281-30.238,10.078c-6.16,1.68-9.52,7.84-7.84,14
	c1.121,5.039,6.16,8.397,10.643,8.397c1.12,0,2.237,0,2.801-0.559c11.197-2.801,22.396-6.719,33.039-11.199
	c5.602-2.238,8.397-8.961,6.16-14.559C455.842,505.119,449.122,502.319,443.52,505.12L443.52,505.12z"/>
<path fill="#FFFFFF" d="M350.001,523.6c-10.643,0-21.281-0.559-31.359-2.237c-6.16-0.56-11.762,3.358-12.879,9.52
	c-0.56,6.16,3.358,11.763,9.52,12.879c11.199,1.681,22.961,2.238,34.16,2.238c6.16,0,11.198-5.039,11.198-11.198
	C361.198,528.64,356.159,523.601,350.001,523.6L350.001,523.6z"/>
<path fill="#FFFFFF" d="M604.801,268.24c-6.16,0-11.199,5.602-11.199,11.762c0,10.642-0.56,21.281-2.238,31.922
	c-0.559,6.16,3.359,11.763,9.521,12.879h1.68c5.602,0,10.641-3.922,11.199-10.077c1.68-11.199,2.238-22.961,2.238-34.72v-1.121
	C615.999,272.722,610.961,268.24,604.801,268.24L604.801,268.24z"/>
<path fill="#FFFFFF" d="M157.36,428.4c-3.922-5.039-10.641-5.603-15.68-2.238c-5.039,3.922-5.603,10.641-2.238,15.68
	c7.281,8.961,14.559,17.922,22.961,26.32c2.238,2.238,5.039,3.359,7.84,3.359s5.603-1.121,7.84-3.359
	c4.48-4.48,4.48-11.763,0-16.238C170.801,444.643,163.521,436.803,157.36,428.4L157.36,428.4z"/>
<path fill="#FFFFFF" d="M114.8,343.28c-1.68-6.16-7.84-9.52-14-7.84c-6.159,1.681-9.52,7.84-7.84,14
	c2.802,11.199,6.72,22.397,11.199,33.039c2.238,3.918,6.16,6.72,10.641,6.72c1.681,0,2.802-0.56,4.48-1.121
	c5.602-2.239,8.398-8.961,6.16-14.56C120.96,363.998,117.601,353.356,114.8,343.28L114.8,343.28z"/>
<path fill="#FFFFFF" d="M257.04,505.12c-9.52-3.922-19.603-8.961-28.56-14c-5.603-3.359-12.319-1.121-15.681,3.922
	c-3.358,5.602-1.12,12.32,3.923,15.68c10.077,5.603,20.719,11.199,31.358,15.121c1.681,0.56,2.801,1.121,4.48,1.121
	c4.479,0,8.397-2.801,10.641-6.719C265.442,514.077,262.641,507.358,257.04,505.12L257.04,505.12z"/>
<path fill="#FFFFFF" d="M106.4,280c0-10.642,0.559-21.281,2.238-31.359c0.559-6.16-3.359-11.762-9.521-12.879
	C92.4,235.2,86.803,239.68,86.24,245.84c-1.68,11.199-2.238,22.961-2.238,33.603v1.121c0,6.16,5.039,11.198,11.199,11.198
	S106.4,286.161,106.4,280L106.4,280z"/>
<path fill="#FFFFFF" d="M598.64,356.16c-9.521,0.559-19.039,5.039-25.199,12.319l-21.84,25.758l-64.398-7.28
	c-3.922-0.56-7.28,1.121-10.076,3.922l-11.764,13.44c-1.121,1.121-0.559,2.801,1.121,3.358l61.039,15.682l-26.324,36.961
	l-24.641-3.922c-2.801-0.56-5.603,0.559-7.281,2.801l-3.358,3.922c-0.56,1.121-0.56,2.238,0.559,2.801l21.281,13.44
	c-1.681,3.923-0.56,8.397,2.801,11.198c3.36,2.802,7.84,3.359,11.762,1.121l16.801,19.039c0.56,1.121,2.238,1.121,3.359,0
	l3.359-3.922c1.68-2.238,2.237-5.039,1.68-7.84l-8.398-22.961l32.48-31.922l25.199,57.68c0.559,1.121,2.237,1.68,3.358,0.56
	l11.763-13.44c2.237-2.801,3.358-6.719,2.237-10.078l-17.359-62.719l21.841-25.763c6.16-7.28,9.519-17.358,8.396-26.879
	C606.48,358.96,602.558,356.159,598.64,356.16L598.64,356.16z"/>
</svg>
