<?xml version="1.0" encoding="utf-8"?>
<!-- Generator: Adobe Illustrator 16.0.0, SVG Export Plug-In . SVG Version: 6.00 Build 0)  -->
<!DOCTYPE svg PUBLIC "-//W3C//DTD SVG 1.1//EN" "http://www.w3.org/Graphics/SVG/1.1/DTD/svg11.dtd">
<svg version="1.1" id="Layer_1" xmlns="http://www.w3.org/2000/svg" xmlns:xlink="http://www.w3.org/1999/xlink" x="0px" y="0px"
	 width="530.663px" height="511.878px" viewBox="84.668 24.06 530.663 511.878"
	 enable-background="new 84.668 24.06 530.663 511.878" xml:space="preserve">
<path fill="#B07400" d="M586.31,288.49h-97.152V53.08c0-16-13.02-29.02-29.02-29.02h-346.45c-16,0-29.02,13.02-29.02,29.02V464.56
	c0,39.359,32.02,71.375,71.375,71.375l387.909,0.004c39.359,0,71.375-32.02,71.375-71.375l0.004-147.05
	c0-16-13.02-29.02-29.022-29.02L586.31,288.49z M156.04,519.35c-30.211,0-54.793-24.582-54.793-54.793V53.077
	c0-6.859,5.578-12.438,12.438-12.438h346.45c6.859,0,12.438,5.578,12.438,12.438v411.479c0,21.992,10.004,41.691,25.695,54.793
	H156.04z M598.75,464.561c0,30.216-24.582,54.793-54.793,54.793c-30.212,0-54.794-24.581-54.794-54.793v-159.49h97.148
	c6.859,0,12.438,5.578,12.438,12.438V464.561z M412.59,393.123c0,4.578-3.711,8.289-8.289,8.289h-234.76
	c-4.578,0-8.289-3.711-8.289-8.289s3.711-8.289,8.289-8.289h234.76c4.578-0.004,8.293,3.711,8.293,8.289H412.59z M412.59,462.307
	c0,4.578-3.711,8.289-8.289,8.289h-117.38c-4.578,0-8.289-3.711-8.289-8.289s3.711-8.289,8.289-8.289h117.38
	c4.578-0.004,8.293,3.711,8.293,8.289H412.59z M412.59,254.757c0,4.578-3.711,8.289-8.289,8.289h-234.76
	c-4.578,0-8.289-3.711-8.289-8.289s3.711-8.289,8.289-8.289h234.76c4.578-0.004,8.293,3.711,8.293,8.289H412.59z M412.59,323.941
	c0,4.578-3.711,8.289-8.289,8.289h-234.76c-4.578,0-8.289-3.711-8.289-8.289s3.711-8.289,8.289-8.289h234.76
	c4.578-0.004,8.293,3.711,8.293,8.289H412.59z M202.68,178.401c-1.09-4.434,1.621-8.918,6.055-10.012
	c4.434-1.09,8.918,1.621,10.012,6.055c1.02,4.094,3.473,7.215,6.672,9.344c8.125,5.414,21.355,5.238,29.216-0.723
	c6.469-4.91,3.839-13.867-2.352-17.605c-4.141-2.504-9.641-3.832-14.806-4.684c-6.66-1.09-13.891-3.086-19.809-6.949
	c-13.984-9.129-16.379-28.98-5.035-41.242c0.984-1.066,2.055-2.059,3.18-2.977c4.129-3.355,9.203-5.703,14.617-6.914v-5.023
	c0-4.578,3.711-8.289,8.289-8.289s8.289,3.711,8.289,8.289v4.898c0.473,0.098,0.938,0.211,1.406,0.328
	c9.905,2.508,18.918,9.023,23.647,20.293c1.773,4.223-0.215,9.078-4.438,10.852c-4.223,1.773-9.082-0.215-10.852-4.438
	c-2.484-5.914-7.199-9.328-12.379-10.641c-6.066-1.539-13.22-0.555-18.164,3.473c-5.688,4.625-5.875,13.41,0.434,17.527
	c3.645,2.379,8.676,3.699,13.457,4.484c6.883,1.133,14.401,3.023,20.702,6.82c13.566,8.191,19.238,27.398,8.641,40.309
	c-1.422,1.734-3.074,3.277-4.859,4.637c-5.023,3.809-11.34,6.16-17.594,7.227v4.738c0,4.578-3.711,8.289-8.289,8.289
	s-8.289-3.71-8.289-8.289v-4.898c-5.086-0.996-9.941-2.894-14.145-5.691c-6.516-4.332-11.504-10.727-13.609-19.188L202.68,178.401z
	 M299.071,178.401c-1.09-4.434,1.621-8.918,6.055-10.012c4.434-1.09,8.918,1.621,10.012,6.055c1.02,4.094,3.473,7.215,6.672,9.344
	c8.114,5.406,21.367,5.234,29.216-0.723c6.457-4.898,3.816-13.883-2.352-17.605c-4.141-2.504-9.641-3.832-14.806-4.684
	c-15.309-2.516-31.262-10.551-32.104-27.996c-0.734-15.172,10.844-26.914,25.065-30.082v-5.023c0-4.578,3.711-8.289,8.289-8.289
	s8.289,3.711,8.289,8.289v4.898c0.473,0.098,0.938,0.211,1.406,0.328c9.906,2.508,18.918,9.023,23.648,20.293
	c1.773,4.223-0.215,9.078-4.438,10.852c-4.223,1.773-9.082-0.215-10.852-4.438c-3.645-8.699-13.289-12.703-22.337-10.887
	c-6.551,1.316-12.922,5.957-12.565,13.277c0.18,3.68,2.102,6.211,4.785,7.961c3.645,2.379,8.676,3.699,13.457,4.484
	c6.883,1.133,14.402,3.023,20.703,6.82c13.789,8.324,19.312,27.941,8.227,40.793c-1.328,1.539-2.836,2.922-4.449,4.148
	c-5.023,3.809-11.34,6.16-17.594,7.227v4.738c0,4.578-3.711,8.289-8.289,8.289c-4.579,0-8.29-3.711-8.29-8.289v-4.898
	c-5.085-0.996-9.941-2.895-14.145-5.691C306.163,193.257,301.175,186.862,299.071,178.401L299.071,178.401z"/>
</svg>
