<?xml version="1.0" encoding="utf-8"?>
<!-- Generator: Adobe Illustrator 16.0.0, SVG Export Plug-In . SVG Version: 6.00 Build 0)  -->
<!DOCTYPE svg PUBLIC "-//W3C//DTD SVG 1.1//EN" "http://www.w3.org/Graphics/SVG/1.1/DTD/svg11.dtd">
<svg version="1.1" id="Layer_1" xmlns="http://www.w3.org/2000/svg" xmlns:xlink="http://www.w3.org/1999/xlink" x="0px" y="0px"
	 width="614.521px" height="560px" viewBox="38.392 0.003 614.521 560" enable-background="new 38.392 0.003 614.521 560"
	 xml:space="preserve">
<path fill="#FFFFFF" d="M508.23,425.12l22.293-23.646c27.242-28.895,72.273-29.564,100.34-1.504l1.121,1.125
	c27.902,27.902,27.906,73.156,0,101.062l-1.121,1.125c-28.051,28.051-73.104,27.375-100.34-1.504l-22.293-23.646l-22.293,23.646
	c-27.227,28.879-72.281,29.555-100.34,1.504l-1.121-1.125c-27.906-27.906-27.902-73.16,0-101.062l1.121-1.125
	c28.062-28.062,73.094-27.391,100.34,1.504L508.23,425.12z M459.648,426.261c-13.27-14.074-34.844-14.397-48.5-0.742l-1.121,1.125
	c-13.793,13.793-13.797,36.177,0,49.97l1.121,1.125c13.646,13.646,35.246,13.319,48.5-0.742l23.918-25.367L459.648,426.261z
	 M556.812,476.994c13.258,14.063,34.854,14.388,48.5,0.742l1.121-1.125c13.797-13.793,13.797-36.177,0-49.97l-1.121-1.125
	c-13.656-13.655-35.229-13.332-48.5,0.742l-23.918,25.367L556.812,476.994z M598.39,280.004c0,9.977-8.086,18.066-18.063,18.066
	c-9.977,0-18.064-8.09-18.064-18.066c0-134.69-109.18-243.87-243.87-243.87c-134.688,0-243.87,109.18-243.87,243.87
	c0,134.69,109.182,243.871,243.87,243.871c9.977,0,18.066,8.086,18.066,18.063c0,9.979-8.091,18.065-18.066,18.065
	c-154.64,0-280-125.36-280-280c0-154.64,125.36-280,280-280s280,125.36,280,280L598.39,280.004z M417.75,270.974
	c9.977,0,18.062,8.086,18.062,18.062c0,9.978-8.086,18.065-18.062,18.065H309.36c-9.977,0-18.064-8.09-18.064-18.065v-162.58
	c0-9.977,8.09-18.066,18.064-18.066c9.978,0,18.063,8.089,18.063,18.066v144.52L417.75,270.974z"/>
</svg>
