<?xml version="1.0" encoding="utf-8"?>
<!-- Generator: Adobe Illustrator 26.0.1, SVG Export Plug-In . SVG Version: 6.00 Build 0)  -->
<svg version="1.1" id="Layer_1" xmlns="http://www.w3.org/2000/svg" xmlns:xlink="http://www.w3.org/1999/xlink" x="0px" y="0px"
	 viewBox="0 0 128 128" style="enable-background:new 0 0 128 128;" xml:space="preserve">
<style type="text/css">
	.st0{fill:#FFFFFF;}
</style>
<g>
	<path class="st0" d="M116.4,11H14.6c-2.2,0-3.6,1.5-3.6,3.6v87.2C11,112,19,120,29.2,120h72.7c10.2,0,18.2-8,18.2-18.2V14.6
		C120,12.5,118.5,11,116.4,11z M112.7,18.3v14.5H18.3V18.3H112.7z M101.8,112.7H29.2c-6.2,0-10.9-4.7-10.9-10.9V40.1h94.5v61.8
		C112.7,108,108,112.7,101.8,112.7z"/>
	<path class="st0" d="M25.5,29.2h3.6c2.2,0,3.6-1.5,3.6-3.6S31.2,22,29.1,22h-3.6c-2.2,0-3.6,1.5-3.6,3.6S23.4,29.2,25.5,29.2z"/>
	<path class="st0" d="M40.1,29.2h3.6c2.2,0,3.6-1.5,3.6-3.6S45.8,22,43.7,22h-3.6c-2.2,0-3.6,1.5-3.6,3.6S37.9,29.2,40.1,29.2z"/>
	<path class="st0" d="M54.6,29.2h3.6c2.2,0,3.6-1.5,3.6-3.6S60.3,22,58.2,22h-3.6c-2.2,0-3.6,1.5-3.6,3.6S52.4,29.2,54.6,29.2z"/>
	<path class="st0" d="M77.1,79.3c4-3.3,6.5-8.4,6.5-13.8c0-10.2-8-18.2-18.2-18.2s-18.2,8-18.2,18.2c0,5.4,2.5,10.5,6.5,13.8
		c-8.4,4.4-13.8,12.7-13.8,22.5c0,2.2,1.5,3.6,3.6,3.6s3.6-1.5,3.6-3.6c0-10.2,8-18.2,18.2-18.2s18.2,8,18.2,18.2
		c0,2.2,1.5,3.6,3.6,3.6c2.2,0,3.6-1.5,3.6-3.6C90.9,92,85.5,83.7,77.1,79.3z M54.6,65.5c0-6.2,4.7-10.9,10.9-10.9
		s10.9,4.7,10.9,10.9s-4.7,10.9-10.9,10.9S54.6,71.7,54.6,65.5z"/>
</g>
</svg>
