<?xml version="1.0" encoding="utf-8"?>
<!-- Generator: Adobe Illustrator 16.0.0, SVG Export Plug-In . SVG Version: 6.00 Build 0)  -->
<!DOCTYPE svg PUBLIC "-//W3C//DTD SVG 1.1//EN" "http://www.w3.org/Graphics/SVG/1.1/DTD/svg11.dtd">
<svg version="1.1" id="Layer_1" xmlns="http://www.w3.org/2000/svg" xmlns:xlink="http://www.w3.org/1999/xlink" x="0px" y="0px"
	 width="32px" height="32px" viewBox="0 0 32 32" enable-background="new 0 0 32 32" xml:space="preserve">
<g>
	<path fill="#B07400" d="M29.827,16.305l-4.593-4.592c-0.459-0.462-1.264-0.445-1.658-0.013c-0.243,0.243-0.374,0.557-0.367,0.884
		c0.007,0.31,0.137,0.594,0.346,0.784l3.758,3.758l-3.748,3.747c-0.235,0.236-0.361,0.546-0.354,0.875
		c0.007,0.309,0.136,0.59,0.345,0.783c0.262,0.261,0.549,0.393,0.85,0.393c0.207,0,0.518-0.066,0.83-0.382l4.58-4.581
		c0.237-0.234,0.365-0.546,0.357-0.874C30.164,16.779,30.036,16.497,29.827,16.305z"/>
	<path fill="#B07400" d="M19.732,4.512c-0.707-0.213-1.336,0.207-1.485,0.813l-6.536,22.942c-0.096,0.309-0.062,0.633,0.096,0.914
		c0.158,0.281,0.427,0.487,0.699,0.555c0.142,0.047,0.216,0.052,0.352,0.052c0.52,0,0.993-0.356,1.153-0.879l6.493-22.924
		c0.1-0.318,0.064-0.662-0.094-0.941C20.257,4.771,20.007,4.579,19.732,4.512z"/>
	<path fill="#B07400" d="M8.331,12.583c0.007-0.327-0.12-0.637-0.355-0.87c-0.458-0.462-1.263-0.445-1.658-0.013l-4.591,4.593
		c-0.237,0.236-0.365,0.546-0.358,0.873c0.007,0.307,0.135,0.591,0.345,0.783l4.592,4.59c0.312,0.314,0.626,0.382,0.835,0.382
		s0.523-0.065,0.834-0.379c0.237-0.235,0.364-0.545,0.357-0.872c-0.007-0.309-0.134-0.592-0.345-0.787l-3.76-3.757l3.734-3.732
		C8.192,13.18,8.324,12.893,8.331,12.583z"/>
</g>
</svg>
