<?xml version="1.0" encoding="utf-8"?>
<!-- Generator: Adobe Illustrator 16.0.0, SVG Export Plug-In . SVG Version: 6.00 Build 0)  -->
<!DOCTYPE svg PUBLIC "-//W3C//DTD SVG 1.1//EN" "http://www.w3.org/Graphics/SVG/1.1/DTD/svg11.dtd">
<svg version="1.1" id="Layer_1" xmlns="http://www.w3.org/2000/svg" xmlns:xlink="http://www.w3.org/1999/xlink" x="0px" y="0px"
	 width="523.058px" height="523.04px" viewBox="88.467 18.479 523.058 523.04"
	 enable-background="new 88.467 18.479 523.058 523.04" xml:space="preserve">
<path fill="#B07400" d="M163.88,369.08c-41.969,0-74.863,18.633-75.305,42.496c-0.012,0.18-0.102,0.328-0.102,0.508v86.434
	c0,2.477,0.371,4.895,1.155,7.574c1.082,3.797,3.036,7.43,6.016,11.168c12.195,14.961,38.363,24.258,68.277,24.258
	c42.242,0,75.336-18.887,75.336-43v-86.434c0-0.086-0.047-0.156-0.051-0.242c-0.02-2.43-0.441-4.793-1.109-7.102l36.06-36.566
	c17.633,13.152,45.245,20.879,75.93,20.879c31.362,0,58.641-8.133,75.84-20.871l36.026,36.544c-0.695,2.418-1.133,4.871-1.133,7.359
	v86.434c0,29.758,43.72,43,75.336,43c42.242,0,75.337-18.887,75.337-43v-86.434c0-24.113-33.091-43.001-75.337-43.001
	c-28.116,0-52.776,8.5-65.668,21.728l-33.129-33.603c4.953-6.496,7.715-13.684,7.715-21.304v-55.793
	c0-0.039,0.012-0.078,0.012-0.117c0-0.02-0.012-0.031-0.012-0.051v-55.715c0-0.039,0.012-0.078,0.012-0.117
	c0-7.625-2.758-14.816-7.707-21.316l33.099-33.57c12.996,13.426,37.608,21.715,65.68,21.715c42.242,0,75.336-18.895,75.336-43.008
	V61.812c0-0.121,0.031-0.238,0.031-0.359c0-24.094-33.09-42.973-75.344-42.973c-42.148,0-75.164,18.785-75.328,42.793
	c0,0.043-0.027,0.082-0.027,0.129v86.535c0,2.473,0.398,5.008,1.133,7.363l-36.004,36.516c-17.211-12.77-44.523-20.922-75.93-20.922
	c-31.363,0-58.642,8.133-75.855,20.871l-36.03-36.547c2.059-7.145,0.688-3.449,1.117-93.816c0-0.109-0.059-0.199-0.063-0.305
	c-0.328-23.922-33.273-42.613-75.316-42.613c-41.887,0-74.719,18.559-75.293,42.348c-0.016,0.199-0.117,0.367-0.117,0.57v86.535
	c0,29.785,43.637,43.008,75.449,43.008c28.598,0,52.961-8.676,65.742-21.75l33.065,33.539c-4.977,6.516-7.758,13.727-7.758,21.379
	c0,0.078,0.02,0.156,0.02,0.234v55.547c0,0.035-0.02,0.066-0.02,0.102c0,0.078,0.02,0.156,0.02,0.234v55.676
	c0,8.25,2.832,14.734,7.746,21.281l-33.133,33.598c-12.785-13.047-37.133-21.703-65.719-21.703V369.08z M163.88,384.932
	c35.062,0,59.496,14.297,59.496,27.129c0,12.824-24.435,27.121-59.496,27.121c-35.063,0-59.496-14.297-59.496-27.121
	C104.384,399.225,128.818,384.932,163.88,384.932z M223.407,498.521c0,12.841-24.435,27.152-59.484,27.152
	c-28.305,0-48.516-9.254-55.938-18.354c-1.598-2.008-2.621-3.832-3.137-5.629c-0.371-1.285-0.527-2.199-0.527-3.168v-16.668
	c13.673,10.038,35.048,16.418,59.56,16.418c24.492,0,45.852-6.367,59.526-16.396L223.407,498.521z M223.407,455.143
	c0,0.055-0.031,0.098-0.031,0.152c0,12.824-24.435,27.121-59.496,27.121c-35.063,0-59.496-14.297-59.496-27.121
	c0-0.109-0.059-0.199-0.063-0.305v-16.379c13.672,10.039,35.047,16.418,59.559,16.418c24.492,0,45.853-6.367,59.527-16.395V455.143z
	 M536.156,384.936c35.051,0,59.484,14.313,59.484,27.152c0,12.793-24.435,27.051-59.484,27.051c-21.02,0-59.483-8.621-59.483-27.051
	C476.669,393.85,514.242,384.936,536.156,384.936z M476.669,438.709c16.125,11.785,39.448,16.277,59.483,16.277
	c24.469,0,45.81-6.344,59.484-16.34v16.78c-0.168,12.789-24.523,26.988-59.465,26.988c-35.063,0-59.496-14.297-59.496-27.121
	c0-0.02-0.012-0.031-0.012-0.051L476.669,438.709z M476.669,481.889c13.676,10.017,35.026,16.375,59.508,16.375
	c24.453,0,45.789-6.348,59.465-16.344v16.598c0,12.841-24.435,27.152-59.484,27.152c-19.526,0-54.164-7.207-58.961-23.984
	c-0.371-1.285-0.527-2.199-0.527-3.168l0.004-16.629H476.669z M536.177,34.329c34.977,0,59.352,14.223,59.473,27.027
	c0,0.016-0.008,0.027-0.008,0.043v0.188c-0.168,12.789-24.522,26.988-59.465,26.988c-35.063,0-59.496-14.297-59.496-27.121
	C476.681,48.625,501.115,34.329,536.177,34.329L536.177,34.329z M476.669,88.048c13.676,10.016,35.026,16.375,59.508,16.375
	c24.453,0,45.789-6.348,59.465-16.344v16.746c-0.168,12.789-24.523,26.988-59.465,26.988c-35.063,0-59.496-14.297-59.496-27.121
	c0-0.02-0.012-0.031-0.012-0.051V88.048z M476.669,131.286c13.676,10.016,35.026,16.375,59.508,16.375
	c24.453,0,45.789-6.348,59.465-16.344v16.617c0,12.848-24.435,27.156-59.484,27.156c-28.229,0-48.401-9.254-55.957-18.516
	c-1.414-1.684-2.414-3.543-3.043-5.715c-0.32-1.023-0.484-2.031-0.484-2.926L476.669,131.286z M163.879,34.329
	c35.062,0,59.496,14.297,59.496,27.121c0,12.824-24.435,27.121-59.496,27.121c-35.063,0.004-59.496-14.293-59.496-27.117
	C104.383,48.626,128.817,34.329,163.879,34.329z M223.406,147.939c0,12.848-24.434,27.156-59.483,27.156
	c-20.313,0-59.598-8.324-59.598-27.156l-0.004-16.688c13.672,10.039,35.047,16.418,59.559,16.418
	c24.492,0,45.852-6.367,59.527-16.395L223.406,147.939z M223.374,104.697c0,12.824-24.434,27.121-59.495,27.121
	c-35.063,0-59.496-14.297-59.496-27.121c0-0.109-0.059-0.199-0.063-0.305V88.009c13.672,10.039,35.047,16.418,59.559,16.418
	c24.492,0,45.853-6.367,59.527-16.395C223.399,92.2,223.383,100.528,223.374,104.697L223.374,104.697z M429.225,335.907
	c0,17.645-32.504,37.301-79.142,37.301c-27.438,0-79.245-11.638-79.245-37.301v-26.098c16.895,14.211,45.762,23.406,79.184,23.406
	c33.43,0,62.309-9.199,79.203-23.418V335.907z M429.225,280.087c-0.109,17.652-32.605,37.277-79.203,37.277
	c-46.52,0-78.961-19.559-79.184-37.188v-26.254c16.895,14.211,45.762,23.406,79.184,23.406c33.43,0,62.309-9.199,79.203-23.418
	V280.087z M350.022,186.743c46.656,0,79.18,19.672,79.211,37.34c0,0.012-0.008,0.023-0.008,0.035v0.082
	c-0.109,17.652-32.605,37.277-79.203,37.277c-46.52,0-78.961-19.559-79.184-37.188v-0.172c0-0.023-0.016-0.043-0.016-0.07
	C270.897,206.391,303.392,186.742,350.022,186.743L350.022,186.743z"/>
</svg>
