<?xml version="1.0" encoding="utf-8"?>
<!-- Generator: Adobe Illustrator 16.0.0, SVG Export Plug-In . SVG Version: 6.00 Build 0)  -->
<!DOCTYPE svg PUBLIC "-//W3C//DTD SVG 1.1//EN" "http://www.w3.org/Graphics/SVG/1.1/DTD/svg11.dtd">
<svg version="1.1" id="Layer_1" xmlns="http://www.w3.org/2000/svg" xmlns:xlink="http://www.w3.org/1999/xlink" x="0px" y="0px"
	 width="32px" height="32px" viewBox="0 0 32 32" enable-background="new 0 0 32 32" xml:space="preserve">
<g>
	<path fill="#FFFFFF" d="M29.049,2.74c-6.494,0-12.765,2.753-17.201,7.552l-0.074,0.08H3.098c-0.208,0-0.394,0.125-0.475,0.318
		c-0.08,0.192-0.036,0.411,0.111,0.56l5.072,5.07l-0.071,0.158c-0.518,1.142-0.942,2.314-1.262,3.487
		c-0.048,0.178,0.002,0.367,0.132,0.496l5.234,5.234c0.126,0.127,0.328,0.178,0.497,0.134c1.185-0.324,2.358-0.749,3.488-1.263
		l0.158-0.07l5.071,5.068c0.141,0.144,0.373,0.19,0.563,0.112c0.189-0.077,0.314-0.266,0.314-0.475v-8.673l0.079-0.073
		c4.802-4.438,7.554-10.707,7.554-17.202C29.563,2.971,29.333,2.74,29.049,2.74z M4.338,11.4h6.543l-0.314,0.404
		c-0.792,1.015-1.506,2.108-2.121,3.249l-0.159,0.295L4.338,11.4z M20.902,27.966l-3.947-3.948l0.294-0.158
		c1.132-0.61,2.226-1.324,3.249-2.121l0.404-0.314V27.966L20.902,27.966z M26.566,12.41c-2.69,5.979-7.818,10.463-14.07,12.308
		l-0.141,0.041l-0.105-0.104l-4.707-4.705l0.042-0.143c1.844-6.25,6.329-11.378,12.306-14.071l0.158-0.069l0.122,0.12l6.466,6.466
		L26.566,12.41z M28.523,4.04c-0.084,2.33-0.528,4.624-1.326,6.818l-0.133,0.368l-0.278-0.276l-5.71-5.711l0.369-0.133
		c2.193-0.798,4.488-1.243,6.818-1.326l0.27-0.01L28.523,4.04z"/>
	<path fill="#FFFFFF" d="M6.791,26.15c0-0.17-0.066-0.33-0.188-0.449c-0.121-0.121-0.281-0.188-0.451-0.188
		c-0.171,0-0.331,0.065-0.452,0.188l-3.052,3.052c-0.121,0.121-0.188,0.281-0.188,0.451c0,0.171,0.066,0.332,0.188,0.452
		c0.238,0.242,0.662,0.24,0.901,0.001l3.054-3.056C6.724,26.482,6.791,26.322,6.791,26.15z"/>
	<path fill="#FFFFFF" d="M9.205,26.277c-0.17,0-0.33,0.065-0.451,0.187l-2.29,2.29c-0.121,0.12-0.188,0.28-0.188,0.451
		c0,0.17,0.066,0.331,0.187,0.452c0.24,0.239,0.663,0.239,0.903,0l2.29-2.29c0.249-0.249,0.249-0.654,0-0.902
		C9.535,26.344,9.375,26.277,9.205,26.277z"/>
	<path fill="#FFFFFF" d="M3.549,25.84l2.291-2.29c0.249-0.248,0.249-0.653,0-0.901c-0.121-0.121-0.281-0.188-0.452-0.188
		c-0.171,0-0.331,0.066-0.45,0.188l-2.29,2.291c-0.121,0.119-0.188,0.278-0.188,0.449c0,0.172,0.066,0.33,0.187,0.45
		C2.888,26.083,3.309,26.082,3.549,25.84z"/>
	<path fill="#FFFFFF" d="M13.91,14.703c0,2.035,1.656,3.689,3.691,3.689c2.035,0,3.69-1.654,3.69-3.689s-1.655-3.691-3.69-3.691
		C15.566,11.012,13.91,12.668,13.91,14.703z M20.016,14.703c0,1.331-1.082,2.414-2.414,2.414c-1.333,0-2.416-1.083-2.416-2.414
		c0-1.332,1.083-2.415,2.416-2.415C18.934,12.288,20.016,13.371,20.016,14.703z"/>
</g>
</svg>
