<?xml version="1.0" encoding="utf-8"?>
<!-- Generator: Adobe Illustrator 16.0.0, SVG Export Plug-In . SVG Version: 6.00 Build 0)  -->
<!DOCTYPE svg PUBLIC "-//W3C//DTD SVG 1.1//EN" "http://www.w3.org/Graphics/SVG/1.1/DTD/svg11.dtd">
<svg version="1.1" id="Layer_1" xmlns="http://www.w3.org/2000/svg" xmlns:xlink="http://www.w3.org/1999/xlink" x="0px" y="0px"
	 width="32px" height="32px" viewBox="0 0 32 32" enable-background="new 0 0 32 32" xml:space="preserve">
<g>
	<path fill="#B07400" d="M20.917,20.111l0.286-0.351c1.371-1.684,2.128-3.808,2.132-5.979c0-5.291-4.306-9.596-9.597-9.596
		c-5.292,0-9.597,4.305-9.597,9.597s4.305,9.597,9.597,9.597c2.171-0.004,4.294-0.761,5.978-2.132l0.351-0.285l6.69,6.702
		c0.229,0.229,0.615,0.241,0.853,0.032l0.043-0.041c0.129-0.122,0.201-0.281,0.205-0.445c0.002-0.066-0.008-0.154-0.049-0.245
		L20.917,20.111z M13.738,22.136c-4.606,0-8.354-3.747-8.354-8.353c0-4.606,3.747-8.353,8.354-8.353
		c4.605,0,8.353,3.747,8.353,8.353C22.091,18.389,18.344,22.136,13.738,22.136z"/>
</g>
</svg>
