<?xml version="1.0" encoding="utf-8"?>
<!-- Generator: Adobe Illustrator 16.0.0, SVG Export Plug-In . SVG Version: 6.00 Build 0)  -->
<!DOCTYPE svg PUBLIC "-//W3C//DTD SVG 1.1//EN" "http://www.w3.org/Graphics/SVG/1.1/DTD/svg11.dtd">
<svg version="1.1" id="Layer_1" xmlns="http://www.w3.org/2000/svg" xmlns:xlink="http://www.w3.org/1999/xlink" x="0px" y="0px"
	 width="32px" height="32px" viewBox="0 0 32 32" enable-background="new 0 0 32 32" xml:space="preserve">
<path fill="#B07400" d="M30.176,10.898l-0.85-0.849c-0.508-0.506-1.18-0.785-1.895-0.785c-0.717,0-1.391,0.279-1.896,0.785
	l-1.407,1.407V4.36c0-0.625-0.51-1.135-1.137-1.135L12.688,3.233c-0.093,0.007-0.184,0.023-0.247,0.045
	c-0.036,0.01-0.07,0.02-0.117,0.037c-0.117,0.046-0.226,0.113-0.326,0.199L3.64,11.001c-0.074,0.071-0.14,0.149-0.19,0.232
	l-0.041,0.071c-0.041,0.078-0.071,0.156-0.105,0.273c-0.021,0.084-0.032,0.17-0.033,0.261V28.52c0,0.627,0.51,1.138,1.136,1.138
	h18.587c0.626,0,1.137-0.511,1.137-1.138v-7.783l6.049-6.047C31.219,13.645,31.219,11.943,30.176,10.898z M7.375,10.705l4.244-3.803
	v3.803H7.375z M17.025,23.197l0.486-1.913l7.746-7.747l1.43,1.429l-7.746,7.748L17.025,23.197z M21.855,13.728l-6.171,6.17
	c-0.145,0.146-0.247,0.326-0.297,0.522l-1.034,4.065c-0.076,0.294-0.031,0.599,0.124,0.858c0.154,0.263,0.402,0.446,0.696,0.522
	c0.184,0.047,0.378,0.047,0.558,0l4.07-1.03c0.198-0.05,0.381-0.153,0.525-0.298l1.527-1.53v4.377H5.54v-14.41h7.216
	c0.626,0,1.136-0.509,1.136-1.136V5.496h7.963V13.728L21.855,13.728z M28.568,13.084l-0.274,0.275l-1.429-1.429l0.273-0.274
	c0.147-0.146,0.436-0.146,0.58-0.002l0.85,0.851C28.729,12.665,28.729,12.925,28.568,13.084z"/>
</svg>
