<?xml version="1.0" encoding="utf-8"?>
<!-- Generator: Adobe Illustrator 16.0.0, SVG Export Plug-In . SVG Version: 6.00 Build 0)  -->
<!DOCTYPE svg PUBLIC "-//W3C//DTD SVG 1.1//EN" "http://www.w3.org/Graphics/SVG/1.1/DTD/svg11.dtd">
<svg version="1.1" id="Layer_1" xmlns="http://www.w3.org/2000/svg" xmlns:xlink="http://www.w3.org/1999/xlink" x="0px" y="0px"
	 width="32px" height="32px" viewBox="0 0 32 32" enable-background="new 0 0 32 32" xml:space="preserve">
<g>
	<path fill="#B07400" d="M26.682,18.232c0.476,0,0.869-0.342,0.938-0.807c0.046-0.295-0.049-0.588-0.262-0.807L14.951,4.208
		c-0.873-0.873-2.036-1.354-3.271-1.354c-1.234,0-2.396,0.481-3.27,1.354L7.619,4.997C6.06,6.556,5.815,8.965,7.01,10.798
		l-4.342,4.355c-0.687,0.69-0.687,1.815,0.001,2.509l8.334,8.365c0.324,0.32,0.783,0.507,1.258,0.507
		c0.478,0,0.936-0.187,1.26-0.509l8.553-8.553l4.492,0.752L26.682,18.232z M19.711,17.164l-7.434,7.447L4.07,16.423l1.054-1.051
		L19.711,17.164z M8.405,9.416C7.933,8.384,8.14,7.155,8.949,6.339l0.814-0.794c0.519-0.515,1.207-0.799,1.938-0.799
		c0.396,0,0.783,0.085,1.142,0.249L8.405,9.416z M14.28,6.212l9.654,9.655l-2.047-0.345L6.819,13.678L14.28,6.212z"/>
	<path fill="#B07400" d="M27.455,20.991c-0.305-0.398-0.947-0.479-1.35-0.173c-0.065,0.051-0.125,0.107-0.191,0.195
		c-0.631,0.897-2.688,3.949-2.688,5.533c0.078,2.246,1.803,3.422,3.465,3.422c1.61,0,3.383-1.072,3.466-3.447
		C30.157,24.854,27.742,21.396,27.455,20.991z M26.693,28.104c-0.867-0.002-1.574-0.709-1.576-1.572
		c0-0.361,0.419-1.407,1.576-3.277c0.949,1.51,1.572,2.801,1.572,3.275C28.266,27.396,27.559,28.104,26.693,28.104z"/>
</g>
</svg>
