<?xml version="1.0" encoding="utf-8"?>
<!-- Generator: Adobe Illustrator 16.0.0, SVG Export Plug-In . SVG Version: 6.00 Build 0)  -->
<!DOCTYPE svg PUBLIC "-//W3C//DTD SVG 1.1//EN" "http://www.w3.org/Graphics/SVG/1.1/DTD/svg11.dtd">
<svg version="1.1" id="Layer_1" xmlns="http://www.w3.org/2000/svg" xmlns:xlink="http://www.w3.org/1999/xlink" x="0px" y="0px"
	 width="32px" height="32px" viewBox="0 0 32 32" enable-background="new 0 0 32 32" xml:space="preserve">
<g>
	<path fill="#B07400" d="M27.047,5.92c-0.072-0.004-7.273-0.431-10.79-3.791l-0.322-0.311l-0.323,0.31
		C12.095,5.489,4.893,5.916,4.82,5.92L4.378,5.944v12.71c0,6.354,10.9,11.306,11.364,11.514l0.192,0.087l0.189-0.087
		c0.465-0.207,11.363-5.148,11.363-11.514V5.944L27.047,5.92z M26.553,18.654c0,5.23-8.8,9.701-10.564,10.545l-0.054,0.025
		L15.881,29.2c-1.765-0.841-10.566-5.302-10.566-10.546V6.821l0.113-0.01c1.613-0.151,7.133-0.86,10.426-3.644L15.935,3.1
		l0.081,0.068c3.291,2.783,8.811,3.492,10.423,3.644l0.113,0.01V18.654z"/>
	<path fill="#B07400" d="M16.181,5.573l-0.246-0.154l-0.248,0.154C13.073,7.199,9.92,7.978,7.734,8.344L7.343,8.409v10.034
		c0,3.055,5.268,6.598,8.38,8.209l0.214,0.113l0.215-0.113c3.11-1.604,8.374-5.139,8.374-8.209V8.409l-0.392-0.065
		C21.948,7.978,18.794,7.199,16.181,5.573z M23.589,18.443c0,2.104-3.819,5.232-7.593,7.234l-0.059,0.031l-0.059-0.031
		c-3.776-2.011-7.6-5.141-7.6-7.234V9.198L8.382,9.18c2.017-0.371,4.953-1.128,7.489-2.624l0.063-0.038l0.063,0.038
		c2.536,1.497,5.472,2.253,7.487,2.624l0.104,0.019L23.589,18.443L23.589,18.443z"/>
	<polygon fill="#B07400" points="14.142,17.917 12.622,15.968 11.885,16.543 14.018,19.28 19.908,14.043 19.286,13.345 	"/>
</g>
</svg>
