<?xml version="1.0" encoding="utf-8"?>
<!-- Generator: Adobe Illustrator 16.0.0, SVG Export Plug-In . SVG Version: 6.00 Build 0)  -->
<!DOCTYPE svg PUBLIC "-//W3C//DTD SVG 1.1//EN" "http://www.w3.org/Graphics/SVG/1.1/DTD/svg11.dtd">
<svg version="1.1" id="Layer_1" xmlns="http://www.w3.org/2000/svg" xmlns:xlink="http://www.w3.org/1999/xlink" x="0px" y="0px"
	 width="32px" height="32px" viewBox="0 0 32 32" enable-background="new 0 0 32 32" xml:space="preserve">
<g>
	<path fill="#FFFFFF" d="M22.04,2.216H9.517c-1.395,0-2.53,1.136-2.53,2.531v23.374c0,1.396,1.136,2.531,2.53,2.531H22.04
		c1.396,0,2.53-1.137,2.53-2.531V4.747C24.57,3.352,23.436,2.216,22.04,2.216z M17.893,28.121c0-0.477-0.388-0.862-0.863-0.862
		h-2.502c-0.476,0-0.863,0.386-0.863,0.862c0,0.383,0.256,0.697,0.603,0.811h-4.75c-0.444,0-0.806-0.363-0.806-0.811v-1.225h14.137
		v1.225c0,0.445-0.363,0.811-0.808,0.811h-4.749C17.637,28.818,17.893,28.504,17.893,28.121z M22.848,7.696v17.477H8.711V7.696
		H22.848z M9.517,3.939H22.04c0.444,0,0.808,0.362,0.808,0.808v1.226H8.711V4.747C8.711,4.302,9.072,3.939,9.517,3.939z"/>
	<path fill="#FFFFFF" d="M13.795,5.582h1.669c0.232,0,0.419-0.188,0.419-0.417s-0.187-0.417-0.419-0.417h-1.669
		c-0.229,0-0.416,0.188-0.416,0.417C13.379,5.395,13.565,5.582,13.795,5.582z"/>
	<path fill="#FFFFFF" d="M16.926,5.582h0.834c0.229,0,0.418-0.188,0.418-0.417S17.99,4.748,17.76,4.748h-0.834
		c-0.229,0-0.416,0.188-0.416,0.417C16.51,5.395,16.695,5.582,16.926,5.582z"/>
</g>
</svg>
