<?xml version="1.0" encoding="utf-8"?>
<!-- Generator: Adobe Illustrator 16.0.0, SVG Export Plug-In . SVG Version: 6.00 Build 0)  -->
<!DOCTYPE svg PUBLIC "-//W3C//DTD SVG 1.1//EN" "http://www.w3.org/Graphics/SVG/1.1/DTD/svg11.dtd">
<svg version="1.1" id="Layer_1" xmlns="http://www.w3.org/2000/svg" xmlns:xlink="http://www.w3.org/1999/xlink" x="0px" y="0px"
	 width="32px" height="32px" viewBox="0 0 32 32" enable-background="new 0 0 32 32" xml:space="preserve">
<g>
	<g>
		<g>
			<path fill="#B07400" d="M28.833,12.272c-0.952,0.458-1.905,0.92-2.854,1.381c-0.537,0.257-1.07,0.516-1.608,0.774
				c-0.97,0.468-1.938,0.938-2.909,1.407c-1.261,0.607-2.52,1.219-3.777,1.827c-0.722,0.35-1.449,0.682-2.161,1.043
				c-0.01,0.006-0.023,0.01-0.033,0.017c0.327,0,0.652,0,0.979,0c-0.598-0.287-1.193-0.578-1.792-0.865
				c-1.238-0.6-2.476-1.195-3.714-1.794c-1.051-0.509-2.099-1.016-3.149-1.524c-0.472-0.226-0.941-0.455-1.414-0.681
				c-1.066-0.519-2.137-1.031-3.204-1.549c-0.022-0.014-0.049-0.023-0.071-0.035c0,0.559,0,1.115,0,1.674
				c0.443-0.213,0.886-0.43,1.332-0.644c1.061-0.514,2.122-1.024,3.181-1.539c1.287-0.621,2.574-1.244,3.861-1.866
				c1.108-0.534,2.218-1.072,3.327-1.606c0.54-0.262,1.089-0.51,1.622-0.784c0.007-0.004,0.017-0.008,0.022-0.01
				c-0.326,0-0.652,0-0.978,0c0.442,0.213,0.885,0.43,1.331,0.643c1.061,0.515,2.122,1.025,3.182,1.538
				c1.287,0.621,2.573,1.245,3.86,1.867c1.109,0.535,2.218,1.073,3.326,1.605c0.539,0.263,1.08,0.527,1.623,0.786
				c0.006,0.004,0.018,0.006,0.022,0.01c0.238,0.117,0.485,0.172,0.747,0.098c0.227-0.062,0.469-0.236,0.579-0.446
				c0.229-0.434,0.139-1.094-0.351-1.325c-0.445-0.218-0.892-0.434-1.338-0.646c-1.066-0.516-2.134-1.032-3.197-1.547
				c-1.287-0.62-2.573-1.245-3.86-1.863c-1.112-0.539-2.224-1.078-3.337-1.614c-0.531-0.256-1.059-0.521-1.59-0.771
				c-0.207-0.097-0.401-0.154-0.633-0.122c-0.137,0.019-0.256,0.064-0.382,0.126c-0.058,0.025-0.116,0.054-0.174,0.084
				c-0.275,0.132-0.551,0.266-0.826,0.397c-1.005,0.485-2.007,0.97-3.013,1.459C10.18,8.396,8.893,9.017,7.61,9.64
				c-1.157,0.561-2.312,1.118-3.469,1.679c-0.634,0.308-1.265,0.61-1.898,0.918c-0.028,0.012-0.058,0.029-0.089,0.042
				c-0.634,0.308-0.634,1.369,0,1.675c0.957,0.463,1.914,0.925,2.867,1.387c0.536,0.259,1.07,0.519,1.606,0.775
				c0.979,0.476,1.959,0.948,2.939,1.423c1.261,0.611,2.525,1.223,3.787,1.83c0.705,0.343,1.409,0.691,2.117,1.025
				c0.211,0.097,0.407,0.157,0.644,0.125c0.138-0.02,0.265-0.066,0.388-0.129c0.08-0.039,0.161-0.078,0.242-0.115
				c0.372-0.178,0.74-0.36,1.113-0.537c1.205-0.583,2.408-1.164,3.613-1.748c1.121-0.545,2.244-1.086,3.361-1.628
				c0.447-0.216,0.895-0.43,1.339-0.646c1.126-0.543,2.251-1.086,3.377-1.633c0.091-0.041,0.177-0.087,0.267-0.129
				c0.461-0.22,0.617-0.912,0.352-1.325C29.855,12.148,29.324,12.033,28.833,12.272z"/>
		</g>
	</g>
	<g>
		<g>
			<path fill="#B07400" d="M24.268,15.088c0,0.691,0,1.385,0,2.075c0,1.104,0,2.209,0,3.312c0,0.254,0,0.508,0,0.764
				c0.162-0.279,0.319-0.561,0.481-0.838c-1.048,0.482-2.095,0.963-3.144,1.441c-1.658,0.762-3.315,1.522-4.972,2.283
				c-0.383,0.175-0.764,0.354-1.148,0.525c0.328,0,0.653,0,0.979,0c-1.047-0.481-2.095-0.963-3.142-1.441
				c-1.659-0.76-3.319-1.521-4.973-2.282c-0.382-0.175-0.763-0.352-1.148-0.526c0.162,0.277,0.32,0.559,0.481,0.838
				c0-0.692,0-1.385,0-2.075c0-1.103,0-2.209,0-3.312c0-0.256,0-0.507,0-0.763c0-0.507-0.445-0.992-0.97-0.97
				c-0.527,0.021-0.97,0.426-0.97,0.97c0,0.691,0,1.385,0,2.075c0,1.104,0,2.209,0,3.312c0,0.254,0,0.508,0,0.764
				c0,0.316,0.178,0.697,0.483,0.837c1.057,0.483,2.114,0.97,3.171,1.455c1.662,0.764,3.324,1.526,4.985,2.288
				c0.365,0.168,0.731,0.337,1.095,0.506c0.363,0.165,0.641,0.16,1.003,0c0.04-0.018,0.077-0.035,0.116-0.055
				c0.191-0.088,0.379-0.176,0.568-0.265c1.588-0.729,3.179-1.457,4.768-2.188c1.244-0.571,2.488-1.145,3.733-1.713
				c0.022-0.01,0.042-0.021,0.065-0.029c0.299-0.139,0.479-0.52,0.479-0.838c0-0.691,0-1.383,0-2.074c0-1.104,0-2.209,0-3.312
				c0-0.256,0-0.507,0-0.763c0-0.507-0.446-0.992-0.97-0.97C24.713,14.144,24.268,14.544,24.268,15.088L24.268,15.088z"/>
		</g>
	</g>
	<g>
		<g>
			<path fill="#B07400" d="M28.354,17.23c0,1.4,0,2.801,0,4.201c0,0.195,0,0.395,0,0.59c0,0.509,0.445,0.994,0.971,0.972
				c0.525-0.023,0.97-0.427,0.97-0.972c0-1.398,0-2.799,0-4.198c0-0.197,0-0.396,0-0.593c0-0.508-0.446-0.991-0.97-0.97
				C28.797,16.284,28.354,16.688,28.354,17.23L28.354,17.23z"/>
		</g>
	</g>
</g>
</svg>
