<?xml version="1.0" encoding="utf-8"?>
<!-- Generator: Adobe Illustrator 16.0.0, SVG Export Plug-In . SVG Version: 6.00 Build 0)  -->
<!DOCTYPE svg PUBLIC "-//W3C//DTD SVG 1.1//EN" "http://www.w3.org/Graphics/SVG/1.1/DTD/svg11.dtd">
<svg version="1.1" id="Layer_1" xmlns="http://www.w3.org/2000/svg" xmlns:xlink="http://www.w3.org/1999/xlink" x="0px" y="0px"
	 width="32px" height="32px" viewBox="0 0 32 32" enable-background="new 0 0 32 32" xml:space="preserve">
<g>
	<path fill="#FFFFFF" d="M16.468,3.122c-7.5,0-13.604,6.103-13.604,13.603c0,7.502,6.104,13.606,13.604,13.606
		c7.503,0,13.606-6.104,13.606-13.606C30.074,9.225,23.971,3.122,16.468,3.122z M16.468,28.081c-6.26,0-11.354-5.095-11.354-11.356
		c0-6.259,5.094-11.353,11.354-11.353c6.261,0,11.355,5.094,11.355,11.353C27.823,22.986,22.729,28.081,16.468,28.081z"/>
	<path fill="#FFFFFF" d="M13.78,11.976c-0.445,0.431-0.457,1.145-0.026,1.593l3.039,3.142l-3.023,3.014
		c-0.214,0.213-0.332,0.496-0.332,0.795c0,0.301,0.116,0.584,0.326,0.795c0.212,0.215,0.497,0.332,0.801,0.332
		c0.298,0,0.579-0.114,0.793-0.326l4.598-4.576l-4.582-4.739C14.953,11.57,14.216,11.557,13.78,11.976z"/>
</g>
</svg>
