<?xml version="1.0" encoding="utf-8"?>
<!-- Generator: Adobe Illustrator 16.0.0, SVG Export Plug-In . SVG Version: 6.00 Build 0)  -->
<!DOCTYPE svg PUBLIC "-//W3C//DTD SVG 1.1//EN" "http://www.w3.org/Graphics/SVG/1.1/DTD/svg11.dtd">
<svg version="1.1" id="Layer_1" xmlns="http://www.w3.org/2000/svg" xmlns:xlink="http://www.w3.org/1999/xlink" x="0px" y="0px"
	 width="32px" height="32px" viewBox="0 0 32 32" enable-background="new 0 0 32 32" xml:space="preserve">
<path fill="#B07400" d="M22.158,9.3l2.287,2.324l-10.154,9.985l-4.669-4.346c-0.25-0.233-0.576-0.361-0.916-0.361
	c-0.348,0-0.676,0.132-0.927,0.369l-6.451,6.127C1.069,23.646,0.92,23.98,0.91,24.34C0.9,24.7,1.031,25.041,1.279,25.3
	c0.495,0.521,1.383,0.544,1.9,0.052l5.534-5.261l4.688,4.364c0.511,0.475,1.365,0.465,1.86-0.023l11.07-10.892l2.288,2.325
	l2.456-8.877L22.158,9.3z"/>
</svg>
