<?xml version="1.0" encoding="utf-8"?>
<!-- Generator: Adobe Illustrator 16.0.0, SVG Export Plug-In . SVG Version: 6.00 Build 0)  -->
<!DOCTYPE svg PUBLIC "-//W3C//DTD SVG 1.1//EN" "http://www.w3.org/Graphics/SVG/1.1/DTD/svg11.dtd">
<svg version="1.1" id="Layer_1" xmlns="http://www.w3.org/2000/svg" xmlns:xlink="http://www.w3.org/1999/xlink" x="0px" y="0px"
	 width="489.99px" height="531.049px" viewBox="87.496 17.505 489.99 531.049"
	 enable-background="new 87.496 17.505 489.99 531.049" xml:space="preserve">
<path fill="#FFFFFF" d="M96.25,516.25h122.5c4.828,0,8.75-3.922,8.75-8.75v-8.75h24.185l93.547,46.777
	c4.051,2.02,8.426,3.027,12.793,3.027c4.98,0,9.949-1.305,14.402-3.902l190.87-111.342c8.75-5.107,14.189-14.576,14.189-24.701
	c0-8.461-3.711-16.441-10.194-21.883c-6.478-5.453-14.962-7.727-23.31-6.293l-173.51,30.172l-49.289-49.289
	c-1.637-1.645-3.867-2.563-6.188-2.563H96.246c-4.828,0-8.75,3.922-8.75,8.75v140c0,4.828,3.922,8.75,8.75,8.75L96.25,516.25z
	 M380.31,445.183c3.027,3.027,4.691,7.043,4.691,11.314c0,8.828-7.177,16.004-16.005,16.004c-4.27,0-8.284-1.664-11.313-4.691
	l-45.246-45.246l-12.37,12.371l45.245,45.246c6.332,6.336,14.742,9.82,23.685,9.82c18.479,0,33.505-15.023,33.505-33.504
	c0-8.941-3.484-17.359-9.816-23.689l-7.078-7.076l161.39-28.07c3.22-0.551,6.535,0.332,9.048,2.441
	c2.508,2.117,3.952,5.215,3.952,8.496c0,3.93-2.108,7.605-5.504,9.59l-190.88,111.34c-3.246,1.883-7.203,2.012-10.562,0.34
	l-95.392-47.695c-1.207-0.607-2.555-0.926-3.91-0.926h-26.25v-105h83.879L380.31,445.183z M210,498.75h-17.5v-122.5H210V498.75z
	 M105,376.25h70v122.5h-70V376.25z"/>
<path fill="#FFFFFF" d="M254.07,276.97c-3.945-3.719-7.707-7.691-11.19-11.82l-13.38,11.27c3.91,4.646,8.146,9.117,12.582,13.293
	L254.07,276.97z"/>
<path fill="#FFFFFF" d="M358.289,314.77l1.017,17.474c6.074-0.359,12.199-1.066,18.185-2.125l-3.047-17.238
	C369.135,313.826,363.689,314.455,358.289,314.77L358.289,314.77z"/>
<path fill="#FFFFFF" d="M420.07,296.22l8.777,15.137c5.266-3.055,10.396-6.441,15.276-10.078l-10.465-14.027
	C429.32,290.498,424.749,293.509,420.07,296.22L420.07,296.22z"/>
<path fill="#FFFFFF" d="M395.301,325.89c5.828-1.75,11.621-3.859,17.203-6.273l-6.949-16.066
	c-4.961,2.152-10.105,4.023-15.285,5.574L395.301,325.89z"/>
<path fill="#FFFFFF" d="M266.12,62.895l-10.483-14.008c-4.849,3.632-9.556,7.605-13.992,11.805l12.039,12.695
	C257.624,69.66,261.808,66.125,266.12,62.895L266.12,62.895z"/>
<path fill="#FFFFFF" d="M233.14,252.11c-2.984-4.516-5.73-9.25-8.164-14.062l-15.617,7.883c2.738,5.426,5.828,10.746,9.188,15.828
	L233.14,252.11z"/>
<path fill="#FFFFFF" d="M357.72,35.211l0.961-17.473c-6.074-0.332-12.258-0.305-18.297,0.051l1.043,17.465
	C346.818,34.938,352.322,34.914,357.72,35.211L357.72,35.211z"/>
<path fill="#FFFFFF" d="M325.28,37.18l-3.078-17.23c-6.004,1.066-11.986,2.504-17.805,4.254l5.059,16.758
	C314.623,39.403,319.944,38.126,325.28,37.18L325.28,37.18z"/>
<path fill="#FFFFFF" d="M305,325.97l4.996-16.773c-5.172-1.539-10.315-3.402-15.313-5.547l-6.902,16.082
	C293.395,322.138,299.18,324.236,305,325.97L305,325.97z"/>
<path fill="#FFFFFF" d="M256.11,301.46c4.897,3.647,10.047,7.026,15.306,10.055l8.742-15.156c-4.664-2.695-9.238-5.695-13.604-8.941
	L256.11,301.46z"/>
<path fill="#FFFFFF" d="M196.78,211.6c1.411,5.934,3.184,11.828,5.277,17.535l16.435-6.012c-1.854-5.066-3.43-10.309-4.691-15.574
	L196.78,211.6z"/>
<path fill="#FFFFFF" d="M341.001,332.25l0.987-17.473c-5.419-0.305-10.858-0.926-16.173-1.855l-3,17.246
	C328.804,331.207,334.919,331.91,341.001,332.25L341.001,332.25z"/>
<path fill="#FFFFFF" d="M481.421,126.61l16.422-6.047c-2.103-5.703-4.566-11.348-7.324-16.781l-15.604,7.918
	C477.357,116.521,479.545,121.544,481.421,126.61L481.421,126.61z"/>
<path fill="#FFFFFF" d="M294.19,46.566l-6.984-16.047c-5.555,2.414-11.051,5.199-16.328,8.27l8.802,15.129
	C284.373,51.187,289.256,48.71,294.19,46.566L294.19,46.566z"/>
<path fill="#FFFFFF" d="M489.001,158.19l17.365-2.082c-0.727-6.047-1.813-12.109-3.219-18.016l-17.02,4.086
	C487.386,147.42,488.351,152.807,489.001,158.19L489.001,158.19z"/>
<path fill="#FFFFFF" d="M394.69,23.93c-5.828-1.715-11.82-3.113-17.824-4.148l-2.977,17.246c5.336,0.918,10.676,2.161,15.849,3.684
	L394.69,23.93z"/>
<path fill="#FFFFFF" d="M490.789,245.67l-15.629-7.867c-2.44,4.848-5.18,9.582-8.155,14.086l14.612,9.633
	C484.962,256.451,488.048,251.124,490.789,245.67L490.789,245.67z"/>
<path fill="#FFFFFF" d="M446.11,276.791l12.016,12.723c4.42-4.172,8.646-8.652,12.566-13.309l-13.406-11.254
	C453.802,269.099,450.048,273.08,446.11,276.791z"/>
<path fill="#FFFFFF" d="M503.289,211.3l-17.025-4.016c-1.242,5.266-2.81,10.508-4.656,15.582l16.44,5.992
	C500.13,223.136,501.887,217.229,503.289,211.3L503.289,211.3z"/>
<path fill="#FFFFFF" d="M507.501,175v-0.594l-17.5,0.594c0,5.418-0.316,10.895-0.938,16.258l17.387,2.004
	C507.141,187.234,507.501,181.09,507.501,175L507.501,175z"/>
<path fill="#FFFFFF" d="M466.711,97.66l14.576-9.676c-3.352-5.047-7.051-9.977-10.986-14.629l-13.359,11.297
	C460.445,88.785,463.738,93.16,466.711,97.66L466.711,97.66z"/>
<path fill="#FFFFFF" d="M213.67,142.99l-17.035-3.98c-1.383,5.898-2.422,11.969-3.112,18.035l17.387,1.977
	C211.518,153.63,212.451,148.232,213.67,142.99L213.67,142.99z"/>
<path fill="#FFFFFF" d="M224.72,112.44l-15.652-7.832c-2.73,5.461-5.152,11.121-7.219,16.836l16.457,5.949
	C220.134,122.319,222.294,117.288,224.72,112.44L224.72,112.44z"/>
<path fill="#FFFFFF" d="M210.96,191.53c-0.629-5.336-0.953-10.805-0.961-16.25l-17.5,0.035c0.008,6.117,0.375,12.258,1.086,18.262
	L210.96,191.53z"/>
<path fill="#FFFFFF" d="M428.32,38.324c-5.276-3.027-10.789-5.785-16.391-8.18l-6.892,16.09c4.98,2.137,9.88,4.578,14.57,7.27
	L428.32,38.324z"/>
<path fill="#FFFFFF" d="M457.699,60.078c-4.438-4.156-9.16-8.102-14.051-11.727l-10.414,14.062c4.359,3.219,8.56,6.73,12.504,10.43
	L457.699,60.078z"/>
<path fill="#FFFFFF" d="M242.54,85.25l-13.43-11.207c-3.91,4.68-7.578,9.625-10.901,14.699l14.629,9.598
	C235.794,93.828,239.056,89.426,242.54,85.25L242.54,85.25z"/>
<path fill="#FFFFFF" d="M344.18,63.453l-78.75,70c-1.863,1.664-2.931,4.043-2.931,6.547v122.5c0,4.828,3.922,8.75,8.75,8.75h157.501
	c4.827,0,8.75-3.922,8.75-8.75V140c0-2.504-1.066-4.883-2.931-6.547l-14.569-12.938V69.999c0-4.828-3.923-8.75-8.75-8.75h-35
	c-4.828,0-8.75,3.922-8.75,8.75v3.852L355.82,63.456c-3.315-2.941-8.324-2.941-11.642-0.004L344.18,63.453z M332.501,253.753v-70h35
	v70H332.501z M370.43,99.873c2.582,2.293,6.258,2.852,9.397,1.445c3.152-1.418,5.173-4.543,5.173-7.98V78.752h17.5v45.691
	c0,2.504,1.065,4.883,2.93,6.547l14.57,12.941v109.82h-35v-78.75c0-4.828-3.924-8.75-8.75-8.75h-52.5c-4.828,0-8.75,3.922-8.75,8.75
	v78.75H280v-109.82l70.001-62.223L370.43,99.873z"/>
</svg>
