<?xml version="1.0" encoding="utf-8"?>
<!-- Generator: Adobe Illustrator 16.0.0, SVG Export Plug-In . SVG Version: 6.00 Build 0)  -->
<!DOCTYPE svg PUBLIC "-//W3C//DTD SVG 1.1//EN" "http://www.w3.org/Graphics/SVG/1.1/DTD/svg11.dtd">
<svg version="1.1" id="Layer_1" xmlns="http://www.w3.org/2000/svg" xmlns:xlink="http://www.w3.org/1999/xlink" x="0px" y="0px"
	 width="412.563px" height="502.038px" viewBox="143.72 28.982 412.563 502.038"
	 enable-background="new 143.72 28.982 412.563 502.038" xml:space="preserve">
<path fill="#B07400" d="M556.28,531.02H143.72V60.32H254.9v16.406h-94.772v437.88h379.75V76.726h-94.773V60.32h111.18L556.28,531.02
	z"/>
<path fill="#B07400" d="M453.3,108.06H246.69V54.248c0-13.945,11.32-25.266,25.267-25.266h156.079
	c13.945,0,25.267,11.32,25.267,25.266L453.3,108.06z M263.1,91.654h173.8V54.248c0-4.867-3.992-8.859-8.859-8.859H271.96
	c-4.867,0-8.859,3.992-8.859,8.859L263.1,91.654z"/>
<path fill="#B07400" d="M312.81,287.49H207.15V181.83h105.66V287.49z M223.56,271.084h72.844V198.24H223.56V271.084z"/>
<path fill="#B07400" d="M252.05,262.88l-23.242-23.242l11.594-11.594l11.648,11.648l27.562-27.508l11.595,11.594L252.05,262.88z"/>
<path fill="#B07400" d="M346.01,226.46h138.63v16.406H346.01V226.46z"/>
<path fill="#B07400" d="M312.81,447.07H207.15V341.41h105.66V447.07z M223.56,430.664h72.844V357.82H223.56V430.664z"/>
<path fill="#B07400" d="M346.01,386.04h138.63v16.406H346.01V386.04z"/>
</svg>
