<?xml version="1.0" encoding="utf-8"?>
<!-- Generator: Adobe Illustrator 16.0.0, SVG Export Plug-In . SVG Version: 6.00 Build 0)  -->
<!DOCTYPE svg PUBLIC "-//W3C//DTD SVG 1.1//EN" "http://www.w3.org/Graphics/SVG/1.1/DTD/svg11.dtd">
<svg version="1.1" id="Layer_1" xmlns="http://www.w3.org/2000/svg" xmlns:xlink="http://www.w3.org/1999/xlink" x="0px" y="0px"
	 width="375.272px" height="560.004px" viewBox="134.37 12.005 375.272 560.004"
	 enable-background="new 134.37 12.005 375.272 560.004" xml:space="preserve">
<path fill="#FFFFFF" d="M473.539,360.43h16.354c11.646,0,21.055-10.191,19.602-22.062c-1.229-9.97-10.077-17.246-20.158-17.246
	h-15.794c-3.586,0-6.495,2.91-6.495,6.496v3.809h-31.811l-61.039-152.43c6.496-9.855,10.307-21.504,10.307-34.16
	c0-26.207-16.467-48.609-39.535-57.793V34.853c0-12.543-10.307-22.848-22.961-22.848c-12.656,0-22.962,10.305-22.962,22.848v52.188
	c-23.185,9.07-39.534,31.586-39.534,57.793c0,12.656,3.809,24.305,10.305,34.16l-61.039,152.429h-31.81v-3.809
	c0-3.586-2.909-6.496-6.495-6.496h-15.793c-10.078,0-18.931,7.281-20.16,17.246c-1.457,11.871,7.953,22.063,19.602,22.063h16.354
	c3.586,0,6.496-2.91,6.496-6.496v-3.695h24.305l-51.297,128.131c-4.258,10.641,1.008,22.732,11.647,26.992l-8.625,63.615
	c-0.449,3.139,3.922,4.26,5.152,1.346l30.688-76.609l57.457-143.471h62.945v28.225c0,3.695,3.023,6.719,6.72,6.719h12.098
	c3.695,0,6.719-3.023,6.719-6.719V350.24h62.945l57.457,143.471l30.688,76.609c1.121,2.908,5.488,1.793,5.152-1.346l-8.625-63.615
	c10.642-4.26,15.902-16.354,11.647-26.992l-51.302-128.131h24.307v3.809c0,3.474,2.914,6.388,6.495,6.388L473.539,360.43z
	 M299.94,144.83c0-12.098,9.855-21.84,22.063-21.84c12.098,0,22.062,9.854,22.062,21.84c0,12.098-9.854,21.84-22.062,21.84
	C309.904,166.783,299.94,156.928,299.94,144.83z M334.772,331.419v-26.77c0-3.695-3.023-6.719-6.719-6.719h-12.099
	c-3.694,0-6.719,3.023-6.719,6.719v26.77h-55.328l50.848-126.889c5.488,1.566,11.313,2.465,17.359,2.465s11.871-0.895,17.358-2.465
	l50.849,126.889H334.772z"/>
</svg>
