<?xml version="1.0" encoding="utf-8"?>
<!-- Generator: Adobe Illustrator 16.0.0, SVG Export Plug-In . SVG Version: 6.00 Build 0)  -->
<!DOCTYPE svg PUBLIC "-//W3C//DTD SVG 1.1//EN" "http://www.w3.org/Graphics/SVG/1.1/DTD/svg11.dtd">
<svg version="1.1" id="Layer_1" xmlns="http://www.w3.org/2000/svg" xmlns:xlink="http://www.w3.org/1999/xlink" x="0px" y="0px"
	 width="590.713px" height="515.012px" viewBox="0 161.253 590.713 515.012" enable-background="new 0 161.253 590.713 515.012"
	 xml:space="preserve">
<g>
	<path fill="#B07400" d="M360.889,308.4l-12.092,14.882c12.092,11.162,26.043,16.743,41.391,18.603v12.092h11.161v-12.092
		c21.393-0.93,37.67-13.021,37.67-33.95c0-22.323-15.812-29.299-37.67-34.879h-0.93v-31.159c8.371,0.93,16.742,4.65,24.183,10.231
		l11.162-15.812c-11.162-7.441-23.254-12.092-34.88-13.022v-8.371h-11.162v8.371c-20.462,0.93-36.739,13.952-36.739,33.95
		c0,22.323,15.812,28.834,36.739,33.949v33.02C379.956,321.422,370.19,316.771,360.889,308.4z M401.349,293.983
		c10.231,2.791,17.673,6.511,17.673,15.812s-8.371,13.952-17.673,14.882V293.983z M373.91,254.917
		c0-8.371,7.44-13.021,16.742-13.952v29.299C379.956,267.009,373.91,264.219,373.91,254.917z"/>
	<path fill="#B07400" d="M588.769,352.116c-1.86-2.791-4.65-4.65-8.371-4.65h-83.246c13.952-23.253,21.393-50.692,16.742-80.456
		c-7.44-55.342-52.552-99.523-107.895-105.104c-73.944-7.441-135.798,49.762-135.798,121.846c0,23.253,6.511,45.111,18.603,63.714
		H93.943l-24.184-54.413c-1.86-2.79-5.58-4.65-9.301-4.65H9.301c-5.58,0-9.301,4.65-9.301,9.301l0,0c0,5.581,4.65,9.301,9.301,9.301
		h46.041l122.777,274.852c1.86,3.721,4.65,5.581,8.371,5.581h290.664c3.72,0,6.511-1.86,8.371-5.581l104.174-220.439
		C591.56,358.162,590.629,354.906,588.769,352.116z M393.907,180.508c57.203,0,104.175,46.041,104.175,104.174
		c0,57.203-46.042,104.174-104.175,104.174s-104.174-46.042-104.174-104.174C289.734,227.479,336.705,180.508,393.907,180.508z
		 M135.798,440.478h395.769l-30.229,63.714h-337.17L135.798,440.478z M470.643,568.835H193.001l-20.463-45.111h320.428
		L470.643,568.835z M540.867,421.875h-413.44l-25.113-55.342h201.372c22.323,25.113,54.412,39.531,90.222,39.531
		c35.811,0,68.364-15.813,90.223-39.531h82.316L540.867,421.875z"/>
	<path fill="#B07400" d="M245.553,589.763c-24.184,0-43.251,19.533-43.251,43.251c0,24.184,19.533,43.251,43.251,43.251
		c23.719,0,43.251-19.532,43.251-43.251C288.804,609.296,269.272,589.763,245.553,589.763z M245.553,658.127
		c-13.952,0-25.113-11.161-25.113-25.113s11.161-25.113,25.113-25.113s25.113,11.161,25.113,25.113S258.574,658.127,245.553,658.127
		z"/>
	<path fill="#B07400" d="M421.812,589.763c-24.184,0-43.251,19.533-43.251,43.251c0,24.184,19.532,43.251,43.251,43.251
		c24.183,0,43.251-19.532,43.251-43.251C465.992,609.296,446.46,589.763,421.812,589.763z M421.812,658.127
		c-13.952,0-25.113-11.161-25.113-25.113S407.86,607.9,421.812,607.9s25.113,11.161,25.113,25.113S435.298,658.127,421.812,658.127z
		"/>
</g>
</svg>
