<?xml version="1.0" encoding="utf-8"?>
<!-- Generator: Adobe Illustrator 16.0.0, SVG Export Plug-In . SVG Version: 6.00 Build 0)  -->
<!DOCTYPE svg PUBLIC "-//W3C//DTD SVG 1.1//EN" "http://www.w3.org/Graphics/SVG/1.1/DTD/svg11.dtd">
<svg version="1.1" id="Layer_1" xmlns="http://www.w3.org/2000/svg" xmlns:xlink="http://www.w3.org/1999/xlink" x="0px" y="0px"
	 width="504px" height="500.151px" viewBox="97.999 29.922 504 500.151" enable-background="new 97.999 29.922 504 500.151"
	 xml:space="preserve">
<path fill="#B07400" d="M294.95,275.82c14.52,0,28.542-1.73,41.835-4.894c-4.078-4.699-7.711-9.672-10.801-14.902
	c-9.961,1.898-20.344,2.934-31.034,2.934c-10.396,0-21.156-1.086-32-3.219l-3.254-0.645l-58.828,36.477l18.02-51.582l-5.734-3.566
	c-32.699-20.344-51.453-50.793-51.453-83.547c0-58.496,59.773-106.09,133.25-106.09c53.625,0,99.922,25.363,121.04,61.797
	c5.902-0.934,11.938-1.547,18.098-1.785c-22.309-45.023-76.254-76.875-139.14-76.875c-82.772,0-150.109,55.156-150.109,122.95
	c0,36.719,19.487,70.711,53.727,94.152l-29.332,84.004l93.754-58.129c10.801,1.938,21.543,2.918,31.969,2.918L294.95,275.82z"/>
<path fill="#B07400" d="M333.1,212.91c0,18.02,6.629,34.777,17.949,48.746c19.194,23.688,51.93,39.336,89.035,39.336
	c10.987,0,21.952-1.434,32.647-4.262l79.935,35.039l-32.716-60.223c3.594-3.305,6.766-6.836,9.676-10.496
	c11.302-14.18,17.445-30.723,17.445-48.145c0-48.57-47.992-88.09-106.98-88.09c-58.991,0.008-106.989,39.52-106.989,88.094
	L333.1,212.91z M530.21,212.91c0,18.832-9.297,36.617-26.177,50.086l-5.523,4.406l15.845,29.16l-40.402-17.707l-2.93,0.852
	c-10.109,2.934-20.508,4.426-30.934,4.426c-49.688,0-90.121-31.949-90.121-71.223c0-39.273,40.434-71.223,90.121-71.223
	C489.777,141.69,530.209,173.64,530.21,212.91L530.21,212.91z"/>
<path fill="#B07400" d="M401.98,215.98c0,7.277-5.902,13.176-13.18,13.176s-13.177-5.898-13.177-13.176
	c0-7.277,5.898-13.176,13.177-13.176C396.077,202.804,401.98,208.702,401.98,215.98"/>
<path fill="#B07400" d="M453.26,215.98c0,7.277-5.898,13.176-13.176,13.176s-13.177-5.898-13.177-13.176
	c0-7.277,5.898-13.176,13.177-13.176C447.362,202.804,453.26,208.702,453.26,215.98"/>
<path fill="#B07400" d="M504.539,215.98c0,7.277-5.902,13.176-13.18,13.176s-13.176-5.898-13.176-13.176
	c0-7.277,5.898-13.176,13.176-13.176S504.539,208.702,504.539,215.98"/>
<path fill="#B07400" d="M171.21,457.49c20.418,0,37.672-13.508,43.34-32.07c1.281-4.188,1.977-8.637,1.977-13.242
	c0-16.273-8.605-30.496-21.488-38.496c-6.926-4.301-15.074-6.828-23.832-6.828c-25.026,0-45.315,20.289-45.315,45.316
	C125.899,437.201,146.188,457.49,171.21,457.49L171.21,457.49z M171.21,383.713c15.69,0,28.453,12.762,28.453,28.453
	s-12.763,28.453-28.453,28.453c-15.691,0-28.453-12.762-28.453-28.453S155.527,383.713,171.21,383.713z"/>
<path fill="#B07400" d="M153.64,491.3h35.141c21.38,0,38.781,17.396,38.781,38.773h16.867c0-30.676-24.961-55.638-55.641-55.638
	h-35.142c-30.688-0.004-55.647,24.962-55.647,55.638h16.862C114.862,508.69,132.26,491.3,153.64,491.3L153.64,491.3z"/>
<path fill="#B07400" d="M350,457.49c20.418,0,37.672-13.508,43.34-32.07c1.281-4.188,1.977-8.637,1.977-13.242
	c0-20.625-13.789-37.996-32.638-43.484c-4.027-1.172-8.277-1.832-12.68-1.832s-8.652,0.66-12.68,1.832
	c-18.849,5.488-32.637,22.863-32.637,43.484c0,4.609,0.699,9.055,1.977,13.242C312.327,443.982,329.581,457.49,350,457.49
	L350,457.49z M350,383.713c15.69,0,28.452,12.762,28.452,28.453S365.691,440.619,350,440.619c-15.691,0-28.453-12.762-28.453-28.453
	S334.309,383.713,350,383.713z"/>
<path fill="#B07400" d="M276.79,530.07h16.867c0-21.379,17.395-38.773,38.78-38.773h35.141c21.379,0,38.781,17.396,38.781,38.773
	h16.867c0-30.677-24.961-55.638-55.641-55.638h-35.142C301.746,474.429,276.789,499.394,276.79,530.07L276.79,530.07z"/>
<path fill="#B07400" d="M483.47,412.16c0,4.609,0.699,9.055,1.977,13.242c5.668,18.562,22.922,32.069,43.34,32.069
	c25.027,0,45.316-20.289,45.316-45.315c0-25.027-20.289-45.316-45.316-45.316c-8.754,0-16.902,2.527-23.832,6.828
	C492.079,381.664,483.47,395.887,483.47,412.16L483.47,412.16z M528.794,383.707c15.69,0,28.452,12.762,28.452,28.453
	c0,15.69-12.762,28.453-28.452,28.453c-15.691,0-28.453-12.763-28.453-28.453C500.337,396.469,513.103,383.707,528.794,383.707z"/>
<path fill="#B07400" d="M546.36,474.43h-35.137c-30.685,0-55.642,24.961-55.642,55.638h16.867c0-21.379,17.396-38.773,38.781-38.773
	h35.141c21.38,0,38.781,17.396,38.781,38.773h8.434l8.414-0.004C601.999,499.396,577.038,474.43,546.36,474.43L546.36,474.43z"/>
</svg>
