<?xml version="1.0" encoding="utf-8"?>
<!-- Generator: Adobe Illustrator 16.0.0, SVG Export Plug-In . SVG Version: 6.00 Build 0)  -->
<!DOCTYPE svg PUBLIC "-//W3C//DTD SVG 1.1//EN" "http://www.w3.org/Graphics/SVG/1.1/DTD/svg11.dtd">
<svg version="1.1" id="Layer_1" xmlns="http://www.w3.org/2000/svg" xmlns:xlink="http://www.w3.org/1999/xlink" x="0px" y="0px"
	 width="505.988px" height="586.792px" viewBox="40.46 125.747 505.988 586.792"
	 enable-background="new 40.46 125.747 505.988 586.792" xml:space="preserve">
<path fill="#B07400" d="M286.014,127.49L50.227,225.619c-6.046,2.791-9.767,8.371-9.767,15.347v218.579
	c0,139.054,113.476,252.994,252.994,252.994s252.994-113.475,252.994-252.994V240.966c0-6.511-4.186-12.557-9.767-15.347
	L299.035,127.49C294.385,125.165,290.664,125.165,286.014,127.49z M512.499,459.08c0,120.916-98.129,219.975-219.975,219.975
	c-121.847,0-219.51-98.128-219.51-219.975V252.127l219.51-91.618l219.975,91.618V459.08z M218.115,368.858v29.764
	c-15.813,3.256-28.369,17.673-28.369,34.88v72.55c0,19.997,16.277,36.274,36.275,36.274h133.938
	c19.998,0,36.275-16.277,36.275-36.274v-72.55c0-17.207-12.092-31.624-28.369-34.88v-29.764c0-40.925-33.484-74.41-74.41-74.41
	C252.53,294.448,218.115,327.933,218.115,368.858z M362.748,506.981c0,1.86-1.395,3.256-3.255,3.256H226.021
	c-1.86,0-3.256-1.396-3.256-3.256v-72.55c0-1.86,1.396-3.255,3.256-3.255h133.938c1.86,0,3.256,1.395,3.256,3.255v72.55H362.748z
	 M334.38,368.858v28.369h-83.246v-28.369c0-23.253,18.603-41.391,41.391-41.391S334.38,346.535,334.38,368.858z"/>
</svg>
