<?xml version="1.0" encoding="utf-8"?>
<!-- Generator: Adobe Illustrator 16.0.0, SVG Export Plug-In . SVG Version: 6.00 Build 0)  -->
<!DOCTYPE svg PUBLIC "-//W3C//DTD SVG 1.1//EN" "http://www.w3.org/Graphics/SVG/1.1/DTD/svg11.dtd">
<svg version="1.1" id="Layer_1" xmlns="http://www.w3.org/2000/svg" xmlns:xlink="http://www.w3.org/1999/xlink" x="0px" y="0px"
	 width="524.992px" height="490px" viewBox="87.5 35 524.992 490" enable-background="new 87.5 35 524.992 490"
	 xml:space="preserve">
<path fill="#B07400" d="M568.75,35h-437.5c-11.599,0.016-22.72,4.629-30.922,12.828C92.129,56.031,87.516,67.152,87.5,78.75v315
	c0,6.961,2.766,13.641,7.688,18.563c4.922,4.921,11.602,7.688,18.562,7.688h162.86l-11.664,35h-98.699
	c-4.832,0-8.75,3.918-8.75,8.75v52.5c0,2.32,0.922,4.547,2.563,6.188s3.867,2.563,6.188,2.563h367.5c2.32,0,4.547-0.922,6.188-2.563
	s2.563-3.867,2.563-6.188v-52.5c0-2.32-0.922-4.548-2.563-6.188c-1.641-1.641-3.867-2.563-6.188-2.563h-98.699l-11.664-35h162.86
	c6.961,0,13.641-2.766,18.562-7.688c4.921-4.923,7.688-11.603,7.688-18.563v-315c-0.016-11.598-4.629-22.719-12.828-30.922
	c-8.203-8.199-19.323-12.812-30.922-12.828H568.75z M525,472.5v35H175v-35H525z M283.39,455l11.664-35h109.88l11.664,35H283.39z
	 M595,393.75c0,2.32-0.922,4.547-2.563,6.188s-3.867,2.563-6.188,2.563h-472.5c-4.832,0-8.75-3.918-8.75-8.75V350h490V393.75z
	 M595,332.5H105V78.75c0-6.961,2.766-13.641,7.688-18.562s11.602-7.688,18.562-7.688h437.5c6.961,0,13.641,2.766,18.562,7.688
	c4.922,4.922,7.688,11.602,7.688,18.562L595,332.5z"/>
<path fill="#B07400" d="M498.75,385h17.5c4.831,0,8.75-3.918,8.75-8.75s-3.919-8.75-8.75-8.75h-17.5c-4.832,0-8.75,3.918-8.75,8.75
	S493.918,385,498.75,385z"/>
<path fill="#B07400" d="M551.25,385h17.5c4.831,0,8.75-3.918,8.75-8.75s-3.919-8.75-8.75-8.75h-17.5c-4.832,0-8.75,3.918-8.75,8.75
	S546.418,385,551.25,385z"/>
<path fill="#B07400" d="M551.25,87.5h-157.5c-4.832,0-8.75,3.918-8.75,8.75s3.918,8.75,8.75,8.75h157.5
	c4.831,0,8.75-3.918,8.75-8.75S556.081,87.5,551.25,87.5z"/>
<path fill="#B07400" d="M393.75,140h140c4.831,0,8.75-3.918,8.75-8.75s-3.919-8.75-8.75-8.75h-140c-4.832,0-8.75,3.918-8.75,8.75
	S388.918,140,393.75,140z"/>
<path fill="#B07400" d="M551.25,157.5h-157.5c-4.832,0-8.75,3.918-8.75,8.75v122.5c0,2.32,0.922,4.547,2.563,6.188
	s3.867,2.563,6.188,2.563h157.5c2.32,0,4.547-0.922,6.188-2.563S560,291.07,560,288.75v-122.5c0-2.32-0.922-4.547-2.563-6.188
	S553.571,157.5,551.25,157.5z M542.5,280h-140V175h140V280z"/>
<path fill="#B07400" d="M440.06,259.94c3.078,3.078,7.953,3.426,11.438,0.813l70-52.5c3.867-2.898,4.648-8.383,1.75-12.25
	c-2.897-3.867-8.383-4.648-12.25-1.75l-63.926,47.949l-12.137-12.137c-3.434-3.316-8.891-3.266-12.266,0.109
	c-3.376,3.375-3.426,8.832-0.109,12.266L440.06,259.94z"/>
<path fill="#B07400" d="M366.199,117.9c-1.594-2.582-4.414-4.148-7.445-4.148h-35c-2.656,0-5.172,1.207-6.832,3.281l-32.366,40.469
	h-30.801l42.352-65.238c1.742-2.695,1.875-6.125,0.344-8.941c-1.535-2.82-4.488-4.574-7.695-4.57h-35
	c-2.664,0-5.184,1.215-6.844,3.297l-60.031,75.453h-11.875c-18.508,0-52.5,13.293-52.5,35s33.992,35,52.5,35h11.875l60.035,75.453
	h-0.004c1.66,2.082,4.18,3.297,6.844,3.297h35c3.207,0,6.156-1.754,7.688-4.57c1.531-2.82,1.398-6.25-0.348-8.941l-42.34-65.238
	h30.801l32.375,40.469c1.66,2.074,4.168,3.281,6.824,3.281h35c3.039,0.016,5.871-1.547,7.477-4.129s1.758-5.813,0.398-8.531
	l-33.094-66.09l33.094-66.09C367.974,123.693,367.81,120.471,366.199,117.9L366.199,117.9z M315.923,188.591
	c-1.23,2.461-1.23,5.359,0,7.82l28.676,57.34h-16.625l-32.375-40.469c-1.664-2.078-4.184-3.285-6.844-3.281h-51.117
	c-3.207,0-6.156,1.754-7.688,4.57c-1.531,2.82-1.398,6.25,0.348,8.941l42.349,65.238h-14.673l-60.022-75.453h-0.004
	c-1.66-2.082-4.176-3.297-6.84-3.297h-16.102c-15.453,0-35-10.852-35-17.5s19.547-17.5,35-17.5h16.102
	c2.664,0,5.18-1.215,6.84-3.297l60.027-75.453h14.672l-42.353,65.238h0.004c-1.746,2.691-1.879,6.121-0.348,8.941
	c1.531,2.816,4.48,4.57,7.688,4.57h51.117c2.656,0,5.172-1.207,6.832-3.281l32.367-40.469h16.625L315.923,188.591z"/>
<path fill="#B07400" d="M131.25,87.5H140c4.832,0,8.75-3.918,8.75-8.75S144.832,70,140,70h-8.75c-4.832,0-8.75,3.918-8.75,8.75
	S126.418,87.5,131.25,87.5z"/>
<path fill="#B07400" d="M175,87.5h8.75c4.832,0,8.75-3.918,8.75-8.75S188.582,70,183.75,70H175c-4.832,0-8.75,3.918-8.75,8.75
	S170.168,87.5,175,87.5z"/>
</svg>
