<?xml version="1.0" encoding="utf-8"?>
<!-- Generator: Adobe Illustrator 26.0.1, SVG Export Plug-In . SVG Version: 6.00 Build 0)  -->
<svg version="1.1" id="Layer_1" xmlns="http://www.w3.org/2000/svg" xmlns:xlink="http://www.w3.org/1999/xlink" x="0px" y="0px"
	 viewBox="0 0 64 64" style="enable-background:new 0 0 64 64;" xml:space="preserve">
<style type="text/css">
	.st0{fill:#1978FC;}
</style>
<g transform="translate(0,-280.06669)">
	<path class="st0" d="M25.5,288.4c-9.7,0-17.6,7.9-17.6,17.6c0,9.7,7.9,17.6,17.6,17.6c4.3,0,8.2-1.5,11.3-4.1l2,2
		c0,0.1-0.1,0.2-0.1,0.3c-0.7,1.7-0.4,3.8,1.1,5.3l8,8l0,0c1,1.1,2.4,1.6,3.7,1.6c1.3-0.1,2.4-0.6,3.2-1.5s1.4-2,1.5-3.2
		c0.1-1.3-0.5-2.6-1.6-3.7l0,0l-8-8c-0.9-0.9-2.1-1.5-3.4-1.5c-0.8,0-1.4,0.2-2.1,0.5l-2-2c2.5-3.1,4.1-7,4.1-11.3
		C43.1,296.3,35.2,288.4,25.5,288.4z"/>
</g>
</svg>
