<?xml version="1.0" encoding="utf-8"?>
<!-- Generator: Adobe Illustrator 26.0.1, SVG Export Plug-In . SVG Version: 6.00 Build 0)  -->
<svg version="1.1" id="Layer_1" xmlns="http://www.w3.org/2000/svg" xmlns:xlink="http://www.w3.org/1999/xlink" x="0px" y="0px"
	 viewBox="0 0 128 128" style="enable-background:new 0 0 128 128;" xml:space="preserve">
<style type="text/css">
	.st0{fill:#FFFFFF;}
	.st1{fill-rule:evenodd;clip-rule:evenodd;fill:#FFFFFF;}
</style>
<g>
	<path class="st0" d="M63.8,2.1c33,0,59.8,26.8,59.8,59.8c0,9.8-2.4,19.1-6.6,27.3l-4.5-2.5c3.5-6.8,5.5-14.4,5.8-22.2H97.7
		c-0.1,4.6-0.5,9-1.2,13.3l-4.8-2.7c0.5-3.4,0.7-7,0.8-10.6H66.3v25.6c5.1,0.2,10.1,1.1,15,2.4l1.1,5.7c-5.2-1.7-10.6-2.8-16.1-3
		v21.1c7.4-1.3,13.1-7.8,16.9-14.3l1.4,7.2c-1.2,1.6-2.5,3.2-3.9,4.6c1.5-0.5,3-1.1,4.5-1.7l1,5.1c-6.9,2.8-14.5,4.4-22.4,4.4
		C30.8,121.7,4,94.9,4,61.9S30.8,2.1,63.8,2.1L63.8,2.1z M9.2,59.4h20.6c0.3-11.9,2.5-22.8,6.1-31.9c-3.3-1.5-6.5-3.3-9.6-5.4
		C16,31.8,9.9,45.2,9.2,59.4z M35,59.4h26.2V33.7c-7.1-0.3-14-1.8-20.6-4.3C37.3,37.9,35.2,48.2,35,59.4z M66.3,59.4h26.2
		c-0.3-11.2-2.4-21.4-5.7-29.9c-6.6,2.5-13.5,4-20.6,4.3L66.3,59.4L66.3,59.4z M97.7,59.4h20.6c-0.6-14.2-6.8-27.5-17.2-37.2
		c-3.1,2-6.3,3.8-9.5,5.4C95.2,36.5,97.5,47.5,97.7,59.4z M61.2,64.5H35c0.3,11.2,2.4,21.4,5.7,29.9c6.6-2.5,13.5-4,20.6-4.3
		L61.2,64.5L61.2,64.5z M29.8,64.5H9.2C9.9,78.7,16,92,26.4,101.7c3.1-2,6.3-3.8,9.5-5.4C32.3,87.3,30.1,76.4,29.8,64.5z M66.3,7.5
		v21.1c6.3-0.3,12.5-1.6,18.4-3.8C81.2,17.4,74.9,9,66.3,7.5z M61.2,116.3v-21c-6.3,0.3-12.5,1.6-18.4,3.8
		C46.4,106.4,52.6,114.9,61.2,116.3L61.2,116.3z M61.2,28.6V7.5C52.6,9,46.4,17.4,42.8,24.8C48.7,27,54.9,28.3,61.2,28.6z M80.8,10
		c3.7,3.7,6.5,8.1,8.8,12.8c2.6-1.2,5.1-2.6,7.5-4.1C92.2,14.9,86.7,11.9,80.8,10z M46.8,113.9c-3.7-3.7-6.5-8.1-8.8-12.8
		c-2.6,1.2-5.1,2.6-7.5,4.1C35.3,109,40.8,111.9,46.8,113.9L46.8,113.9z M38,22.8c2.3-4.6,5.2-9.1,8.8-12.8
		c-6,1.9-11.5,4.9-16.3,8.7C32.9,20.2,35.4,21.5,38,22.8z"/>
	<path class="st1" d="M85.2,77.2c-0.8-0.4-1.8,0.2-1.6,1.1l8.3,42.1c0.2,0.8,1,1.1,1.7,0.6l9-6.6l8,11c0.4,0.5,1,0.6,1.5,0.2
		l9.3-6.8c0.5-0.4,0.6-1,0.2-1.5l-8-11l9-6.6c0.6-0.5,0.6-1.4-0.1-1.8L85.2,77.2L85.2,77.2z"/>
</g>
</svg>
