<?xml version="1.0" encoding="utf-8"?>
<!-- Generator: Adobe Illustrator 16.0.0, SVG Export Plug-In . SVG Version: 6.00 Build 0)  -->
<!DOCTYPE svg PUBLIC "-//W3C//DTD SVG 1.1//EN" "http://www.w3.org/Graphics/SVG/1.1/DTD/svg11.dtd">
<svg version="1.1" id="Layer_1" xmlns="http://www.w3.org/2000/svg" xmlns:xlink="http://www.w3.org/1999/xlink" x="0px" y="0px"
	 width="542.51px" height="542.515px" viewBox="78.74 8.745 542.51 542.515" enable-background="new 78.74 8.745 542.51 542.515"
	 xml:space="preserve">
<path fill="#B07400" d="M172.62,145.51l37.625-39.996c5.418-5.906,8.426-13.629,8.426-21.648c0-8.016-3.008-15.738-8.426-21.645
	c-5.535-5.711-13.148-8.934-21.103-8.934s-15.565,3.223-21.102,8.934l-1.793,1.922l-1.82-1.926v0.004
	c-5.438-5.883-13.086-9.231-21.099-9.235c-8.012,0.004-15.66,3.352-21.102,9.235c-5.422,5.906-8.43,13.629-8.43,21.645
	c0,8.02,3.008,15.742,8.43,21.648l37.625,39.996c1.652,1.758,3.957,2.754,6.367,2.754c2.414,0,4.719-0.996,6.371-2.754H172.62z
	 M134.995,93.518c-2.375-2.652-3.688-6.09-3.688-9.652c0-3.559,1.313-6.996,3.688-9.648c2.145-2.355,5.18-3.707,8.363-3.73
	c3.184,0.02,6.215,1.371,8.355,3.73l8.191,8.699v-0.004c3.52,3.512,9.219,3.512,12.737,0l8.191-8.699v0.004
	c2.172-2.301,5.195-3.605,8.359-3.605s6.191,1.305,8.363,3.605c2.375,2.652,3.688,6.09,3.688,9.648c0,3.563-1.313,7-3.688,9.652
	l-31.309,33.223L134.995,93.518z"/>
<path fill="#B07400" d="M525.88,413.88l-11.48,23.267l-25.68,3.734v0.004c-3.297,0.477-6.035,2.785-7.066,5.957
	c-1.027,3.168-0.168,6.644,2.219,8.969l18.578,18.112l-4.375,25.566h-0.004c-0.566,3.285,0.781,6.605,3.477,8.566
	c2.695,1.957,6.27,2.219,9.223,0.664l22.983-12.055l22.97,12.073c1.258,0.652,2.652,0.996,4.07,0.996
	c2.578,0,5.027-1.137,6.691-3.109c1.664-1.969,2.371-4.574,1.934-7.117l-4.375-25.565l18.578-18.113
	c2.387-2.324,3.246-5.805,2.214-8.973c-1.026-3.168-3.766-5.477-7.063-5.957l-25.68-3.734l-11.465-23.285
	c-1.633-2.801-4.633-4.523-7.875-4.523S527.512,411.079,525.88,413.88L525.88,413.88z M546.005,453.806l12.688,1.848l-9.188,8.977
	c-2.063,2.008-3.004,4.906-2.52,7.742l2.172,12.638l-11.375-5.957h-0.004c-2.547-1.34-5.59-1.34-8.137,0l-11.375,5.957l2.172-12.638
	c0.508-2.824-0.402-5.715-2.434-7.742l-9.18-8.941l12.688-1.848c2.852-0.414,5.316-2.203,6.59-4.785l5.652-11.551l5.672,11.496
	c1.262,2.594,3.723,4.398,6.578,4.824L546.005,453.806z"/>
<path fill="#B07400" d="M498.75,56.875h17.5v17.5h-17.5V56.875z"/>
<path fill="#B07400" d="M551.25,56.875h17.5v17.5h-17.5V56.875z"/>
<path fill="#B07400" d="M533.75,126.88c-6.961,0-13.642-2.766-18.563-7.688S507.5,107.59,507.5,100.63H490
	c0,15.629,8.34,30.074,21.875,37.887c13.535,7.816,30.215,7.816,43.75,0c13.535-7.813,21.875-22.258,21.875-37.887H560
	c0,6.961-2.766,13.641-7.688,18.562S540.711,126.88,533.75,126.88L533.75,126.88z"/>
<path fill="#B07400" d="M621.25,96.25c-0.027-30.203-15.625-58.254-41.267-74.211c-25.641-15.961-57.699-17.566-84.809-4.254
	C468.07,31.101,449.74,57.453,446.695,87.5h-193.38c-2.219-22.086-12.746-42.5-29.448-57.113
	c-16.707-14.613-38.345-22.332-60.523-21.594c-22.184,0.738-43.258,9.879-58.953,25.574C88.691,50.058,79.546,71.129,78.804,93.312
	c-0.742,22.184,6.973,43.82,21.582,60.531c14.609,16.707,35.023,27.238,57.109,29.461v193.379
	c-22.086,2.219-42.5,12.746-57.113,29.449c-14.613,16.707-22.332,38.345-21.594,60.523c0.738,22.184,9.879,43.258,25.573,58.953
	c15.691,15.699,36.763,24.844,58.945,25.586c22.185,0.742,43.82-6.973,60.531-21.582c16.707-14.609,27.238-35.023,29.461-57.109
	h193.38c2.219,22.086,12.746,42.5,29.449,57.113c16.707,14.613,38.344,22.332,60.522,21.594
	c22.185-0.738,43.258-9.879,58.953-25.574c15.699-15.69,24.844-36.762,25.586-58.944c0.742-22.185-6.973-43.82-21.582-60.531
	c-14.609-16.707-35.022-27.237-57.109-29.461V183.32c21.574-2.191,41.57-12.309,56.117-28.395
	c14.547-16.082,22.609-36.988,22.633-58.676L621.25,96.25z M96.25,96.25c0-18.566,7.375-36.371,20.504-49.496
	c13.125-13.129,30.93-20.504,49.496-20.504c18.565,0,36.371,7.375,49.496,20.504c13.129,13.125,20.504,30.93,20.504,49.496
	s-7.375,36.371-20.504,49.496c-13.125,13.129-30.931,20.504-49.496,20.504c-18.56-0.02-36.353-7.402-49.474-20.527
	C103.652,132.602,96.269,114.809,96.25,96.25z M166.25,533.75c-18.566,0-36.371-7.375-49.496-20.504
	c-13.129-13.125-20.504-30.93-20.504-49.496s7.375-36.371,20.504-49.496c13.125-13.129,30.93-20.504,49.496-20.504
	c18.565,0,36.371,7.375,49.496,20.504c13.129,13.125,20.504,30.93,20.504,49.496c-0.02,18.559-7.402,36.352-20.527,49.473
	C202.602,526.348,184.809,533.73,166.25,533.75L166.25,533.75z M253.305,455c-2.043-20.07-10.949-38.82-25.215-53.09
	c-14.271-14.266-33.021-23.172-53.09-25.215v-193.38c20.074-2.043,38.828-10.953,53.094-25.223
	c14.266-14.27,23.172-33.023,25.211-53.098h193.38c2.043,20.074,10.953,38.828,25.223,53.094
	c14.271,14.266,33.023,23.172,53.099,25.211V376.68c-20.074,2.043-38.828,10.952-53.095,25.223
	C457.646,416.172,448.74,434.925,446.7,455H253.305z M603.755,463.75c0,18.566-7.375,36.371-20.505,49.496
	c-13.125,13.129-30.93,20.504-49.495,20.504c-18.566,0-36.371-7.375-49.496-20.504c-13.129-13.125-20.504-30.93-20.504-49.496
	s7.375-36.371,20.504-49.496c13.125-13.129,30.93-20.504,49.496-20.504c18.559,0.02,36.352,7.402,49.473,20.527
	C596.353,427.398,603.736,445.191,603.755,463.75L603.755,463.75z M533.755,166.25c-18.566,0-36.371-7.375-49.496-20.504
	c-13.129-13.125-20.504-30.93-20.504-49.496s7.375-36.371,20.504-49.496c13.125-13.129,30.93-20.504,49.496-20.504
	c18.565,0,36.37,7.375,49.495,20.504c13.13,13.125,20.505,30.93,20.505,49.496c-0.02,18.559-7.402,36.352-20.527,49.473
	C570.107,158.848,552.314,166.231,533.755,166.25z"/>
<path fill="#B07400" d="M159.69,437.5h13.125c5.414-0.523,10.263,3.352,10.938,8.75h17.5c-0.27-6.855-3.125-13.359-7.996-18.191
	s-11.396-7.641-18.254-7.855v-8.953h-17.5v8.953c-6.859,0.215-13.383,3.023-18.254,7.855s-7.727,11.336-7.996,18.191
	c0.309,7.246,3.473,14.074,8.805,18.992c5.328,4.918,12.387,7.527,19.633,7.258h13.125c2.656-0.598,5.445,0.043,7.57,1.746
	c2.129,1.703,3.367,4.281,3.367,7.004s-1.238,5.301-3.367,7.004c-2.125,1.703-4.914,2.344-7.57,1.746h-13.125
	c-5.414,0.523-10.262-3.352-10.938-8.75h-17.5c0.27,6.855,3.125,13.358,7.996,18.19s11.396,7.641,18.254,7.855v8.953h17.5v-8.953
	c6.859-0.215,13.384-3.022,18.255-7.855c4.871-4.832,7.727-11.336,7.996-18.19c-0.309-7.246-3.474-14.074-8.806-18.992
	c-5.327-4.918-12.387-7.527-19.633-7.258H159.69c-2.656,0.598-5.445-0.043-7.57-1.746c-2.129-1.703-3.367-4.281-3.367-7.004
	s1.238-5.301,3.367-7.004C154.244,437.543,157.033,436.902,159.69,437.5L159.69,437.5z"/>
<path fill="#B07400" d="M481.25,283.27v-24.047c-0.016-5.316-2.137-10.41-5.895-14.168s-8.852-5.879-14.168-5.895
	c-1.161,0.035-2.215-0.668-2.625-1.75c-2.052-6.52-4.688-12.84-7.875-18.883c-0.504-1.078-0.262-2.359,0.602-3.176l0.191-0.191
	h0.004c3.668-3.789,5.702-8.863,5.672-14.133c-0.031-5.273-2.133-10.32-5.848-14.062l-17-17h-0.004
	c-3.731-3.723-8.777-5.832-14.048-5.867c-5.273-0.035-10.348,2.008-14.125,5.684l-0.211,0.203v-0.004
	c-0.82,0.863-2.098,1.105-3.176,0.605c-6.043-3.176-12.358-5.797-18.875-7.832c-1.078-0.418-1.781-1.469-1.75-2.625
	c0.004-5.332-2.113-10.449-5.883-14.227c-3.77-3.773-8.883-5.898-14.215-5.906h-24.047c-5.359,0.016-10.488,2.168-14.254,5.98
	c-3.77,3.813-5.859,8.969-5.809,14.328c0.039,1.023-0.57,1.957-1.523,2.336c-6.605,2.035-13.012,4.668-19.137,7.875
	c-1.078,0.504-2.355,0.262-3.176-0.602l-0.191-0.191v-0.004c-3.785-3.668-8.859-5.707-14.133-5.672
	c-5.273,0.031-10.32,2.133-14.06,5.848l-17,17h-0.004c-3.711,3.738-5.809,8.785-5.844,14.051c-0.035,5.27,2,10.34,5.66,14.125
	l0.203,0.211c0.863,0.82,1.105,2.098,0.602,3.176c-3.176,6.043-5.797,12.359-7.828,18.875c-0.418,1.078-1.469,1.777-2.625,1.75
	c-5.34,0.004-10.457,2.129-14.227,5.906c-3.773,3.777-5.887,8.898-5.883,14.234v24.047c0.016,5.316,2.137,10.41,5.895,14.168
	s8.852,5.879,14.168,5.895c1.16-0.035,2.215,0.668,2.625,1.75c2.051,6.52,4.688,12.84,7.875,18.883
	c0.504,1.078,0.262,2.359-0.602,3.176l-0.191,0.191h-0.004c-3.668,3.789-5.703,8.863-5.672,14.133
	c0.031,5.273,2.133,10.32,5.848,14.062l17,17h0.004c3.734,3.711,8.781,5.813,14.047,5.844c5.27,0.035,10.34-1.996,14.125-5.66
	l0.211-0.203v0.004c0.816-0.867,2.098-1.113,3.176-0.605c6.039,3.191,12.358,5.828,18.875,7.875c1.078,0.418,1.781,1.469,1.75,2.625
	c0.008,5.328,2.129,10.434,5.898,14.199c3.766,3.766,8.875,5.883,14.199,5.891h24.047c5.316-0.016,10.41-2.137,14.168-5.895
	s5.879-8.852,5.895-14.168c-0.035-1.16,0.668-2.215,1.75-2.625c6.52-2.051,12.84-4.688,18.883-7.875
	c1.078-0.5,2.355-0.258,3.176,0.602l0.191,0.191v0.004c3.781,3.68,8.859,5.727,14.133,5.695c5.277-0.035,10.328-2.145,14.063-5.871
	l17-17v-0.004c3.711-3.734,5.813-8.782,5.844-14.047c0.035-5.27-1.996-10.34-5.66-14.125l-0.203-0.211h0.004
	c-0.867-0.82-1.109-2.098-0.605-3.176c3.219-6.121,5.871-12.523,7.918-19.129c0.438-1.039,1.508-1.66,2.625-1.531
	c5.313-0.02,10.401-2.141,14.16-5.898c3.754-3.762,5.871-8.852,5.887-14.164L481.25,283.27z M463.75,283.27
	c-0.016,0.719-0.324,1.398-0.855,1.883s-1.239,0.73-1.953,0.68c-4.242-0.043-8.391,1.277-11.824,3.773s-5.973,6.027-7.242,10.078
	c-1.73,5.582-3.969,10.988-6.684,16.16c-1.988,3.781-2.719,8.098-2.09,12.324s2.586,8.141,5.59,11.18l0.203,0.211h-0.004
	c1,1,1,2.621,0,3.621l-17,17c-0.48,0.484-1.133,0.754-1.813,0.754s-1.332-0.27-1.813-0.754l-0.203-0.191h0.004
	c-3.035-3.012-6.949-4.977-11.176-5.613c-4.227-0.641-8.547,0.086-12.337,2.07c-5.109,2.684-10.448,4.902-15.961,6.625
	c-4.105,1.297-7.684,3.879-10.215,7.363c-2.531,3.488-3.875,7.691-3.836,12c-0.004,1.414-1.148,2.559-2.563,2.563h-24.004
	c-1.414-0.004-2.559-1.148-2.563-2.563c0.035-4.309-1.309-8.516-3.84-12s-6.113-6.066-10.223-7.363
	c-5.504-1.727-10.844-3.941-15.949-6.625c-2.867-1.512-6.063-2.301-9.301-2.301c-5.316,0.012-10.414,2.109-14.203,5.836
	l-0.211,0.203v-0.004c-1,0.996-2.617,0.996-3.621,0l-17-17c-1-1-1-2.621,0-3.621l0.191-0.203c3.012-3.035,4.977-6.949,5.613-11.176
	c0.641-4.227-0.086-8.547-2.07-12.336c-2.684-5.109-4.902-10.449-6.625-15.957c-1.297-4.109-3.879-7.688-7.363-10.219
	c-3.488-2.527-7.691-3.875-12-3.836c-1.414-0.004-2.559-1.148-2.563-2.563v-24.047c0.004-1.414,1.148-2.559,2.563-2.563
	c4.309,0.035,8.516-1.309,12-3.84s6.066-6.113,7.363-10.223c1.727-5.504,3.941-10.844,6.625-15.949
	c1.988-3.781,2.72-8.098,2.09-12.324c-0.629-4.226-2.586-8.14-5.59-11.18l-0.203-0.211h0.004c-1-1-1-2.621,0-3.621l17-17
	c1.004-0.996,2.621-0.996,3.621,0l0.203,0.191c3.035,3.012,6.949,4.977,11.177,5.613c4.227,0.641,8.547-0.086,12.336-2.07
	c5.16-2.711,10.559-4.949,16.125-6.676c4.081-1.293,7.636-3.871,10.133-7.352c2.496-3.477,3.801-7.672,3.719-11.949
	c0-1.418,1.145-2.57,2.563-2.574h24.047c1.414,0.004,2.559,1.148,2.563,2.563c-0.035,4.309,1.309,8.516,3.84,12
	s6.113,6.066,10.223,7.363c5.504,1.727,10.844,3.941,15.949,6.625c3.781,1.988,8.098,2.719,12.324,2.09s8.141-2.586,11.18-5.59
	l0.211-0.203v0.004c0.477-0.484,1.129-0.754,1.809-0.754s1.332,0.27,1.813,0.754l17,17c1,1,1,2.621,0,3.621l-0.191,0.203
	c-3.012,3.035-4.977,6.949-5.613,11.176c-0.641,4.227,0.086,8.547,2.07,12.336c2.684,5.109,4.902,10.449,6.625,15.957
	c1.297,4.109,3.879,7.688,7.363,10.219c3.488,2.527,7.691,3.875,12,3.836c1.414,0.004,2.559,1.148,2.563,2.563V283.27z"/>
<path fill="#B07400" d="M350,183.75c-23.207,0-45.461,9.219-61.871,25.629S262.5,248.043,262.5,271.25s9.219,45.461,25.629,61.871
	S326.793,358.75,350,358.75c23.206,0,45.461-9.219,61.87-25.629c16.41-16.41,25.63-38.664,25.63-61.871
	c-0.027-23.199-9.254-45.441-25.656-61.844C395.442,193.003,373.198,183.777,350,183.75z M376.25,336.1
	c-16.824,6.871-35.677,6.871-52.5,0v-29.848c0-4.832,3.918-8.75,8.75-8.75h35c2.32,0,4.547,0.922,6.188,2.563
	c1.64,1.641,2.563,3.867,2.563,6.188V336.1z M336.875,258.127c0-5.309,3.198-10.094,8.102-12.125
	c4.905-2.031,10.551-0.91,14.305,2.844s4.875,9.398,2.844,14.305c-2.031,4.902-6.816,8.102-12.125,8.102
	C342.75,271.252,336.875,265.377,336.875,258.127L336.875,258.127z M393.75,325.807v-19.555c-0.016-6.348-2.34-12.477-6.536-17.238
	c-4.195-4.766-9.98-7.844-16.276-8.66c6.012-5.633,9.5-13.449,9.68-21.684c0.18-8.238-2.969-16.199-8.727-22.086
	c-5.762-5.887-13.652-9.207-21.892-9.207c-8.238,0-16.129,3.32-21.891,9.207c-5.758,5.887-8.906,13.848-8.727,22.086
	c0.18,8.234,3.668,16.051,9.68,21.684c-6.297,0.816-12.082,3.894-16.277,8.66c-4.195,4.762-6.519,10.891-6.534,17.238v19.555
	c-15.191-12.16-24.634-30.094-26.063-49.5c-1.426-19.406,5.285-38.531,18.531-52.789c13.241-14.254,31.823-22.352,51.28-22.352
	s38.039,8.098,51.281,22.352c13.246,14.258,19.957,33.383,18.531,52.789C418.382,295.713,408.941,313.647,393.75,325.807
	L393.75,325.807z"/>
</svg>
