<?xml version="1.0" encoding="utf-8"?>
<!-- Generator: Adobe Illustrator 16.0.0, SVG Export Plug-In . SVG Version: 6.00 Build 0)  -->
<!DOCTYPE svg PUBLIC "-//W3C//DTD SVG 1.1//EN" "http://www.w3.org/Graphics/SVG/1.1/DTD/svg11.dtd">
<svg version="1.1" id="Layer_1" xmlns="http://www.w3.org/2000/svg" xmlns:xlink="http://www.w3.org/1999/xlink" x="0px" y="0px"
	 width="525px" height="525px" viewBox="87.5 17.5 525 525" enable-background="new 87.5 17.5 525 525" xml:space="preserve">
<path fill="#B07400" d="M465.43,125.36c-16.039-15.582-35.082-27.738-55.965-35.73c-20.884-7.996-43.177-11.66-65.521-10.773
	c-88.336,3.141-160.199,79.367-160.199,169.92v6.52c1.793,58.5,23.387,114.661,61.25,159.291v31.659
	c0.035,2.891,1.523,5.566,3.953,7.125c-3.32,5.824-4.605,12.591-3.645,19.228c0.965,6.633,4.113,12.758,8.953,17.397
	c-5.855,5.691-9.188,13.488-9.262,21.652c-0.07,8.164,3.125,16.021,8.879,21.813c5.75,5.793,13.582,9.047,21.746,9.035h148.749
	c8.164,0.012,15.996-3.242,21.746-9.035c5.754-5.793,8.949-13.648,8.879-21.813c-0.074-8.164-3.406-15.961-9.262-21.652
	c4.84-4.641,7.992-10.766,8.953-17.397c0.961-6.637-0.324-13.402-3.645-19.228c2.43-1.559,3.918-4.234,3.953-7.125v-31.659
	c37.863-44.63,59.457-100.791,61.25-159.291V245c0.078-22.344-4.387-44.473-13.121-65.039s-21.562-39.145-37.694-54.602
	L465.43,125.36z M424.37,525H275.621c-7.25,0-13.125-5.875-13.125-13.125s5.875-13.125,13.125-13.125H424.37
	c7.25,0,13.125,5.875,13.125,13.125S431.62,525,424.37,525z M424.37,481.25H275.621c-7.25,0-13.125-5.875-13.125-13.125
	S268.371,455,275.621,455H424.37c7.25,0,13.125,5.875,13.125,13.125S431.62,481.25,424.37,481.25z M498.745,255.3
	c-1.992,55.277-22.793,108.22-58.969,150.061c-1.469,1.609-2.281,3.711-2.281,5.891v26.25h-175v-26.25
	c0-2.18-0.813-4.281-2.28-5.891c-36.177-41.845-56.978-94.785-58.97-150.061v-6.52c0-81.242,64.293-149.62,143.32-152.43
	c40.367-1.477,79.598,13.527,108.68,41.566c29.082,28.035,45.508,66.691,45.508,107.09L498.745,255.3z"/>
<path fill="#B07400" d="M367.5,253.75h-26.25c-12.505,0-24.06-6.672-30.313-17.5c-6.25-10.828-6.25-24.172,0-35
	c6.254-10.828,17.809-17.5,30.313-17.5h70v-17.5h-52.5v-35h-17.5v35c-18.759,0-36.09,10.008-45.465,26.25
	c-9.379,16.242-9.379,36.258,0,52.5c9.375,16.242,26.706,26.25,45.465,26.25h26.25c12.504,0,24.059,6.672,30.312,17.5
	c6.25,10.828,6.25,24.172,0,35c-6.254,10.828-17.809,17.5-30.312,17.5h-70v17.5h43.75v35h17.5v-35h8.75
	c18.758,0,36.09-10.008,45.465-26.25c9.379-16.242,9.379-36.258,0-52.5C403.59,263.758,386.258,253.75,367.5,253.75z"/>
<path fill="#B07400" d="M603.75,17.5h-70V35H595v61.25h17.5v-70c0-2.32-0.922-4.547-2.563-6.188S606.071,17.5,603.75,17.5z"/>
<path fill="#B07400" d="M595,525h-61.25v17.5h70c2.32,0,4.547-0.922,6.188-2.563s2.563-3.867,2.563-6.188v-70H595V525z"/>
<path fill="#B07400" d="M96.25,542.5h70V525H105v-61.25H87.5v70c0,2.32,0.922,4.547,2.563,6.188S93.93,542.5,96.25,542.5z"/>
<path fill="#B07400" d="M105,35h61.25V17.5h-70c-2.32,0-4.547,0.922-6.188,2.563S87.5,23.93,87.5,26.25v70H105V35z"/>
<path fill="#B07400" d="M122.5,52.5H140V70h-17.5V52.5z"/>
<path fill="#B07400" d="M148.75,70h17.5v17.5h-17.5V70z"/>
<path fill="#B07400" d="M175,87.5h17.5V105H175V87.5z"/>
<path fill="#B07400" d="M201.25,105h17.5v17.5h-17.5V105z"/>
<path fill="#B07400" d="M560,52.5h17.5V70H560V52.5z"/>
<path fill="#B07400" d="M533.75,70h17.5v17.5h-17.5V70z"/>
<path fill="#B07400" d="M507.5,87.5H525V105h-17.5V87.5z"/>
<path fill="#B07400" d="M481.25,105h17.5v17.5h-17.5V105z"/>
<path fill="#B07400" d="M560,490h17.5v17.5H560V490z"/>
<path fill="#B07400" d="M533.75,472.5h17.5V490h-17.5V472.5z"/>
<path fill="#B07400" d="M507.5,455H525v17.5h-17.5V455z"/>
<path fill="#B07400" d="M481.25,437.5h17.5V455h-17.5V437.5z"/>
<path fill="#B07400" d="M122.5,490H140v17.5h-17.5V490z"/>
<path fill="#B07400" d="M148.75,472.5h17.5V490h-17.5V472.5z"/>
<path fill="#B07400" d="M175,455h17.5v17.5H175V455z"/>
<path fill="#B07400" d="M201.25,437.5h17.5V455h-17.5V437.5z"/>
</svg>
