<?xml version="1.0" encoding="utf-8"?>
<!-- Generator: Adobe Illustrator 16.0.0, SVG Export Plug-In . SVG Version: 6.00 Build 0)  -->
<!DOCTYPE svg PUBLIC "-//W3C//DTD SVG 1.1//EN" "http://www.w3.org/Graphics/SVG/1.1/DTD/svg11.dtd">
<svg version="1.1" id="Layer_1" xmlns="http://www.w3.org/2000/svg" xmlns:xlink="http://www.w3.org/1999/xlink" x="0px" y="0px"
	 width="32px" height="32px" viewBox="0 0 32 32" enable-background="new 0 0 32 32" xml:space="preserve">
<path fill="#B07400" d="M28.645,14.225L16.665,3.286c-0.363-0.334-0.97-0.333-1.332-0.001L3.354,14.224
	c-0.196,0.178-0.311,0.42-0.322,0.684C3.02,15.17,3.113,15.424,3.29,15.615c0.187,0.206,0.452,0.324,0.732,0.324
	c0.209,0,0.41-0.065,0.574-0.186v12.224c0,0.543,0.442,0.986,0.987,0.986H26.42c0.543,0,0.986-0.443,0.986-0.986V15.754
	c0.388,0.28,0.968,0.235,1.316-0.144c0.157-0.188,0.246-0.42,0.246-0.656C28.971,14.678,28.852,14.411,28.645,14.225z
	 M18.661,18.544v8.447h-5.319v-8.447H18.661z M19.648,16.572h-7.293c-0.543,0-0.986,0.441-0.986,0.986v9.433h-4.8v-13.03
	l9.432-8.613l9.433,8.613v13.03h-4.8v-9.433C20.634,17.016,20.191,16.572,19.648,16.572z"/>
</svg>
