<?xml version="1.0" encoding="utf-8"?>
<!-- Generator: Adobe Illustrator 16.0.0, SVG Export Plug-In . SVG Version: 6.00 Build 0)  -->
<!DOCTYPE svg PUBLIC "-//W3C//DTD SVG 1.1//EN" "http://www.w3.org/Graphics/SVG/1.1/DTD/svg11.dtd">
<svg version="1.1" id="Layer_1" xmlns="http://www.w3.org/2000/svg" xmlns:xlink="http://www.w3.org/1999/xlink" x="0px" y="0px"
	 width="567.437px" height="567.376px" viewBox="13.891 137.257 567.437 567.376"
	 enable-background="new 13.891 137.257 567.437 567.376" xml:space="preserve">
<g>
	<path fill="#B07400" d="M155.796,414.435c0,12.557-9.302,25.113-25.113,25.113c-15.813,0-21.858-12.557-21.858-25.113
		s9.302-25.114,25.113-25.114C149.75,389.321,155.796,399.087,155.796,414.435z M187.42,279.101
		c-19.067,0-31.624,12.557-31.624,31.624c0,19.068,12.557,31.625,31.624,31.625s31.624-12.557,31.624-31.625
		C219.044,291.658,206.023,279.101,187.42,279.101z M322.753,231.665c-21.857,0-40.925,19.067-40.925,40.925
		c0,21.858,19.067,37.67,37.67,37.67c19.067,0,40.925-19.068,40.925-37.67S341.821,231.665,322.753,231.665z M401.814,452.569
		c-31.624,0-56.737,25.113-56.737,56.737c0,31.625,25.113,56.738,56.737,56.738s56.738-25.113,56.738-56.738l0,0
		C455.296,477.683,430.183,452.569,401.814,452.569z M297.64,168.881c-12.557,0-28.368,0-40.925,3.256
		c-138.589,21.858-230.206,154.4-207.884,289.734c3.256,15.812,6.511,31.624,12.557,44.181c3.256,6.511,9.302,12.557,19.068,12.557
		c6.511,0,9.301-3.256,12.557-6.511c31.624-31.625,81.851-31.625,110.22,0c28.368,31.624,31.624,81.851,0,110.22l0,0
		c-3.256,3.255-6.511,9.301-6.511,15.812c0,6.512,6.511,12.557,12.557,12.557c28.368,15.813,59.993,21.858,88.361,21.858
		c15.813,0,31.624,0,47.437-3.255c135.333-25.114,226.95-157.657,201.837-292.99C524.59,257.243,420.416,168.881,297.64,168.881
		 M297.64,137.257c157.656,0,283.688,126.032,283.688,283.688c0,135.333-97.663,255.319-233.462,280.433
		c-15.347,3.255-31.159,3.255-50.227,3.255c-34.88,0-66.039-6.511-97.663-19.067c-25.113-9.301-40.926-37.67-31.624-63.248
		c3.255-6.511,6.511-12.557,12.557-19.067c19.067-19.068,19.067-47.437,0-66.039s-47.437-19.067-66.039,0l0,0
		c-9.301,9.301-21.857,15.812-34.88,15.812c-21.857,0-40.925-12.557-47.437-34.879c-56.272-144.635,19.068-308.337,167.423-361.819
		c15.813-6.511,34.88-9.301,50.227-12.557C266.016,137.257,281.828,137.257,297.64,137.257z M439.484,310.725
		c-25.113,0-47.436,21.858-47.436,47.437s21.857,47.436,47.436,47.436c25.114,0,47.437-21.857,47.437-47.436
		S464.598,310.725,439.484,310.725L439.484,310.725L439.484,310.725z"/>
</g>
</svg>
