<?xml version="1.0" encoding="utf-8"?>
<!-- Generator: Adobe Illustrator 16.0.0, SVG Export Plug-In . SVG Version: 6.00 Build 0)  -->
<!DOCTYPE svg PUBLIC "-//W3C//DTD SVG 1.1//EN" "http://www.w3.org/Graphics/SVG/1.1/DTD/svg11.dtd">
<svg version="1.1" id="Layer_1" xmlns="http://www.w3.org/2000/svg" xmlns:xlink="http://www.w3.org/1999/xlink" x="0px" y="0px"
	 width="32px" height="32px" viewBox="0 0 32 32" enable-background="new 0 0 32 32" xml:space="preserve">
<path fill="#B07400" d="M21.354,6.102c-1.545,0.358-3.211-0.009-4.461-0.98c-1.321-1.04-2.972-1.613-4.646-1.613
	c-1.134,0-2.268,0.265-3.283,0.766L6.019,5.747v22.744h2.23v-8.325l1.685-0.842c1.784-0.879,4.025-0.643,5.585,0.587
	c1.812,1.401,4.023,1.905,6.354,1.423l4.107-0.982V5.008L21.354,6.102z M23.779,7.833v10.76l-2.426,0.554
	c-1.545,0.357-3.211-0.011-4.461-0.983c-1.322-1.038-2.973-1.61-4.647-1.61c-1.133,0-2.268,0.266-3.284,0.766L8.278,17.67V7.123
	l1.687-0.842c1.783-0.879,4.025-0.643,5.581,0.585c1.752,1.399,4.127,1.937,6.358,1.425L23.779,7.833z"/>
</svg>
