<?xml version="1.0" encoding="utf-8"?>
<!-- Generator: Adobe Illustrator 16.0.0, SVG Export Plug-In . SVG Version: 6.00 Build 0)  -->
<!DOCTYPE svg PUBLIC "-//W3C//DTD SVG 1.1//EN" "http://www.w3.org/Graphics/SVG/1.1/DTD/svg11.dtd">
<svg version="1.1" id="Layer_1" xmlns="http://www.w3.org/2000/svg" xmlns:xlink="http://www.w3.org/1999/xlink" x="0px" y="0px"
	 width="509.312px" height="452.733px" viewBox="95.343 53.639 509.312 452.733"
	 enable-background="new 95.343 53.639 509.312 452.733" xml:space="preserve">
<path fill="#B07400" d="M604.65,191.63c0,39.719-28.996,73.113-67.559,79.23v46.102h-0.027c0.008,9.094-9.695,15.477-18.146,11.391
	l-6.191-3.008v82.098h24.387c8.606,0,15.039,8.48,11.806,17.289l-25.066,73.065c-1.801,5.258-6.719,8.566-11.983,8.566
	l-378.61,0.008c-5.742,0-10.598-3.824-12.147-9.055l-25.074-73.086c-2.844-8.293,3.418-16.78,11.984-16.78h24.379V209.601
	c0-6.996,5.676-12.68,12.672-12.68h73.237c0-56.73-6.422-50.492,44.578-50.492v-9.609c0-6.996,5.676-12.68,12.681-12.68h100.88
	l141.64-68.812c9.473-5.035,19.008,1.953,19.008,10.98v46.094c38.563,6.117,67.559,39.52,67.559,79.238L604.65,191.63z
	 M277.29,432.79l5.293,11.523h79.965l5.293-11.523H277.29z M395.63,432.79l-13.056,28.461c-1.746,4.906-6.438,8.414-11.938,8.414
	h-96.133v-0.039c-4.789-0.008-9.367-2.746-11.488-7.387l-13.508-29.445h-123.75l16.543,48.224H502.83l16.543-48.224h-123.75
	L395.63,432.79z M487.388,313.02l-104.08-50.574l-31.887,92.077c-1.348,5.555-6.355,9.684-12.324,9.684h-35.934
	c-7.004,0-12.681-5.68-12.681-12.68v-92.414h-14.909c-7.004,0-12.681-5.676-12.681-12.672v-9.617h-31.906
	c-8.073,0-12.672-6.031-12.672-14.566h-60.565v185.17h329.64L487.388,313.02z M504.771,293.348l6.973,3.387V86.505l-119.77,58.191
	v93.844l112.8,54.805L504.771,293.348z M579.298,191.618c0-25.695-17.767-47.629-42.207-53.41v106.82
	C561.531,239.247,579.298,217.313,579.298,191.618L579.298,191.618z M262.888,211.466v-39.707h-19.227v39.707H262.888z
	 M357.742,259.107h-41.914v79.742h14.302L357.742,259.107z M366.614,149.467h-78.37v84.285h78.37V149.467z"/>
</svg>
