<?xml version="1.0" encoding="utf-8"?>
<!-- Generator: Adobe Illustrator 16.0.0, SVG Export Plug-In . SVG Version: 6.00 Build 0)  -->
<!DOCTYPE svg PUBLIC "-//W3C//DTD SVG 1.1//EN" "http://www.w3.org/Graphics/SVG/1.1/DTD/svg11.dtd">
<svg version="1.1" id="Layer_1" xmlns="http://www.w3.org/2000/svg" xmlns:xlink="http://www.w3.org/1999/xlink" x="0px" y="0px"
	 width="32px" height="32px" viewBox="0 0 32 32" enable-background="new 0 0 32 32" xml:space="preserve">
<path fill="#B07400" d="M26.128,5.816c-2.7-2.701-6.298-4.189-10.13-4.189S8.568,3.115,5.867,5.816
	c-5.585,5.585-5.585,14.674,0,20.259c2.701,2.7,6.299,4.188,10.131,4.188c3.83,0,7.428-1.488,10.131-4.188
	c2.701-2.7,4.188-6.298,4.188-10.129C30.316,12.113,28.829,8.515,26.128,5.816z M22.706,10.707l2.614-2.614
	c3.795,4.549,3.796,11.149,0,15.668l-2.614-2.614C25.086,18.07,25.086,13.784,22.706,10.707z M15.998,22.334
	c-1.698,0-3.301-0.667-4.511-1.878c-1.21-1.21-1.877-2.813-1.877-4.511s0.666-3.301,1.877-4.511c1.21-1.21,2.812-1.877,4.511-1.877
	c1.697,0,3.3,0.667,4.511,1.877c1.21,1.21,1.878,2.812,1.878,4.511c0,1.7-0.668,3.301-1.878,4.512
	C19.298,21.667,17.695,22.334,15.998,22.334z M21.236,9.232c-1.486-1.17-3.289-1.786-5.238-1.786c-1.919,0-3.721,0.616-5.236,1.788
	L8.179,6.622c2.192-1.842,4.953-2.852,7.819-2.852c2.865,0,5.626,1.01,7.818,2.853L21.236,9.232z M9.289,10.743
	c-2.38,3.076-2.38,7.36-0.001,10.438l-2.612,2.582C2.871,19.24,2.87,12.652,6.674,8.129L9.289,10.743z M10.792,22.689
	c1.483,1.17,3.287,1.787,5.24,1.787c1.918,0,3.72-0.617,5.235-1.787l2.582,2.609c-2.195,1.814-4.959,2.809-7.831,2.809
	c-2.885,0-5.652-1.004-7.836-2.836L10.792,22.689z"/>
</svg>
