<?xml version="1.0" encoding="utf-8"?>
<!-- Generator: Adobe Illustrator 16.0.0, SVG Export Plug-In . SVG Version: 6.00 Build 0)  -->
<!DOCTYPE svg PUBLIC "-//W3C//DTD SVG 1.1//EN" "http://www.w3.org/Graphics/SVG/1.1/DTD/svg11.dtd">
<svg version="1.1" id="Layer_1" xmlns="http://www.w3.org/2000/svg" xmlns:xlink="http://www.w3.org/1999/xlink" x="0px" y="0px"
	 width="513.217px" height="531.941px" viewBox="96.394 12.035 513.217 531.941"
	 enable-background="new 96.394 12.035 513.217 531.941" xml:space="preserve">
<path fill="#B07400" d="M320.8,269.21l44.828,0.117V79.167c0-4.59,3.723-8.313,8.313-8.313h48.422v16.625h-40.109v181.89
	l40.109,0.105v16.562l-40.109-0.105v182.57h40.109v16.625h-48.422c-4.59,0-8.313-3.723-8.313-8.313v-190.93l-44.828-0.117V269.21z"
	/>
<path fill="#B07400" d="M470.69,12.035h70.887c8.711,0,16.621,3.551,22.359,9.27l-12.344,11.199
	c-2.672-2.391-6.188-3.844-10.023-3.844H470.69c-4.137,0-7.902,1.699-10.645,4.438c-2.734,2.734-4.438,6.504-4.438,10.645v70.887
	c0,4.137,1.699,7.902,4.438,10.645c2.734,2.734,6.504,4.438,10.645,4.438h70.887c4.137,0,7.902-1.699,10.646-4.434
	c2.734-2.734,4.434-6.504,4.434-10.645V95.227l16.625-15.086v34.492c0,8.727-3.563,16.652-9.305,22.395
	c-5.738,5.738-13.668,9.305-22.396,9.305l-70.891,0.004c-8.727,0-16.652-3.563-22.395-9.305c-5.738-5.738-9.305-13.668-9.305-22.395
	l0.004-70.898c0-8.727,3.563-16.652,9.305-22.396C454.037,15.598,461.962,12.035,470.69,12.035L470.69,12.035z M470.69,409.675
	h70.887c8.711,0,16.621,3.551,22.359,9.27l-12.344,11.199c-2.672-2.391-6.188-3.844-10.023-3.844H470.69
	c-4.137,0-7.902,1.699-10.645,4.438c-2.734,2.734-4.438,6.504-4.438,10.645v70.888c0,4.137,1.699,7.902,4.438,10.645
	c2.734,2.734,6.504,4.438,10.645,4.438h70.887c4.137,0,7.902-1.699,10.646-4.434c2.734-2.734,4.434-6.504,4.434-10.645v-19.406
	l16.625-15.086v34.492c0,8.727-3.563,16.651-9.305,22.395c-5.738,5.738-13.668,9.305-22.396,9.305l-70.891,0.004
	c-8.727,0-16.652-3.563-22.395-9.305c-5.738-5.738-9.305-13.668-9.305-22.395l0.004-70.898c0-8.727,3.563-16.652,9.305-22.395
	C454.037,413.238,461.962,409.676,470.69,409.675L470.69,409.675z M470.69,210.855h70.887c8.711,0,16.621,3.551,22.359,9.27
	l-12.344,11.199c-2.672-2.39-6.188-3.844-10.023-3.844H470.69c-4.137,0-7.902,1.699-10.645,4.438
	c-2.734,2.734-4.438,6.504-4.438,10.646v70.887c0,4.137,1.699,7.902,4.438,10.645c2.734,2.734,6.504,4.438,10.645,4.438h70.887
	c4.137,0,7.902-1.699,10.646-4.434c2.734-2.734,4.434-6.504,4.434-10.645v-19.406l16.625-15.086v34.492
	c0,8.727-3.563,16.652-9.305,22.398c-5.738,5.738-13.668,9.305-22.396,9.305l-70.891,0.008c-8.727,0-16.652-3.563-22.395-9.305
	c-5.738-5.738-9.305-13.668-9.305-22.395l0.004-70.902c0-8.727,3.563-16.652,9.305-22.395
	C454.037,214.421,461.962,210.854,470.69,210.855L470.69,210.855z"/>
<path fill="#B07400" d="M477.43,68.363c-3.242-3.242-3.242-8.503,0-11.754c3.242-3.242,8.504-3.242,11.754,0l28.828,28.828
	l77.719-70.531c3.391-3.086,8.641-2.836,11.719,0.555c3.086,3.391,2.836,8.641-0.555,11.719l-83.25,75.551l-0.047,0.047
	c-3.242,3.242-8.504,3.242-11.754,0L477.43,68.363z M477.43,267.183c-3.242-3.242-3.242-8.504,0-11.754
	c3.242-3.242,8.504-3.242,11.754,0l28.828,28.828l77.719-70.531c3.391-3.086,8.641-2.836,11.719,0.555
	c3.086,3.391,2.836,8.641-0.555,11.719l-83.25,75.555l-0.047,0.047c-3.242,3.242-8.504,3.242-11.754,0L477.43,267.183z
	 M477.43,466.003c-3.242-3.242-3.242-8.504,0-11.754c3.242-3.242,8.504-3.242,11.754,0l28.828,28.828l77.719-70.531
	c3.391-3.086,8.641-2.836,11.719,0.555c3.086,3.391,2.836,8.641-0.555,11.719l-83.25,75.552l-0.047,0.047
	c-3.242,3.242-8.504,3.242-11.754,0L477.43,466.003z"/>
<path fill="#B07400" d="M219.17,203.64c7.059,1.801,13.719,4.598,19.828,8.227l24.819-17.973l19.863,19.863l-17.973,24.82
	c3.621,6.109,6.418,12.77,8.219,19.828l30.246,4.839v28.086l-30.246,4.84c-1.801,7.059-4.598,13.719-8.227,19.828l17.973,24.82
	l-19.863,19.863l-24.819-17.974c-6.109,3.621-12.771,6.419-19.828,8.22l-4.84,30.25h-28.086l-4.84-30.246
	c-7.059-1.801-13.719-4.598-19.828-8.227l-24.82,17.973l-19.862-19.863l17.973-24.82c-3.621-6.109-6.418-12.77-8.219-19.828
	l-30.246-4.84v-28.086l30.25-4.84c1.801-7.059,4.598-13.719,8.219-19.828l-17.973-24.82l19.862-19.863l24.82,17.965
	c6.109-3.621,12.771-6.418,19.828-8.219l4.84-30.246h28.086L219.17,203.64z M200.283,235.788c-22.918,0-41.5,18.578-41.5,41.5
	c0,22.918,18.577,41.5,41.5,41.5c22.918,0,41.5-18.578,41.5-41.5C241.78,254.366,223.201,235.788,200.283,235.788z"/>
</svg>
