<?xml version="1.0" encoding="utf-8"?>
<!-- Generator: Adobe Illustrator 16.0.0, SVG Export Plug-In . SVG Version: 6.00 Build 0)  -->
<!DOCTYPE svg PUBLIC "-//W3C//DTD SVG 1.1//EN" "http://www.w3.org/Graphics/SVG/1.1/DTD/svg11.dtd">
<svg version="1.1" id="Layer_1" xmlns="http://www.w3.org/2000/svg" xmlns:xlink="http://www.w3.org/1999/xlink" x="0px" y="0px"
	 width="352.809px" height="350.909px" viewBox="173.589 104.707 352.809 350.909"
	 enable-background="new 173.589 104.707 352.809 350.909" xml:space="preserve">
<path fill="#FFFFFF" d="M523.038,305.37c-3.694-2.797-8.956-2.066-11.758,1.625l-50.905,67.479l-8.009-23.97
	c-1.16-3.391-4.366-5.647-7.952-5.602h-85.957c-3.573-0.012-6.762,2.234-7.952,5.602l-5.207,15.902l-30.635-114.41
	c4.063-0.625,8.199-0.625,12.268,0c4.647,0.953,6.104,2.521,6.16,2.801c0.227,0.816,0.586,1.595,1.063,2.297
	c-0.012,0.13-0.012,0.263,0,0.392c0.438,0.652,0.988,1.22,1.625,1.681h0.392c0.62,0.492,1.319,0.871,2.069,1.121
	c0.771,0.215,1.56,0.344,2.355,0.391h0.504c0.647,0.105,1.309,0.105,1.957,0c2.151-0.563,3.988-1.965,5.102-3.887
	c1.117-1.926,1.414-4.215,0.836-6.359c-0.895-3.246,4.367-9.855,14.281-12.488c9.91-2.632,17.754,0.449,18.594,3.641h-0.004
	c1.051,3.844,4.646,6.435,8.625,6.215h1.681c3.409-0.758,5.995-3.543,6.495-7c0.25-1.09,0.25-2.219,0-3.305
	c-1.12-4.313,3.527-9.633,9.91-11.199c3.302-0.961,6.824-0.805,10.027,0.445c1.979,0.777,3.53,2.371,4.254,4.371
	c1.207,4.484,5.82,7.141,10.305,5.934c4.484-1.203,7.142-5.815,5.938-10.305c-8.918-33.148-30.113-61.664-59.285-79.762
	c-29.172-18.094-64.137-24.414-97.797-17.676l-4.93-18.367h0.004c-1.207-4.484-5.82-7.145-10.305-5.938
	c-4.485,1.207-7.146,5.82-5.938,10.305l4.93,18.426v-0.004c-32.642,10.887-59.887,33.836-76.155,64.152
	c-16.272,30.315-20.34,65.703-11.375,98.922c0.973,3.68,4.313,6.238,8.121,6.215c0.737,0.012,1.473-0.082,2.184-0.281
	c4.461-1.203,7.113-5.781,5.938-10.246c-1.177-4.313,3.473-9.633,9.909-11.199c3.281-0.961,6.789-0.805,9.97,0.445
	c1.991,0.766,3.547,2.359,4.258,4.371c0.227,0.816,0.586,1.594,1.063,2.293c-0.012,0.133-0.012,0.262,0,0.395
	c0.453,0.637,1,1.203,1.625,1.681l0.392,0.28c0.647,0.445,1.344,0.824,2.073,1.117c0.703,0.228,1.441,0.34,2.185,0.336h0.84
	c0.652,0.055,1.309,0.055,1.961,0c2.152-0.578,3.988-1.988,5.103-3.918c1.116-1.934,1.414-4.229,0.832-6.387
	c-0.156-2.121,0.694-4.195,2.297-5.598c3.254-3.633,7.496-6.242,12.207-7.504c4.522-1.262,9.309-1.262,13.832,0
	c2.573,0.895,4.426,2.297,4.762,3.754v-0.004c0.219,0.813,0.559,1.586,1.008,2.297v0.391c0.445,0.629,0.973,1.191,1.566,1.684
	l0.448,0.281v-0.004c0.621,0.461,1.298,0.836,2.017,1.121c0.727,0.223,1.479,0.336,2.238,0.336h0.504
	c0.659-0.039,1.315-0.133,1.961-0.281c3.262-0.867,5.688-3.602,6.16-6.94c0.25-1.108,0.25-2.255,0-3.363
	c0,0,0.391-2.353,3.977-5.603v0.005c3.152-2.609,6.684-4.724,10.473-6.272l34.16,127.508
	c-50.396,6.105-104.83,29.514-108.529,61.604c-0.495,4.598,2.802,8.738,7.392,9.297h1.229c4,0.063,7.492-2.699,8.345-6.609
	c1.961-17.246,40.602-40.434,93.295-46.93l-14.168,43.344c-0.854,2.578-0.434,5.406,1.138,7.617
	c1.569,2.215,4.102,3.547,6.815,3.586c3.586,0.02,6.797-2.227,8.009-5.602l7.84-24.414l5.602,21.391
	c0.988,3.672,4.316,6.219,8.117,6.215c0.727,0.082,1.461,0.082,2.184,0c2.293-0.539,4.254-2.02,5.402-4.074
	c1.152-2.055,1.387-4.496,0.648-6.732L353.981,399c32.379-1.605,64.824-1.25,97.16,1.063l16.465,49.338
	c1.543,4.408,6.371,6.727,10.776,5.18c4.411-1.543,6.728-6.371,5.18-10.777L466.756,393.4l57.961-76.272
	c1.34-1.78,1.91-4.022,1.598-6.229c-0.315-2.203-1.496-4.194-3.277-5.53L523.038,305.37z M277.54,147.23
	c7.28,0.281,31.244,30.521,49.727,88.198l0.004,0.005c-17.086-1.677-34.194,2.901-48.16,12.879
	c-12.823-59.19-7.227-97.105-1.569-101.08L277.54,147.23L277.54,147.23z M414.24,208.833c-3.434-0.109-6.867,0.289-10.189,1.176
	c-4.59,1.207-8.863,3.387-12.543,6.383c-9.043-24.109-23.688-45.719-42.729-63.055c-1.961-1.68-3.863-3.305-5.602-4.816
	c30.961,9.598,56.642,31.453,71.063,60.48V208.833z M337.689,166.105c16.555,15.125,29.359,33.896,37.41,54.824
	c-5.316-0.574-10.688-0.156-15.854,1.229c-5.848,1.543-11.314,4.271-16.068,8.008c-7.103-22.719-16.621-44.608-28.393-65.296
	c-3.526-6.121-7.496-11.98-11.873-17.527C315.884,150.609,327.837,157.058,337.689,166.105L337.689,166.105z M214.099,264.045
	c-4.69-0.733-9.479-0.465-14.059,0.785c-3.336,0.871-6.513,2.273-9.406,4.146c-1.461-23.181,3.977-46.271,15.621-66.358
	c4.479-7.824,9.854-15.099,16.02-21.673c-0.953,2.298-1.848,4.703-2.688,7.168h-0.004
	C211.747,212.629,209.865,238.661,214.099,264.045L214.099,264.045z M244.787,252.847c-5.152,1.37-10.01,3.668-14.336,6.776
	c-3.453-22.141-1.73-44.776,5.039-66.137c3.983-12.758,11.107-24.312,20.719-33.602c-0.98,6.996-1.449,14.051-1.398,21.114
	c0.07,23.887,2.734,47.694,7.953,71.008C256.776,251.042,250.655,251.327,244.787,252.847L244.787,252.847z M357.906,381.926
	l6.664-20.383l73.811-0.004l6.832,21.281C416.15,380.97,387.005,380.668,357.906,381.926L357.906,381.926z"/>
</svg>
