<?xml version="1.0" encoding="utf-8"?>
<!-- Generator: Adobe Illustrator 26.0.1, SVG Export Plug-In . SVG Version: 6.00 Build 0)  -->
<svg version="1.1" id="Layer_1" xmlns="http://www.w3.org/2000/svg" xmlns:xlink="http://www.w3.org/1999/xlink" x="0px" y="0px"
	 viewBox="0 0 128 128" style="enable-background:new 0 0 128 128;" xml:space="preserve">
<style type="text/css">
	.st0{fill:#FFFFFF;}
</style>
<path class="st0" d="M117.7,28.5H85.3v-8.1C85.3,14.1,80.2,9,74,9H54c-6.2,0-11.3,5.1-11.3,11.4v8.1H10.3c-5,0-9.3,4.3-9.3,9.4v26.8
	c0,1.3,0.8,2.5,2.1,2.9l3.2,1.1l-0.1,40.9c0,5.2,4.2,9.4,9.3,9.4h97c5.1,0,9.3-4.2,9.3-9.4V68.7l3.2-1.1c1.2-0.5,2-1.6,2-2.9V37.9
	C127,32.8,122.7,28.5,117.7,28.5z M54,15.2h20c2.9,0,5.2,2.3,5.2,5.2v8.1H48.8v-8.1C48.8,17.5,51.1,15.2,54,15.2z M73.1,70.9H55.3
	c-1.7,0-3.1,1.4-3.1,3.1v4.3L7.1,62.6V37.9c0-1.8,1.5-3.3,3.2-3.3h107.4c1.7,0,3.2,1.5,3.2,3.3v24.7L76.2,78.3V74
	C76.2,72.3,74.8,70.9,73.1,70.9z M115.7,109.6L115.7,109.6c0,1.8-1.4,3.3-3.2,3.3h-97c-1.8,0-3.2-1.5-3.2-3.3l0.1-38.7l39.9,13.9
	v4.7c0,1.7,1.4,3.1,3.1,3.1h17.8c1.7,0,3.1-1.4,3.1-3.1v-4.7l39.5-13.9L115.7,109.6z M58.4,86.4V77h11.7v9.4H58.4z"/>
</svg>
