<?xml version="1.0" encoding="utf-8"?>
<!-- Generator: Adobe Illustrator 16.0.0, SVG Export Plug-In . SVG Version: 6.00 Build 0)  -->
<!DOCTYPE svg PUBLIC "-//W3C//DTD SVG 1.1//EN" "http://www.w3.org/Graphics/SVG/1.1/DTD/svg11.dtd">
<svg version="1.1" id="Layer_1" xmlns="http://www.w3.org/2000/svg" xmlns:xlink="http://www.w3.org/1999/xlink" x="0px" y="0px"
	 width="32px" height="32px" viewBox="0 0 32 32" enable-background="new 0 0 32 32" xml:space="preserve">
<path fill="#FFFFFF" d="M28.372,3.686c-0.34-0.344-0.875-0.443-1.317-0.241L3.966,13.846c-0.479,0.214-0.759,0.725-0.687,1.246
	c0.076,0.515,0.491,0.925,1.007,0.997l10.268,1.415l1.414,10.271c0.074,0.515,0.484,0.928,1.003,1.002
	c0.063,0.01,0.114,0.013,0.165,0.013c0.462,0,0.884-0.272,1.077-0.694L28.615,5.003C28.813,4.559,28.715,4.028,28.372,3.686z
	 M25.186,6.872l-7.44,16.517l-0.978-7.09c-0.068-0.523-0.483-0.938-1.007-1.007l-7.092-0.979L25.186,6.872z"/>
</svg>
