<?xml version="1.0" encoding="utf-8"?>
<!-- Generator: Adobe Illustrator 26.0.1, SVG Export Plug-In . SVG Version: 6.00 Build 0)  -->
<svg version="1.1" id="Layer_1" xmlns="http://www.w3.org/2000/svg" xmlns:xlink="http://www.w3.org/1999/xlink" x="0px" y="0px"
	 viewBox="0 0 128 128" style="enable-background:new 0 0 128 128;" xml:space="preserve">
<style type="text/css">
	.st0{fill:#FFFFFF;}
</style>
<g>
	<path class="st0" d="M33.5,62.6c0,2.7-2,5.4-5.4,5.4s-4.7-2.7-4.7-5.4c0-2.7,2-5.4,5.4-5.4S33.5,59.3,33.5,62.6z M40.3,33.5
		c-4.1,0-6.8,2.7-6.8,6.8s2.7,6.8,6.8,6.8s6.8-2.7,6.8-6.8S44.3,33.5,40.3,33.5z M69.4,23.3c-4.7,0-8.8,4.1-8.8,8.8s4.1,8.1,8.1,8.1
		c4.1,0,8.8-4.1,8.8-8.1S73.5,23.3,69.4,23.3z M86.4,70.8c-6.8,0-12.2,5.4-12.2,12.2c0,6.8,5.4,12.2,12.2,12.2S98.6,89.8,98.6,83
		l0,0C97.9,76.2,92.5,70.8,86.4,70.8z M64,9.8c-2.7,0-6.1,0-8.8,0.7C25.4,15.2,5.7,43.7,10.5,72.8c0.7,3.4,1.4,6.8,2.7,9.5
		c0.7,1.4,2,2.7,4.1,2.7c1.4,0,2-0.7,2.7-1.4c6.8-6.8,17.6-6.8,23.7,0s6.8,17.6,0,23.7l0,0c-0.7,0.7-1.4,2-1.4,3.4s1.4,2.7,2.7,2.7
		c6.1,3.4,12.9,4.7,19,4.7c3.4,0,6.8,0,10.2-0.7c29.1-5.4,48.8-33.9,43.4-63C112.8,28.8,90.4,9.8,64,9.8 M64,3c33.9,0,61,27.1,61,61
		c0,29.1-21,54.9-50.2,60.3C71.5,125,68.1,125,64,125c-7.5,0-14.2-1.4-21-4.1c-5.4-2-8.8-8.1-6.8-13.6c0.7-1.4,1.4-2.7,2.7-4.1
		C43,99.1,43,93,38.9,89s-10.2-4.1-14.2,0l0,0c-2,2-4.7,3.4-7.5,3.4c-4.7,0-8.8-2.7-10.2-7.5C-5.1,53.8,11.1,18.6,43,7.1
		c3.4-1.4,7.5-2,10.8-2.7C57.2,3,60.6,3,64,3z M94.5,40.3c-5.4,0-10.2,4.7-10.2,10.2S89,60.7,94.5,60.7c5.4,0,10.2-4.7,10.2-10.2
		S99.9,40.3,94.5,40.3L94.5,40.3L94.5,40.3z"/>
</g>
</svg>
