<?xml version="1.0" encoding="utf-8"?>
<!-- Generator: Adobe Illustrator 16.0.0, SVG Export Plug-In . SVG Version: 6.00 Build 0)  -->
<!DOCTYPE svg PUBLIC "-//W3C//DTD SVG 1.1//EN" "http://www.w3.org/Graphics/SVG/1.1/DTD/svg11.dtd">
<svg version="1.1" id="Layer_1" xmlns="http://www.w3.org/2000/svg" xmlns:xlink="http://www.w3.org/1999/xlink" x="0px" y="0px"
	 width="32px" height="32px" viewBox="0 0 32 32" enable-background="new 0 0 32 32" xml:space="preserve">
<path fill="#FFFFFF" d="M23.016,2.733H8.996c-1.511,0-2.741,1.229-2.741,2.742v22.783c0.002,0.398,0.242,0.756,0.609,0.909
	c0.361,0.153,0.802,0.067,1.081-0.209l8.062-8.072l8.062,8.072c0.185,0.187,0.438,0.293,0.699,0.293v-0.11l0.008,0.11
	c0.266-0.002,0.514-0.106,0.697-0.293c0.186-0.187,0.286-0.437,0.284-0.699V5.476C25.756,3.963,24.527,2.733,23.016,2.733z
	 M8.229,5.476c0-0.423,0.344-0.768,0.766-0.768h14.021c0.422,0,0.766,0.345,0.766,0.768v20.402l-7.078-7.085
	c-0.186-0.186-0.431-0.285-0.694-0.285v0.111l-0.002-0.111c-0.265,0-0.521,0.104-0.704,0.289l-7.074,7.081V5.476z"/>
</svg>
