<?xml version="1.0" encoding="utf-8"?>
<!-- Generator: Adobe Illustrator 16.0.0, SVG Export Plug-In . SVG Version: 6.00 Build 0)  -->
<!DOCTYPE svg PUBLIC "-//W3C//DTD SVG 1.1//EN" "http://www.w3.org/Graphics/SVG/1.1/DTD/svg11.dtd">
<svg version="1.1" id="Layer_1" xmlns="http://www.w3.org/2000/svg" xmlns:xlink="http://www.w3.org/1999/xlink" x="0px" y="0px"
	 width="32px" height="32px" viewBox="0 0 32 32" enable-background="new 0 0 32 32" xml:space="preserve">
<path fill="#B07400" d="M29.764,20.871c-0.094-0.195-0.242-0.354-0.436-0.458l-3.184-1.724l3.138-1.534
	c0.247-0.119,0.434-0.326,0.524-0.585c0.09-0.257,0.072-0.533-0.045-0.779c-0.097-0.197-0.248-0.354-0.433-0.452l-3.187-1.725
	l3.137-1.533c0.51-0.244,0.726-0.855,0.479-1.367c-0.101-0.208-0.265-0.371-0.473-0.473L16.443,3.969
	c-0.133-0.063-0.281-0.097-0.446-0.097c0,0,0,0-0.001,0c-0.172,0.005-0.307,0.035-0.447,0.101L2.717,10.239
	c-0.508,0.245-0.723,0.857-0.479,1.361c0.099,0.208,0.269,0.378,0.475,0.478l3.143,1.536l-3.182,1.723
	c-0.242,0.131-0.418,0.347-0.493,0.604c-0.079,0.262-0.051,0.538,0.08,0.78c0.102,0.188,0.264,0.342,0.45,0.432l3.145,1.537
	l-3.182,1.723c-0.24,0.13-0.415,0.346-0.493,0.605c-0.079,0.262-0.051,0.537,0.079,0.776c0.104,0.19,0.262,0.343,0.453,0.435
	L15.556,28.5c0.139,0.066,0.292,0.102,0.446,0.102c0.155,0,0.31-0.035,0.444-0.103l12.838-6.269
	c0.247-0.121,0.432-0.326,0.521-0.584C29.896,21.391,29.881,21.113,29.764,20.871z M8.109,14.711l7.444,3.639
	c0.275,0.135,0.617,0.135,0.893,0l7.445-3.639l2.717,1.477L16,21.361L5.394,16.188L8.109,14.711z M16,16.287L5.49,11.164L16,6.032
	l10.51,5.132L16,16.287z M8.109,19.786l7.444,3.639c0.269,0.132,0.613,0.136,0.894,0l7.444-3.639l2.717,1.478L16,26.438
	L5.394,21.264L8.109,19.786z"/>
</svg>
