<?xml version="1.0" encoding="utf-8"?>
<!-- Generator: Adobe Illustrator 16.0.0, SVG Export Plug-In . SVG Version: 6.00 Build 0)  -->
<!DOCTYPE svg PUBLIC "-//W3C//DTD SVG 1.1//EN" "http://www.w3.org/Graphics/SVG/1.1/DTD/svg11.dtd">
<svg version="1.1" id="Layer_1" xmlns="http://www.w3.org/2000/svg" xmlns:xlink="http://www.w3.org/1999/xlink" x="0px" y="0px"
	 width="532.004px" height="511.282px" viewBox="84 24.642 532.004 511.282" enable-background="new 84 24.642 532.004 511.282"
	 xml:space="preserve">
<path fill="#FFFFFF" d="M556.078,65.52h-77.84V43.122c0-10.078-8.397-18.48-18.479-18.48c-10.078,0-18.48,8.398-18.48,18.48V65.52
	h-182V43.122c0-10.078-8.397-18.48-18.479-18.48c-10.078,0-18.48,8.398-18.48,18.48V65.52h-78.396
	C110.883,65.52,84,92.399,84,125.442v350.561c0,33.039,26.879,59.922,59.922,59.922h412.16c33.037,0,59.922-26.879,59.922-59.922
	L616,124.882c0-32.48-26.88-59.359-59.923-59.359L556.078,65.52z M579.041,475.44c0,12.318-10.078,22.396-22.963,22.396H143.92
	c-12.32,0-22.961-10.078-22.961-22.396V238h457.52v237.44H579.041z M579.041,200.48h-458.08v-75.602
	c0-12.32,10.078-22.398,22.961-22.398h77.84v22.398c0,10.078,8.398,18.48,18.48,18.48c10.076,0,18.479-8.398,18.479-18.48V102.48
	h182v22.398c0,10.078,8.397,18.48,18.479,18.48c10.078,0,18.48-8.398,18.48-18.48V102.48h77.84c12.32,0,22.961,10.078,22.961,22.398
	l-0.004,75.602H579.041z"/>
<path fill="#FFFFFF" d="M318.078,437.92c3.359,3.922,8.398,6.16,13.441,6.16c5.039,0,10.078-2.238,13.441-6.16l100.8-107.521
	c7.281-7.28,6.719-19.039-1.121-26.319c-7.281-6.72-19.039-6.72-26.32,1.121l-86.801,92.957l-46.479-49.841
	c-7.281-7.28-18.48-7.84-26.32-1.12c-7.281,7.28-7.84,19.038-1.121,26.319L318.078,437.92z"/>
</svg>
