<?xml version="1.0" encoding="utf-8"?>
<!-- Generator: Adobe Illustrator 16.0.0, SVG Export Plug-In . SVG Version: 6.00 Build 0)  -->
<!DOCTYPE svg PUBLIC "-//W3C//DTD SVG 1.1//EN" "http://www.w3.org/Graphics/SVG/1.1/DTD/svg11.dtd">
<svg version="1.1" id="Layer_1" xmlns="http://www.w3.org/2000/svg" xmlns:xlink="http://www.w3.org/1999/xlink" x="0px" y="0px"
	 width="502.129px" height="420.886px" viewBox="98.94 69.559 502.129 420.886"
	 enable-background="new 98.94 69.559 502.129 420.886" xml:space="preserve">
<g>
	<path fill="#FFFFFF" d="M575.28,423.57H124.73c-6.836-0.004-13.392-2.723-18.224-7.559c-4.832-4.832-7.551-11.389-7.559-18.221
		V95.333c0.008-6.836,2.727-13.387,7.563-18.219c4.831-4.832,11.383-7.547,18.219-7.555h450.56h-0.004
		c6.836,0.008,13.389,2.723,18.225,7.555c4.832,4.832,7.551,11.383,7.559,18.219v302.459c-0.008,6.832-2.727,13.387-7.559,18.219
		c-4.832,4.836-11.389,7.557-18.225,7.561h-0.006V423.57z M124.73,87.06c-4.57,0.004-8.273,3.703-8.281,8.273v302.459
		c0.008,4.566,3.711,8.27,8.281,8.277h450.56h-0.004c4.57-0.01,8.273-3.711,8.281-8.277V95.333c-0.008-4.57-3.711-8.27-8.281-8.273
		H124.73z"/>
	<path fill="#FFFFFF" d="M350.001,393.32c-7.306,0-14.311-2.902-19.475-8.066c-5.168-5.168-8.065-12.172-8.065-19.478
		c0-7.305,2.897-14.31,8.065-19.473c5.164-5.164,12.168-8.066,19.475-8.066c7.305,0,14.309,2.902,19.473,8.066
		c5.168,5.163,8.065,12.168,8.065,19.473c-0.008,7.302-2.909,14.302-8.073,19.466S357.302,393.309,350.001,393.32L350.001,393.32z
		 M350.001,355.738c-4.063,0-7.725,2.445-9.277,6.199c-1.551,3.75-0.695,8.07,2.18,10.941c2.871,2.871,7.188,3.729,10.94,2.176
		c3.75-1.555,6.194-5.215,6.194-9.277C360.034,360.234,355.542,355.742,350.001,355.738L350.001,355.738z"/>
	<path fill="#FFFFFF" d="M592.31,319.47H107.69c-4.832,0-8.75-3.918-8.75-8.75s3.918-8.75,8.75-8.75h484.62
		c4.832,0,8.75,3.918,8.75,8.75S597.142,319.47,592.31,319.47z"/>
	<path fill="#FFFFFF" d="M288.34,483.179c-2.319,0.004-4.547-0.918-6.188-2.559s-2.563-3.867-2.563-6.191v-59.617
		c0-4.83,3.918-8.75,8.75-8.75s8.75,3.92,8.75,8.75v59.617c0,2.324-0.922,4.553-2.563,6.191
		C292.885,482.261,290.66,483.183,288.34,483.179z"/>
	<path fill="#FFFFFF" d="M411.659,483.179c-2.319,0.004-4.547-0.918-6.188-2.559c-1.642-1.641-2.563-3.867-2.563-6.191v-59.617
		c0-4.83,3.918-8.75,8.75-8.75s8.75,3.92,8.75,8.75v59.617c0,2.324-0.918,4.553-2.563,6.191
		C416.206,482.261,413.98,483.183,411.659,483.179z"/>
	<path fill="#FFFFFF" d="M477.65,490.441c-0.397,0-0.801-0.027-1.195-0.078c-83.909-11.521-169-11.521-252.91,0
		c-4.785,0.654-9.197-2.695-9.854-7.48c-0.656-4.791,2.69-9.203,7.479-9.859c85.488-11.725,172.182-11.725,257.66,0
		c4.56,0.619,7.855,4.668,7.548,9.262C486.064,486.873,482.252,490.435,477.65,490.441L477.65,490.441z"/>
</g>
</svg>
