<?xml version="1.0" encoding="utf-8"?>
<!-- Generator: Adobe Illustrator 16.0.0, SVG Export Plug-In . SVG Version: 6.00 Build 0)  -->
<!DOCTYPE svg PUBLIC "-//W3C//DTD SVG 1.1//EN" "http://www.w3.org/Graphics/SVG/1.1/DTD/svg11.dtd">
<svg version="1.1" id="Layer_1" xmlns="http://www.w3.org/2000/svg" xmlns:xlink="http://www.w3.org/1999/xlink" x="0px" y="0px"
	 width="32px" height="32px" viewBox="0 0 32 32" enable-background="new 0 0 32 32" xml:space="preserve">
<path fill="#B07400" d="M25.552,14.887V9.894h-5.567V4.899H6.656v4.994H1.087v7.171h5.569v2.862H1.087V27.1h24.465v-5.035h5.569
	v-7.177H25.552z M28.941,17.061v2.82h-8.965v-2.82H28.941z M23.374,22.095v2.82h-8.965v-2.82H23.374z M17.799,17.061v2.82H8.834
	v-2.82H17.799z M3.267,14.887v-2.821h8.964v2.821H3.267z M23.374,12.065v2.821h-8.965v-2.821H23.374z M17.799,7.066v2.821H8.834
	V7.066H17.799z M12.23,22.095v2.82H3.267v-2.82H12.23z"/>
</svg>
