<?xml version="1.0" encoding="utf-8"?>
<!-- Generator: Adobe Illustrator 26.0.1, SVG Export Plug-In . SVG Version: 6.00 Build 0)  -->
<svg version="1.1" id="Layer_1" xmlns="http://www.w3.org/2000/svg" xmlns:xlink="http://www.w3.org/1999/xlink" x="0px" y="0px"
	 viewBox="0 0 32 32" style="enable-background:new 0 0 32 32;" xml:space="preserve">
<style type="text/css">
	.st0{fill:#1978FC;}
</style>
<g>
	<path class="st0" d="M26.3,6.2c-0.1,0-6.6-0.4-9.7-3.4L16,2.2l-0.6,0.6c-3.1,3-9.6,3.4-9.7,3.4H4.9v12.2c0,6.1,10.3,10.8,10.8,11
		l0.4,0.2l0.4-0.2c0.4-0.2,10.8-4.9,10.8-11V6.2H26.3z M25.3,7.9v10.5c0,4.4-7.7,8.4-9.3,9.2c-1.5-0.7-9.3-4.8-9.3-9.2V7.9
		C8.4,7.7,13,7,16,4.6C18.9,7,23.5,7.7,25.3,7.9z"/>
	<path class="st0" d="M8.3,8.4L7.6,8.6v9.6c0,3.7,7.2,7.6,8,8l0.4,0.2l0.4-0.2c0.8-0.4,8-4.2,8-8V8.6l-0.7-0.1c-2-0.3-4.8-1-7.2-2.5
		L16,5.6l-0.5,0.3C13.2,7.4,10.3,8.1,8.3,8.4z M9.4,18.2v-8.1c1.8-0.4,4.4-1,6.6-2.3c2.2,1.3,4.8,2,6.6,2.3v8.1
		c0,1.5-2.9,4.2-6.6,6.2C12.3,22.4,9.4,19.7,9.4,18.2z"/>
	<polygon class="st0" points="20.3,14.2 19.1,12.8 14.4,17 13,15.3 11.6,16.4 14.1,19.6 	"/>
</g>
</svg>
