<?xml version="1.0" encoding="utf-8"?>
<!-- Generator: Adobe Illustrator 16.0.0, SVG Export Plug-In . SVG Version: 6.00 Build 0)  -->
<!DOCTYPE svg PUBLIC "-//W3C//DTD SVG 1.1//EN" "http://www.w3.org/Graphics/SVG/1.1/DTD/svg11.dtd">
<svg version="1.1" id="Layer_1" xmlns="http://www.w3.org/2000/svg" xmlns:xlink="http://www.w3.org/1999/xlink" x="0px" y="0px"
	 width="32px" height="32px" viewBox="0 0 32 32" enable-background="new 0 0 32 32" xml:space="preserve">
<g>
	<path fill="#B07400" d="M22.85,15.094l0.121,0.842h6.469l-0.1-1.074C28.742,8.419,23.632,3.31,17.189,2.711l-1.07-0.097v6.47
		l0.841,0.12C19.991,9.641,22.413,12.062,22.85,15.094z M24.629,13.973c-0.787-3.196-3.354-5.763-6.547-6.549V4.816
		c4.619,0.873,8.279,4.535,9.152,9.156L24.629,13.973L24.629,13.973z"/>
	<path fill="#B07400" d="M10.852,11.274c1.065-1.111,2.495-1.846,4.031-2.071l0.836-0.125V2.61l-1.073,0.101
		c-3.492,0.336-6.671,1.986-8.95,4.647l-0.701,0.82l5.274,3.706L10.852,11.274z M7.931,7.843c1.617-1.567,3.613-2.604,5.827-3.025
		v2.608c-1.371,0.338-2.639,0.988-3.706,1.906L7.931,7.843z"/>
	<path fill="#B07400" d="M22.971,16.334l-0.121,0.843c-0.488,3.411-3.469,5.984-6.931,5.984c-0.4,0-0.841-0.04-1.311-0.12
		l-0.818-0.134l-2.09,6.05l1.04,0.257c1.047,0.265,2.125,0.397,3.204,0.397c6.99,0,12.758-5.245,13.422-12.203l0.101-1.074H22.971z
		 M15.944,27.648c-0.555,0-1.115-0.043-1.671-0.127l0.842-2.438c0.271,0.025,0.541,0.037,0.804,0.037
		c4.14,0,7.741-2.848,8.711-6.825h2.63C26.236,23.748,21.561,27.648,15.944,27.648z"/>
	<path fill="#B07400" d="M12.671,22.354c-2.332-1.213-3.778-3.597-3.778-6.22c0-1.092,0.263-2.182,0.76-3.15l0.388-0.76L4.76,8.517
		L4.228,9.451c-1.186,2.067-1.786,4.314-1.786,6.683c0,5.23,3.089,10.044,7.867,12.259l0.981,0.455l2.134-6.103L12.671,22.354z
		 M7.55,12.876c-0.406,1.031-0.62,2.149-0.62,3.258c0,3.084,1.522,5.871,4.093,7.529l-0.854,2.442
		C6.6,24.033,4.403,20.26,4.403,16.134c0-1.656,0.348-3.25,1.03-4.744L7.55,12.876z"/>
	<path fill="#B07400" d="M15.604,21.316h0.805c0.377,0,0.684-0.306,0.684-0.682v-0.39c0.539-0.146,0.988-0.403,1.333-0.771
		c0.442-0.47,0.68-1.095,0.68-1.807c0-0.174-0.024-0.372-0.049-0.511c-0.029-0.21-0.09-0.38-0.135-0.49
		c-0.05-0.124-0.125-0.273-0.206-0.41c-0.09-0.149-0.198-0.256-0.298-0.359c-0.072-0.071-0.152-0.134-0.24-0.197l-0.148-0.106
		c-0.061-0.038-0.131-0.075-0.198-0.113l-0.188-0.104c-0.099-0.049-0.24-0.118-0.408-0.172c-0.127-0.055-0.252-0.095-0.366-0.133
		L16.6,14.989c-0.088-0.026-0.185-0.055-0.309-0.1c-0.425-0.127-0.627-0.237-0.724-0.308L15.532,14.5l-0.012-0.008
		c0.012-0.01,0.093-0.059,0.341-0.059c0.407,0,0.844,0.148,1.239,0.411c0.268,0.203,0.655,0.185,0.949-0.125l0.616-0.782
		c0.157-0.153,0.224-0.376,0.181-0.584c-0.025-0.197-0.144-0.321-0.203-0.387L18.564,12.9c-0.241-0.171-0.523-0.332-0.826-0.469
		c-0.227-0.1-0.457-0.187-0.69-0.264V11.63c0-0.374-0.306-0.681-0.683-0.681H15.56c-0.376,0-0.682,0.307-0.682,0.681v0.478
		c-0.517,0.137-0.952,0.39-1.3,0.759c-0.444,0.498-0.671,1.095-0.671,1.773c0,0.075,0.006,0.156,0.013,0.237
		c0.005,0.058,0.009,0.113,0.016,0.244c0.026,0.162,0.082,0.333,0.133,0.438c0.049,0.12,0.11,0.271,0.233,0.438
		c0.064,0.089,0.151,0.213,0.23,0.266c0.056,0.058,0.114,0.106,0.168,0.154l0.114,0.101c0.104,0.08,0.208,0.156,0.341,0.224
		c0.086,0.051,0.172,0.093,0.251,0.129l0.217,0.099c0.078,0.038,0.161,0.076,0.239,0.104l0.737,0.268
		c0.13,0.036,0.261,0.071,0.365,0.115c0.103,0.039,0.203,0.079,0.305,0.123c0.059,0.028,0.118,0.056,0.168,0.097l0.029,0.122
		c0,0.025,0,0.052-0.043,0.091c-0.182,0.135-0.669,0.102-1.145-0.1c-0.255-0.107-0.492-0.254-0.678-0.407
		c-0.297-0.296-0.831-0.222-1.017,0.054l-0.687,0.842c-0.21,0.277-0.184,0.671,0.069,0.92c0.548,0.527,1.219,0.893,1.952,1.066
		v0.373C14.921,21.012,15.228,21.316,15.604,21.316z"/>
</g>
</svg>
