<?xml version="1.0" encoding="utf-8"?>
<!-- Generator: Adobe Illustrator 16.0.0, SVG Export Plug-In . SVG Version: 6.00 Build 0)  -->
<!DOCTYPE svg PUBLIC "-//W3C//DTD SVG 1.1//EN" "http://www.w3.org/Graphics/SVG/1.1/DTD/svg11.dtd">
<svg version="1.1" id="Layer_1" xmlns="http://www.w3.org/2000/svg" xmlns:xlink="http://www.w3.org/1999/xlink" x="0px" y="0px"
	 width="530.671px" height="530.667px" viewBox="84.671 14.664 530.671 530.667"
	 enable-background="new 84.671 14.664 530.671 530.667" xml:space="preserve">
<path fill="#B07400" d="M525.05,189.71c-5.035,0-9.969,0.422-14.777,1.215c-16.562-29.68-41.516-54.637-71.195-71.195
	c0.793-4.813,1.215-9.742,1.215-14.777c0-49.789-40.508-90.289-90.289-90.289c-49.788,0-90.288,40.508-90.288,90.289
	c0,5.036,0.422,9.969,1.219,14.781c-27.5,15.301-50.488,37.273-67.021,64.074c-6.113-1.313-12.453-2.008-18.953-2.008
	c-49.789,0-90.289,40.508-90.289,90.289c0,49.781,40.509,90.289,90.289,90.289c3.691,0,7.332-0.227,10.91-0.66
	c16.48,33.017,42.816,60.574,75.063,78.547c-0.793,4.813-1.215,9.746-1.215,14.777c0,49.789,40.508,90.289,90.288,90.289
	c49.789,0,90.289-40.508,90.289-90.289c0-5.035-0.422-9.965-1.215-14.777c29.681-16.555,54.638-41.512,71.195-71.194
	c4.813,0.793,9.742,1.215,14.777,1.215c49.789,0,90.289-40.509,90.289-90.29C615.338,230.21,574.829,189.71,525.05,189.71
	L525.05,189.71z M598.753,279.999c0,15.266-4.669,29.465-12.648,41.242c-6.328-16.238-18.863-29.18-34.609-36.098
	c6.668-6.73,10.798-15.988,10.798-26.191c0-20.535-16.707-37.246-37.246-37.246s-37.238,16.707-37.238,37.246
	c0,10.203,4.125,19.461,10.793,26.191c-15.746,6.918-28.281,19.855-34.609,36.098c-7.98-11.777-12.651-25.977-12.651-41.242
	c0-40.641,33.062-73.703,73.702-73.703c40.648,0,73.712,33.062,73.712,73.703H598.753z M504.39,258.952
	c0-11.391,9.27-20.66,20.66-20.66s20.659,9.27,20.659,20.66s-9.269,20.66-20.659,20.66
	C513.655,279.612,504.39,270.347,504.39,258.952z M350,31.252c40.641,0,73.702,33.062,73.702,73.703
	c0,15.266-4.668,29.465-12.647,41.242c-6.328-16.238-18.863-29.18-34.609-36.098c6.668-6.73,10.793-15.988,10.793-26.191
	C387.246,63.381,370.539,46.67,350,46.67c-20.534,0-37.245,16.707-37.245,37.246c0,10.203,4.125,19.453,10.793,26.191
	c-15.746,6.918-28.281,19.855-34.609,36.098c-7.98-11.777-12.647-25.977-12.647-41.242c0.008-40.648,33.069-73.711,73.711-73.711
	H350z M350,104.576c-11.392,0-20.66-9.27-20.66-20.66c0-11.391,9.27-20.66,20.66-20.66c11.39,0,20.659,9.27,20.659,20.66
	C370.659,95.307,361.39,104.576,350,104.576z M350,121.162c23.698,0,43.676,16.758,48.065,39.609
	c-12.914,11.141-29.715,17.902-48.065,17.902c-18.359,0-35.152-6.762-48.066-17.902C306.324,137.919,326.301,121.162,350,121.162z
	 M174.95,198.389c40.641,0,73.702,33.062,73.702,73.703c0,15.266-4.668,29.465-12.647,41.242
	c-6.328-16.238-18.863-29.18-34.609-36.098c6.668-6.731,10.797-15.988,10.797-26.191c0-20.535-16.707-37.246-37.246-37.246
	c-20.538,0-37.245,16.707-37.245,37.246c0,10.203,4.125,19.453,10.793,26.191c-15.746,6.918-28.281,19.854-34.609,36.098
	c-7.98-11.777-12.648-25.977-12.648-41.242c0.012-40.641,33.074-73.703,73.716-73.703H174.95z M174.958,271.713
	c-11.392,0-20.66-9.27-20.66-20.66c0-11.39,9.27-20.66,20.66-20.66s20.659,9.27,20.659,20.66
	C195.617,262.443,186.348,271.713,174.958,271.713z M126.884,327.901c4.391-22.848,24.371-39.609,48.065-39.609
	c23.695,0,43.677,16.758,48.066,39.609c-12.914,11.141-29.715,17.902-48.066,17.902
	C156.599,345.803,139.805,339.042,126.884,327.901z M301.934,510.851c4.391-22.848,24.371-39.608,48.065-39.608
	c23.695,0,43.677,16.758,48.066,39.608c-12.914,11.142-29.715,17.902-48.066,17.902
	C331.641,528.753,314.848,521.991,301.934,510.851L301.934,510.851z M349.999,454.663c-11.391,0-20.66-9.27-20.66-20.66
	s9.27-20.66,20.66-20.66s20.66,9.27,20.66,20.66S361.39,454.663,349.999,454.663z M411.059,496.292
	c-6.328-16.238-18.863-29.18-34.609-36.098c6.668-6.73,10.793-15.988,10.793-26.191c0-20.535-16.707-37.237-37.238-37.237
	c-20.534,0-37.246,16.706-37.246,37.237c0,10.203,4.125,19.453,10.798,26.191c-15.746,6.918-28.281,19.854-34.609,36.098
	c-7.98-11.777-12.647-25.977-12.647-41.242c0-40.641,33.062-73.702,73.702-73.702c40.642,0,73.703,33.062,73.703,73.702
	C423.704,470.316,419.04,484.515,411.059,496.292L411.059,496.292z M434.66,423.655c-12.781-34.359-45.91-58.898-84.66-58.898
	c-38.762,0-71.895,24.552-84.672,58.931c-26.473-15.652-48.301-38.496-62.719-65.638c36.297-11.707,62.633-45.809,62.633-85.949
	c0-37.258-22.688-69.316-54.973-83.09c14.082-21.602,32.863-39.566,55.066-52.656c12.78,34.359,45.901,58.906,84.659,58.906
	c38.75,0,71.879-24.539,84.66-58.897c24.18,14.32,44.672,34.812,58.992,58.992c-34.359,12.781-58.898,45.91-58.898,84.66
	s24.539,71.879,58.898,84.66C479.331,388.843,458.838,409.335,434.66,423.655L434.66,423.655z M476.973,335.811
	c4.391-22.848,24.371-39.609,48.065-39.609c23.699,0,43.677,16.758,48.066,39.609c-12.914,11.141-29.715,17.902-48.066,17.902
	C506.687,353.705,489.894,346.943,476.973,335.811z"/>
</svg>
