<?xml version="1.0" encoding="utf-8"?>
<!-- Generator: Adobe Illustrator 16.0.0, SVG Export Plug-In . SVG Version: 6.00 Build 0)  -->
<!DOCTYPE svg PUBLIC "-//W3C//DTD SVG 1.1//EN" "http://www.w3.org/Graphics/SVG/1.1/DTD/svg11.dtd">
<svg version="1.1" id="Layer_1" xmlns="http://www.w3.org/2000/svg" xmlns:xlink="http://www.w3.org/1999/xlink" x="0px" y="0px"
	 width="542.5px" height="542.501px" viewBox="78.75 8.75 542.5 542.501" enable-background="new 78.75 8.75 542.5 542.501"
	 xml:space="preserve">
<path fill="#B07400" d="M577.5,236.25c24.125,0,43.75-19.625,43.75-43.75v-140c0-24.125-19.625-43.75-43.75-43.75h-175
	c-24.125,0-43.75,19.625-43.75,43.75v140c0,24.125,19.625,43.75,43.75,43.75h61.25v140.49c0,3.98-0.918,7.961-2.669,11.531
	l-7.339-36.681c-5.254-26.266-28.509-45.34-55.313-45.34c-12.23,0-22.18,9.957-22.18,22.18c0,4.391,1.285,8.645,3.727,12.301
	l9.004,13.512c3.332,4.996,5.484,10.789,6.23,16.746l6.195,49.621c0.945,7.543,3.852,14.741,8.41,20.815l18.934,25.238v14.586h-17.5
	v70h210v-70h-17.5v-15.434l12.879-25.763c3.02-6.039,4.621-12.809,4.621-19.565v-105.49c0-14.473-11.776-26.25-26.25-26.25
	c-3.457,0-6.738,0.707-9.766,1.926c-3.02-11.156-13.133-19.426-25.233-19.426c-3.457,0-6.738,0.707-9.766,1.926
	c-3.02-11.156-13.134-19.426-25.234-19.426c-3.078,0-6.004,0.629-8.75,1.609v-19.109L577.5,236.25z M402.5,218.75
	c-14.474,0-26.25-11.777-26.25-26.25v-140c0-14.473,11.776-26.25,26.25-26.25h175c14.473,0,26.25,11.777,26.25,26.25v140
	c0,14.473-11.777,26.25-26.25,26.25h-61.25v-18.242c2.102,0.383,4.219,0.742,6.352,0.742c9.391,0,18.577-3.805,25.219-10.449
	l12.18-12.18c5.645-5.645,8.75-13.141,8.75-21.121s-3.105-15.488-8.75-21.121l-15.426-15.426
	c-4.637-4.648-10.816-7.203-17.387-7.203h-1.156c-9.363,0-17.789,5.207-21.98,13.59c-1.207,2.414-3.637,3.91-6.332,3.91h-1.156
	c-1.891,0-3.668-0.734-5.004-2.074l-8.227-8.227c-1.348-1.335-2.082-3.113-2.082-5.012v-1.156c0-2.703,1.496-5.129,3.91-6.336
	c8.383-4.188,13.59-12.617,13.59-21.977v-1.156c0-6.563-2.555-12.738-7.203-17.379L476.121,52.5
	c-11.276-11.289-30.965-11.289-42.246,0l-12.18,12.18c-6.641,6.641-10.445,15.828-10.445,26.051c0,4.855,0.973,9.582,2.887,14.043
	c12.146,28.332,31.289,52.676,55.746,71.066c-3.77,4.551-6.133,10.309-6.133,16.66v26.25L402.5,218.75z M487.094,166.547
	c-25.199-17.012-44.871-40.645-56.875-68.672c-0.969-2.266-1.469-4.68-1.469-7.977c0-4.777,1.941-9.469,5.32-12.844l12.18-12.184
	c4.602-4.602,12.898-4.602,17.5,0l15.426,15.426c1.34,1.34,2.074,3.117,2.074,5.016v1.156c0,2.703-1.496,5.129-3.91,6.336
	c-8.383,4.188-13.59,12.617-13.59,21.977v1.156c0,6.563,2.555,12.738,7.203,17.379l8.227,8.227
	c4.633,4.652,10.813,7.207,17.383,7.207h1.156c9.363,0,17.789-5.207,21.98-13.59c1.207-2.415,3.637-3.911,6.332-3.911h1.156
	c1.891,0,3.668,0.734,5.004,2.074l15.438,15.426c2.301,2.301,3.621,5.496,3.621,8.75s-1.32,6.449-3.621,8.75l-12.18,12.18
	c-5.363,5.363-14.185,6.797-20.965,3.402l-0.754-0.375c-4.184-8.949-13.216-15.207-23.73-15.207
	C489.004,166.25,488.059,166.434,487.094,166.547L487.094,166.547z M603.754,533.747h-175v-35h175V533.747z M525.004,271.247
	c4.82,0,8.75,3.93,8.75,8.75v70h17.5v-52.5c0-4.828,3.93-8.75,8.75-8.75s8.75,3.922,8.75,8.75v52.5h17.5v-35
	c0-4.828,3.93-8.75,8.75-8.75s8.75,3.922,8.75,8.75v105.49c0,4.051-0.953,8.121-2.773,11.741l-14.728,29.453v19.566h-140v-20.414
	l-22.426-29.898c-2.73-3.648-4.48-7.973-5.047-12.495l-6.195-49.622c-1.086-8.645-4.207-17.047-9.039-24.28l-9.004-13.512
	c-0.516-0.77-0.789-1.664-0.789-2.598c0-2.578,2.102-4.68,4.68-4.68c18.479,0,34.527,13.152,38.148,31.273l11.245,56.228h21.332
	l7.473-14.945c3.02-6.039,4.621-12.81,4.621-19.565V192.498c0-4.82,3.93-8.75,8.75-8.75s8.75,3.93,8.75,8.75v157.5h17.5v-70
	c0-4.82,3.93-8.75,8.75-8.75L525.004,271.247z"/>
<path fill="#B07400" d="M297.5,288.75h-175c-24.125,0-43.75,19.625-43.75,43.75v140c0,24.125,19.625,43.75,43.75,43.75h175
	c24.125,0,43.75-19.625,43.75-43.75v-140C341.25,308.375,321.625,288.75,297.5,288.75z M323.75,472.5
	c0,14.473-11.777,26.25-26.25,26.25h-175c-14.474,0-26.25-11.777-26.25-26.25v-140c0-14.473,11.776-26.25,26.25-26.25h175
	c14.473,0,26.25,11.777,26.25,26.25V472.5z"/>
<path fill="#B07400" d="M297.5,8.75h-175c-24.125,0-43.75,19.625-43.75,43.75v140c0,24.125,19.625,43.75,43.75,43.75h175
	c24.125,0,43.75-19.625,43.75-43.75v-140C341.25,28.375,321.625,8.75,297.5,8.75z M323.75,192.5c0,14.473-11.777,26.25-26.25,26.25
	h-175c-14.474,0-26.25-11.777-26.25-26.25v-140c0-14.473,11.776-26.25,26.25-26.25h175c14.473,0,26.25,11.777,26.25,26.25V192.5z"/>
<path fill="#B07400" d="M210,43.75c-38.599,0-70,31.402-70,70v17.5c0,38.598,31.401,70,70,70v-17.5c-28.953,0-52.5-23.547-52.5-52.5
	v-17.5c0-28.953,23.547-52.5,52.5-52.5s52.5,23.547,52.5,52.5v43.75c0,4.82-3.93,8.75-8.75,8.75s-8.75-3.93-8.75-8.75v-43.75
	c0-19.301-15.699-35-35-35s-35,15.699-35,35v17.5c0,19.301,15.699,35,35,35c6.555,0,12.617-1.926,17.867-5.074
	c1.813,12.73,12.672,22.574,25.883,22.574c14.473,0,26.25-11.777,26.25-26.25v-43.75C280,75.152,248.598,43.75,210,43.75L210,43.75z
	 M210,148.75c-9.652,0-17.5-7.848-17.5-17.5v-17.5c0-9.652,7.848-17.5,17.5-17.5s17.5,7.848,17.5,17.5v17.5
	C227.5,140.902,219.653,148.75,210,148.75z"/>
<path fill="#B07400" d="M113.75,463.75h192.5v-122.5h-192.5V463.75z M180.828,419.547c8.496,5.957,18.573,9.203,29.172,9.203
	c10.598,0,20.676-3.246,29.172-9.203l33.383,26.703h-125.11L180.828,419.547z M252.262,407.609l36.488-36.488v65.668
	L252.262,407.609z M233.688,401.441c-12.651,12.645-34.719,12.645-47.371,0l-42.694-42.691h132.75L233.688,401.441z
	 M167.731,407.602l-36.479,29.19v-65.668L167.731,407.602z"/>
</svg>
