<?xml version="1.0" encoding="utf-8"?>
<!-- Generator: Adobe Illustrator 16.0.0, SVG Export Plug-In . SVG Version: 6.00 Build 0)  -->
<!DOCTYPE svg PUBLIC "-//W3C//DTD SVG 1.1//EN" "http://www.w3.org/Graphics/SVG/1.1/DTD/svg11.dtd">
<svg version="1.1" id="Layer_1" xmlns="http://www.w3.org/2000/svg" xmlns:xlink="http://www.w3.org/1999/xlink" x="0px" y="0px"
	 width="567.329px" height="567.058px" viewBox="15.399 139.325 567.329 567.058"
	 enable-background="new 15.399 139.325 567.329 567.058" xml:space="preserve">
<g>
	<path fill="#B07400" d="M100.453,263.289C102.314,260.963,101.384,261.894,100.453,263.289L100.453,263.289z"/>
	<path fill="#B07400" d="M138.589,560.929c0.465,0,0.465,0.465,0.93,0.465c-0.93-0.93-1.86-1.395-1.86-1.395
		C137.658,560.464,138.123,560.464,138.589,560.929z"/>
	<path fill="#B07400" d="M576.678,671.614c-14.417-14.417-28.834-28.834-43.717-43.716c-22.788-22.788-46.041-46.042-68.829-68.83
		c-0.465-0.465-1.395-1.395-1.86-1.86c3.721-4.65,7.441-9.301,11.162-13.951c7.906-10.696,14.882-21.394,20.928-33.484
		c0.465-0.466,0.465-1.396,0.93-1.86c26.509-53.018,34.415-113.476,21.394-171.608c-11.627-52.087-40.926-100.919-81.387-135.798
		c-35.81-30.229-79.99-51.157-126.497-58.133c-22.787-3.255-46.041-4.186-69.294-1.395c-25.113,3.255-48.366,9.301-71.619,19.067
		c-46.507,19.533-86.037,54.412-113.011,96.733c-29.299,46.042-43.251,102.314-38.6,156.261
		c5.115,59.993,31.159,117.195,73.944,159.981c33.484,33.484,76.735,57.203,123.242,67.435c45.576,9.766,93.942,7.905,137.658-7.441
		c22.323-7.906,43.716-18.138,62.783-32.09c6.511-4.65,13.021-9.766,19.067-14.882c9.767,9.767,19.998,19.998,29.765,29.765
		c22.788,22.788,46.041,46.041,68.829,68.829c5.115,5.115,10.696,10.696,15.812,15.813c7.441,7.44,21.394,8.371,28.834,0
		C584.583,692.542,585.049,679.52,576.678,671.614z M436.694,523.724C436.694,523.724,437.158,523.724,436.694,523.724
		C437.158,523.724,437.158,523.724,436.694,523.724z M399.953,224.688C400.419,225.619,400.884,225.619,399.953,224.688
		L399.953,224.688z M389.722,567.905c-3.72,2.79-7.905,5.115-12.091,7.44c-8.837,5.116-17.673,9.767-26.974,13.952
		c-16.743,6.976-34.88,11.626-53.018,14.417c-19.532,2.325-39.065,2.325-58.133,0c-18.138-2.791-35.81-7.441-52.552-14.417
		c-8.836-3.721-17.673-8.371-25.578-13.021c-4.651-2.791-8.837-5.581-13.022-8.371c-2.325-1.396-4.186-2.791-6.511-4.651
		c-0.465-0.465-1.396-0.93-2.325-1.395c0,0-0.465,0-0.465-0.466c0,0,0,0,0.465,0.466c-0.465-0.466-0.465-0.466-0.93-0.931
		c-0.466-0.465-1.396-1.396-1.396-0.93c-8.371-6.511-16.277-13.952-23.253-21.858c-4.651-4.65-8.837-9.301-12.557-14.417
		c-0.466-0.465-0.466-0.93-0.931-1.395c-0.465-0.931-1.395-1.86-1.86-2.791c-1.86-2.79-3.721-5.58-5.58-8.371
		c-7.906-11.626-14.417-24.183-19.998-37.205c-6.976-16.742-11.627-34.414-14.417-52.552c-2.325-19.533-2.325-39.065,0-58.598
		c2.79-18.137,7.441-35.345,14.417-52.552c4.65-10.697,9.767-20.928,16.277-30.694c3.255-5.581,6.976-10.696,10.696-15.812
		c0-0.465,0.465-0.93,0.93-1.396c0,0.465-0.465,0.465-0.93,0.931c0.93-1.396,1.86-2.326,2.79-3.721
		c1.86-2.325,3.721-4.651,6.046-6.976c7.906-8.836,16.277-17.208,25.579-25.113c1.859-1.395,3.72-2.791,5.115-4.186c0,0,0,0,0.465,0
		c1.396-0.93,2.791-1.86,4.186-2.791c4.186-3.255,8.837-6.046,13.487-8.836c9.766-6.046,19.997-11.162,30.694-15.813
		c16.742-6.976,34.414-11.626,52.552-14.417c19.532-2.325,39.065-2.325,58.133,0c18.137,2.791,35.81,7.441,52.552,14.417
		c9.302,4.186,18.138,8.371,26.974,13.487c4.65,2.79,9.302,6.045,13.952,8.836c2.325,1.395,4.186,2.791,6.511,4.65
		c0.465,0,0.465,0.465,0.93,0.93c0.466,0.465,1.396,0.93,1.86,1.396c9.302,7.441,17.673,15.347,25.579,23.718
		c4.186,4.65,8.836,9.301,12.091,14.417c0,0-3.255-4.186-0.93-1.396c0.465,0.465,0.93,1.396,1.396,1.86
		c0.93,1.395,1.86,2.325,2.79,3.721c1.86,2.79,3.721,5.115,5.581,7.906c7.44,11.162,13.486,22.788,18.603,35.345
		c6.511,16.742,11.626,34.415,13.951,52.552c2.325,19.533,2.325,39.065,0,58.598c-2.79,18.138-7.44,35.81-14.417,52.553
		c-1.859,4.65-4.186,9.301-6.511,13.951c-5.115,10.231-11.161,19.998-18.137,29.299c-0.931,0.931-1.86,2.326-2.326,3.256
		c0,0-0.465,0.465-0.465,0.93c-1.86,2.326-3.255,4.186-5.115,6.512c-3.721,4.65-7.906,9.301-12.092,13.486
		c-6.511,6.511-13.952,13.021-21.393,19.067c0,0-0.466,0-0.466,0.465c-0.93,0.466-1.395,1.396-2.325,1.86
		C393.907,565.114,392.048,566.51,389.722,567.905z M399.489,560.929c0.465,0,0.465-0.465,0.465-0.465
		S399.953,560.929,399.489,560.929z"/>
	<path fill="#B07400" d="M413.441,490.239h0.465c6.976,0,13.952-6.511,13.487-13.486c-0.466-7.441-6.046-13.487-13.487-13.487
		c-1.86,0-4.186,0-6.046,0c0-11.161,0-22.323,0-33.949c0-25.113,0-50.227,0-75.806c0-6.045,0-11.626,0-17.672
		c0-5.581-4.65-10.231-10.231-10.231c-18.138,0-36.739,0-54.877,0c-5.581,0-10.231,4.65-10.231,10.231c0,15.813,0,31.625,0,47.437
		c0,25.114,0,50.227,0,75.805c0,1.396,0,2.325,0,3.721c-5.581,0-11.162,0-16.742,0c-2.791,0-6.046,0-8.836,0
		c0-17.207,0-34.88,0-52.087c0-34.88,0-69.76,0-105.104c0-7.906,0-16.277,0-24.183c0-5.581-4.651-10.231-10.231-10.231
		c-18.138,0-36.74,0-54.878,0c-5.58,0-10.231,4.651-10.231,10.231c0,21.858,0,43.716,0,66.039c0,34.879,0,69.759,0,105.104
		c0,3.721,0,6.976,0,10.231c-8.371,0-17.207,0-25.578,0c0-27.904,0-56.272,0-84.176c0-4.651,0-9.301,0-13.952
		c0-5.581-4.65-10.231-10.231-10.231c-18.138,0-36.74,0-54.877,0c-5.581,0-10.231,4.651-10.231,10.231c0,32.554,0,65.109,0,97.664
		l0,0c-1.86,0-3.721,0-5.581,0h-0.465c-6.977,0-13.952,6.511-13.487,13.486c0.466,7.441,6.046,13.487,13.487,13.487
		c9.767,0,19.067,0,28.834,0c23.253,0,46.041,0,69.294,0c27.904,0,55.808,0,83.711,0c24.184,0,48.367,0,72.085,0
		C390.188,490.239,401.814,490.704,413.441,490.239z"/>
</g>
</svg>
