<?xml version="1.0" encoding="utf-8"?>
<!-- Generator: Adobe Illustrator 16.0.0, SVG Export Plug-In . SVG Version: 6.00 Build 0)  -->
<!DOCTYPE svg PUBLIC "-//W3C//DTD SVG 1.1//EN" "http://www.w3.org/Graphics/SVG/1.1/DTD/svg11.dtd">
<svg version="1.1" id="Layer_1" xmlns="http://www.w3.org/2000/svg" xmlns:xlink="http://www.w3.org/1999/xlink" x="0px" y="0px"
	 width="32px" height="32px" viewBox="0 0 32 32" enable-background="new 0 0 32 32" xml:space="preserve">
<g>
	<path fill="#FFFFFF" d="M8.229,23.007c-0.001,0-0.001,0-0.002,0c-0.281,0.011-0.541,0.122-0.724,0.312l-1.272,1.279
		c-0.45,0.389-0.507,1.038-0.132,1.476c0.196,0.231,0.483,0.364,0.788,0.364c0.248,0,0.487-0.09,0.704-0.278l1.37-1.365
		c0.413-0.397,0.43-1.06,0.032-1.471C8.801,23.122,8.529,23.007,8.229,23.007z"/>
	<path fill="#FFFFFF" d="M7.495,9.198c0.201,0.209,0.469,0.323,0.754,0.323c0.269,0,0.523-0.103,0.718-0.288
		C9.168,9.04,9.28,8.781,9.286,8.507C9.292,8.229,9.189,7.965,8.99,7.759l-1.316-1.31C7.477,6.243,7.211,6.128,6.882,6.128
		c-0.001,0-0.002,0-0.003,0c-0.306,0.03-0.575,0.171-0.758,0.396C5.948,6.735,5.871,7.001,5.9,7.275
		c0.027,0.238,0.136,0.46,0.302,0.624L7.495,9.198z"/>
	<path fill="#FFFFFF" d="M23.805,9.523c0.27,0,0.523-0.103,0.728-0.297l1.312-1.32c0.407-0.4,0.413-1.059,0.014-1.468
		c-0.194-0.195-0.465-0.31-0.758-0.31l0,0c-0.271,0.009-0.524,0.121-0.709,0.311l-1.3,1.291c-0.204,0.196-0.317,0.457-0.323,0.731
		c-0.006,0.279,0.096,0.543,0.287,0.74C23.252,9.409,23.52,9.523,23.805,9.523z"/>
	<path fill="#FFFFFF" d="M15.558,6.188v0.011l0.021-0.001c0.128,0.063,0.272,0.099,0.424,0.103l0.003-0.111l0.021,0.11
		c0.559,0,1.022-0.454,1.034-1.021V3.416c0.01-0.575-0.445-1.05-1.07-1.059c-0.589,0.058-1.009,0.5-1,1.044v1.833
		C14.981,5.647,15.214,6.011,15.558,6.188z"/>
	<path fill="#FFFFFF" d="M5.779,15.547c-0.19-0.2-0.449-0.313-0.735-0.319H3.172c-0.58,0-1.044,0.444-1.057,1.012
		c-0.013,0.568,0.443,1.045,1.024,1.06H5.03c0.558,0,1.021-0.454,1.035-1.014C6.071,16.009,5.97,15.746,5.779,15.547z"/>
	<path fill="#FFFFFF" d="M25.865,24.641l-1.309-1.313c-0.197-0.205-0.463-0.318-0.746-0.318c-0.57,0-1.037,0.464-1.041,1.03
		c-0.002,0.281,0.108,0.55,0.313,0.745l1.277,1.269c0.209,0.248,0.509,0.391,0.817,0.391c0.242,0,0.478-0.088,0.662-0.244
		c0.435-0.369,0.489-1.022,0.115-1.467C25.922,24.691,25.883,24.652,25.865,24.641z"/>
	<path fill="#FFFFFF" d="M21.949,10.34c-1.586-1.587-3.689-2.459-5.923-2.459s-4.338,0.872-5.924,2.459
		c-1.585,1.585-2.458,3.689-2.457,5.922c0.001,2.72,1.373,5.278,3.673,6.857v0.49c0,1.168,0.733,2.228,1.836,2.662v1.008
		c0,1.585,1.288,2.873,2.872,2.873c1.583,0,2.871-1.288,2.871-2.873v-1.008c1.103-0.434,1.838-1.492,1.838-2.662v-0.492
		c2.298-1.58,3.67-4.139,3.674-6.855C24.409,14.028,23.536,11.924,21.949,10.34z M16.826,27.279c0,0.466-0.336,0.803-0.8,0.803
		c-0.457,0-0.802-0.346-0.802-0.803v-0.801h1.602V27.279z M12.87,21.721c-1.944-1.125-3.153-3.217-3.154-5.458
		c-0.001-1.689,0.653-3.274,1.843-4.466c1.19-1.188,2.776-1.845,4.468-1.845c1.69,0,3.278,0.656,4.467,1.845
		c1.189,1.191,1.845,2.776,1.843,4.466c-0.002,2.241-1.211,4.332-3.155,5.455c-0.318,0.184-0.517,0.526-0.519,0.896v0.996
		c0,0.464-0.336,0.8-0.8,0.8H14.19c-0.464,0-0.8-0.336-0.8-0.8v-0.993C13.39,22.248,13.189,21.904,12.87,21.721z"/>
	<path fill="#FFFFFF" d="M29.648,15.547c-0.191-0.201-0.449-0.313-0.733-0.319h-1.872c-0.579,0-1.043,0.444-1.055,1.011
		c-0.012,0.569,0.441,1.046,1.023,1.061h1.891c0.557,0,1.021-0.454,1.033-1.014C29.943,16.011,29.841,15.749,29.648,15.547z"/>
</g>
</svg>
